<?xml version="1.0" encoding="utf-8" standalone="no"?>
<!DOCTYPE svg PUBLIC "-//W3C//DTD SVG 1.1//EN"
  "http://www.w3.org/Graphics/SVG/1.1/DTD/svg11.dtd">
<svg xmlns:xlink="http://www.w3.org/1999/xlink" width="460.8pt" height="345.6pt" viewBox="0 0 460.8 345.6" xmlns="http://www.w3.org/2000/svg" version="1.1">
 <metadata>
  <rdf:RDF xmlns:dc="http://purl.org/dc/elements/1.1/" xmlns:cc="http://creativecommons.org/ns#" xmlns:rdf="http://www.w3.org/1999/02/22-rdf-syntax-ns#">
   <cc:Work>
    <dc:type rdf:resource="http://purl.org/dc/dcmitype/StillImage"/>
    <dc:date>2024-04-19T17:58:16.367799</dc:date>
    <dc:format>image/svg+xml</dc:format>
    <dc:creator>
     <cc:Agent>
      <dc:title>Matplotlib v3.7.2, https://matplotlib.org/</dc:title>
     </cc:Agent>
    </dc:creator>
   </cc:Work>
  </rdf:RDF>
 </metadata>
 <defs>
  <style type="text/css">*{stroke-linejoin: round; stroke-linecap: butt}</style>
 </defs>
 <g id="figure_1">
  <g id="patch_1">
   <path d="M 0 345.6 
L 460.8 345.6 
L 460.8 0 
L 0 0 
z
" style="fill: #ffffff"/>
  </g>
  <g id="axes_1">
   <g id="patch_2">
    <path d="M 57.6 276.48 
L 414.72 276.48 
L 414.72 41.472 
L 57.6 41.472 
z
" style="fill: #ffffff"/>
   </g>
   <g id="matplotlib.axis_1">
    <g id="xtick_1">
     <g id="line2d_1">
      <defs>
       <path id="m075a54f095" d="M 0 0 
L 0 3.5 
" style="stroke: #000000; stroke-width: 0.8"/>
      </defs>
      <g>
       <use xlink:href="#m075a54f095" x="80.743045" y="276.48" style="stroke: #000000; stroke-width: 0.8"/>
      </g>
     </g>
     <g id="text_1">
      <!-- 2012 -->
      <g transform="translate(57.662855 302.78544) rotate(-30) scale(0.1 -0.1)">
       <defs>
        <path id="DejaVuSans-32" d="M 1228 531 
L 3431 531 
L 3431 0 
L 469 0 
L 469 531 
Q 828 903 1448 1529 
Q 2069 2156 2228 2338 
Q 2531 2678 2651 2914 
Q 2772 3150 2772 3378 
Q 2772 3750 2511 3984 
Q 2250 4219 1831 4219 
Q 1534 4219 1204 4116 
Q 875 4013 500 3803 
L 500 4441 
Q 881 4594 1212 4672 
Q 1544 4750 1819 4750 
Q 2544 4750 2975 4387 
Q 3406 4025 3406 3419 
Q 3406 3131 3298 2873 
Q 3191 2616 2906 2266 
Q 2828 2175 2409 1742 
Q 1991 1309 1228 531 
z
" transform="scale(0.015625)"/>
        <path id="DejaVuSans-30" d="M 2034 4250 
Q 1547 4250 1301 3770 
Q 1056 3291 1056 2328 
Q 1056 1369 1301 889 
Q 1547 409 2034 409 
Q 2525 409 2770 889 
Q 3016 1369 3016 2328 
Q 3016 3291 2770 3770 
Q 2525 4250 2034 4250 
z
M 2034 4750 
Q 2819 4750 3233 4129 
Q 3647 3509 3647 2328 
Q 3647 1150 3233 529 
Q 2819 -91 2034 -91 
Q 1250 -91 836 529 
Q 422 1150 422 2328 
Q 422 3509 836 4129 
Q 1250 4750 2034 4750 
z
" transform="scale(0.015625)"/>
        <path id="DejaVuSans-31" d="M 794 531 
L 1825 531 
L 1825 4091 
L 703 3866 
L 703 4441 
L 1819 4666 
L 2450 4666 
L 2450 531 
L 3481 531 
L 3481 0 
L 794 0 
L 794 531 
z
" transform="scale(0.015625)"/>
       </defs>
       <use xlink:href="#DejaVuSans-32"/>
       <use xlink:href="#DejaVuSans-30" x="63.623047"/>
       <use xlink:href="#DejaVuSans-31" x="127.246094"/>
       <use xlink:href="#DejaVuSans-32" x="190.869141"/>
      </g>
     </g>
    </g>
    <g id="xtick_2">
     <g id="line2d_2">
      <g>
       <use xlink:href="#m075a54f095" x="128.463352" y="276.48" style="stroke: #000000; stroke-width: 0.8"/>
      </g>
     </g>
     <g id="text_2">
      <!-- 2013 -->
      <g transform="translate(105.383161 302.78544) rotate(-30) scale(0.1 -0.1)">
       <defs>
        <path id="DejaVuSans-33" d="M 2597 2516 
Q 3050 2419 3304 2112 
Q 3559 1806 3559 1356 
Q 3559 666 3084 287 
Q 2609 -91 1734 -91 
Q 1441 -91 1130 -33 
Q 819 25 488 141 
L 488 750 
Q 750 597 1062 519 
Q 1375 441 1716 441 
Q 2309 441 2620 675 
Q 2931 909 2931 1356 
Q 2931 1769 2642 2001 
Q 2353 2234 1838 2234 
L 1294 2234 
L 1294 2753 
L 1863 2753 
Q 2328 2753 2575 2939 
Q 2822 3125 2822 3475 
Q 2822 3834 2567 4026 
Q 2313 4219 1838 4219 
Q 1578 4219 1281 4162 
Q 984 4106 628 3988 
L 628 4550 
Q 988 4650 1302 4700 
Q 1616 4750 1894 4750 
Q 2613 4750 3031 4423 
Q 3450 4097 3450 3541 
Q 3450 3153 3228 2886 
Q 3006 2619 2597 2516 
z
" transform="scale(0.015625)"/>
       </defs>
       <use xlink:href="#DejaVuSans-32"/>
       <use xlink:href="#DejaVuSans-30" x="63.623047"/>
       <use xlink:href="#DejaVuSans-31" x="127.246094"/>
       <use xlink:href="#DejaVuSans-33" x="190.869141"/>
      </g>
     </g>
    </g>
    <g id="xtick_3">
     <g id="line2d_3">
      <g>
       <use xlink:href="#m075a54f095" x="176.053275" y="276.48" style="stroke: #000000; stroke-width: 0.8"/>
      </g>
     </g>
     <g id="text_3">
      <!-- 2014 -->
      <g transform="translate(152.973085 302.78544) rotate(-30) scale(0.1 -0.1)">
       <defs>
        <path id="DejaVuSans-34" d="M 2419 4116 
L 825 1625 
L 2419 1625 
L 2419 4116 
z
M 2253 4666 
L 3047 4666 
L 3047 1625 
L 3713 1625 
L 3713 1100 
L 3047 1100 
L 3047 0 
L 2419 0 
L 2419 1100 
L 313 1100 
L 313 1709 
L 2253 4666 
z
" transform="scale(0.015625)"/>
       </defs>
       <use xlink:href="#DejaVuSans-32"/>
       <use xlink:href="#DejaVuSans-30" x="63.623047"/>
       <use xlink:href="#DejaVuSans-31" x="127.246094"/>
       <use xlink:href="#DejaVuSans-34" x="190.869141"/>
      </g>
     </g>
    </g>
    <g id="xtick_4">
     <g id="line2d_4">
      <g>
       <use xlink:href="#m075a54f095" x="223.643198" y="276.48" style="stroke: #000000; stroke-width: 0.8"/>
      </g>
     </g>
     <g id="text_4">
      <!-- 2015 -->
      <g transform="translate(200.563008 302.78544) rotate(-30) scale(0.1 -0.1)">
       <defs>
        <path id="DejaVuSans-35" d="M 691 4666 
L 3169 4666 
L 3169 4134 
L 1269 4134 
L 1269 2991 
Q 1406 3038 1543 3061 
Q 1681 3084 1819 3084 
Q 2600 3084 3056 2656 
Q 3513 2228 3513 1497 
Q 3513 744 3044 326 
Q 2575 -91 1722 -91 
Q 1428 -91 1123 -41 
Q 819 9 494 109 
L 494 744 
Q 775 591 1075 516 
Q 1375 441 1709 441 
Q 2250 441 2565 725 
Q 2881 1009 2881 1497 
Q 2881 1984 2565 2268 
Q 2250 2553 1709 2553 
Q 1456 2553 1204 2497 
Q 953 2441 691 2322 
L 691 4666 
z
" transform="scale(0.015625)"/>
       </defs>
       <use xlink:href="#DejaVuSans-32"/>
       <use xlink:href="#DejaVuSans-30" x="63.623047"/>
       <use xlink:href="#DejaVuSans-31" x="127.246094"/>
       <use xlink:href="#DejaVuSans-35" x="190.869141"/>
      </g>
     </g>
    </g>
    <g id="xtick_5">
     <g id="line2d_5">
      <g>
       <use xlink:href="#m075a54f095" x="271.233122" y="276.48" style="stroke: #000000; stroke-width: 0.8"/>
      </g>
     </g>
     <g id="text_5">
      <!-- 2016 -->
      <g transform="translate(248.152931 302.78544) rotate(-30) scale(0.1 -0.1)">
       <defs>
        <path id="DejaVuSans-36" d="M 2113 2584 
Q 1688 2584 1439 2293 
Q 1191 2003 1191 1497 
Q 1191 994 1439 701 
Q 1688 409 2113 409 
Q 2538 409 2786 701 
Q 3034 994 3034 1497 
Q 3034 2003 2786 2293 
Q 2538 2584 2113 2584 
z
M 3366 4563 
L 3366 3988 
Q 3128 4100 2886 4159 
Q 2644 4219 2406 4219 
Q 1781 4219 1451 3797 
Q 1122 3375 1075 2522 
Q 1259 2794 1537 2939 
Q 1816 3084 2150 3084 
Q 2853 3084 3261 2657 
Q 3669 2231 3669 1497 
Q 3669 778 3244 343 
Q 2819 -91 2113 -91 
Q 1303 -91 875 529 
Q 447 1150 447 2328 
Q 447 3434 972 4092 
Q 1497 4750 2381 4750 
Q 2619 4750 2861 4703 
Q 3103 4656 3366 4563 
z
" transform="scale(0.015625)"/>
       </defs>
       <use xlink:href="#DejaVuSans-32"/>
       <use xlink:href="#DejaVuSans-30" x="63.623047"/>
       <use xlink:href="#DejaVuSans-31" x="127.246094"/>
       <use xlink:href="#DejaVuSans-36" x="190.869141"/>
      </g>
     </g>
    </g>
    <g id="xtick_6">
     <g id="line2d_6">
      <g>
       <use xlink:href="#m075a54f095" x="318.953428" y="276.48" style="stroke: #000000; stroke-width: 0.8"/>
      </g>
     </g>
     <g id="text_6">
      <!-- 2017 -->
      <g transform="translate(295.873238 302.78544) rotate(-30) scale(0.1 -0.1)">
       <defs>
        <path id="DejaVuSans-37" d="M 525 4666 
L 3525 4666 
L 3525 4397 
L 1831 0 
L 1172 0 
L 2766 4134 
L 525 4134 
L 525 4666 
z
" transform="scale(0.015625)"/>
       </defs>
       <use xlink:href="#DejaVuSans-32"/>
       <use xlink:href="#DejaVuSans-30" x="63.623047"/>
       <use xlink:href="#DejaVuSans-31" x="127.246094"/>
       <use xlink:href="#DejaVuSans-37" x="190.869141"/>
      </g>
     </g>
    </g>
    <g id="xtick_7">
     <g id="line2d_7">
      <g>
       <use xlink:href="#m075a54f095" x="366.543352" y="276.48" style="stroke: #000000; stroke-width: 0.8"/>
      </g>
     </g>
     <g id="text_7">
      <!-- 2018 -->
      <g transform="translate(343.463161 302.78544) rotate(-30) scale(0.1 -0.1)">
       <defs>
        <path id="DejaVuSans-38" d="M 2034 2216 
Q 1584 2216 1326 1975 
Q 1069 1734 1069 1313 
Q 1069 891 1326 650 
Q 1584 409 2034 409 
Q 2484 409 2743 651 
Q 3003 894 3003 1313 
Q 3003 1734 2745 1975 
Q 2488 2216 2034 2216 
z
M 1403 2484 
Q 997 2584 770 2862 
Q 544 3141 544 3541 
Q 544 4100 942 4425 
Q 1341 4750 2034 4750 
Q 2731 4750 3128 4425 
Q 3525 4100 3525 3541 
Q 3525 3141 3298 2862 
Q 3072 2584 2669 2484 
Q 3125 2378 3379 2068 
Q 3634 1759 3634 1313 
Q 3634 634 3220 271 
Q 2806 -91 2034 -91 
Q 1263 -91 848 271 
Q 434 634 434 1313 
Q 434 1759 690 2068 
Q 947 2378 1403 2484 
z
M 1172 3481 
Q 1172 3119 1398 2916 
Q 1625 2713 2034 2713 
Q 2441 2713 2670 2916 
Q 2900 3119 2900 3481 
Q 2900 3844 2670 4047 
Q 2441 4250 2034 4250 
Q 1625 4250 1398 4047 
Q 1172 3844 1172 3481 
z
" transform="scale(0.015625)"/>
       </defs>
       <use xlink:href="#DejaVuSans-32"/>
       <use xlink:href="#DejaVuSans-30" x="63.623047"/>
       <use xlink:href="#DejaVuSans-31" x="127.246094"/>
       <use xlink:href="#DejaVuSans-38" x="190.869141"/>
      </g>
     </g>
    </g>
    <g id="xtick_8">
     <g id="line2d_8">
      <g>
       <use xlink:href="#m075a54f095" x="414.133275" y="276.48" style="stroke: #000000; stroke-width: 0.8"/>
      </g>
     </g>
     <g id="text_8">
      <!-- 2019 -->
      <g transform="translate(391.053085 302.78544) rotate(-30) scale(0.1 -0.1)">
       <defs>
        <path id="DejaVuSans-39" d="M 703 97 
L 703 672 
Q 941 559 1184 500 
Q 1428 441 1663 441 
Q 2288 441 2617 861 
Q 2947 1281 2994 2138 
Q 2813 1869 2534 1725 
Q 2256 1581 1919 1581 
Q 1219 1581 811 2004 
Q 403 2428 403 3163 
Q 403 3881 828 4315 
Q 1253 4750 1959 4750 
Q 2769 4750 3195 4129 
Q 3622 3509 3622 2328 
Q 3622 1225 3098 567 
Q 2575 -91 1691 -91 
Q 1453 -91 1209 -44 
Q 966 3 703 97 
z
M 1959 2075 
Q 2384 2075 2632 2365 
Q 2881 2656 2881 3163 
Q 2881 3666 2632 3958 
Q 2384 4250 1959 4250 
Q 1534 4250 1286 3958 
Q 1038 3666 1038 3163 
Q 1038 2656 1286 2365 
Q 1534 2075 1959 2075 
z
" transform="scale(0.015625)"/>
       </defs>
       <use xlink:href="#DejaVuSans-32"/>
       <use xlink:href="#DejaVuSans-30" x="63.623047"/>
       <use xlink:href="#DejaVuSans-31" x="127.246094"/>
       <use xlink:href="#DejaVuSans-39" x="190.869141"/>
      </g>
     </g>
    </g>
    <g id="text_9">
     <!-- Attendance Date -->
     <g transform="translate(193.888906 316.18494) scale(0.1 -0.1)">
      <defs>
       <path id="DejaVuSans-41" d="M 2188 4044 
L 1331 1722 
L 3047 1722 
L 2188 4044 
z
M 1831 4666 
L 2547 4666 
L 4325 0 
L 3669 0 
L 3244 1197 
L 1141 1197 
L 716 0 
L 50 0 
L 1831 4666 
z
" transform="scale(0.015625)"/>
       <path id="DejaVuSans-74" d="M 1172 4494 
L 1172 3500 
L 2356 3500 
L 2356 3053 
L 1172 3053 
L 1172 1153 
Q 1172 725 1289 603 
Q 1406 481 1766 481 
L 2356 481 
L 2356 0 
L 1766 0 
Q 1100 0 847 248 
Q 594 497 594 1153 
L 594 3053 
L 172 3053 
L 172 3500 
L 594 3500 
L 594 4494 
L 1172 4494 
z
" transform="scale(0.015625)"/>
       <path id="DejaVuSans-65" d="M 3597 1894 
L 3597 1613 
L 953 1613 
Q 991 1019 1311 708 
Q 1631 397 2203 397 
Q 2534 397 2845 478 
Q 3156 559 3463 722 
L 3463 178 
Q 3153 47 2828 -22 
Q 2503 -91 2169 -91 
Q 1331 -91 842 396 
Q 353 884 353 1716 
Q 353 2575 817 3079 
Q 1281 3584 2069 3584 
Q 2775 3584 3186 3129 
Q 3597 2675 3597 1894 
z
M 3022 2063 
Q 3016 2534 2758 2815 
Q 2500 3097 2075 3097 
Q 1594 3097 1305 2825 
Q 1016 2553 972 2059 
L 3022 2063 
z
" transform="scale(0.015625)"/>
       <path id="DejaVuSans-6e" d="M 3513 2113 
L 3513 0 
L 2938 0 
L 2938 2094 
Q 2938 2591 2744 2837 
Q 2550 3084 2163 3084 
Q 1697 3084 1428 2787 
Q 1159 2491 1159 1978 
L 1159 0 
L 581 0 
L 581 3500 
L 1159 3500 
L 1159 2956 
Q 1366 3272 1645 3428 
Q 1925 3584 2291 3584 
Q 2894 3584 3203 3211 
Q 3513 2838 3513 2113 
z
" transform="scale(0.015625)"/>
       <path id="DejaVuSans-64" d="M 2906 2969 
L 2906 4863 
L 3481 4863 
L 3481 0 
L 2906 0 
L 2906 525 
Q 2725 213 2448 61 
Q 2172 -91 1784 -91 
Q 1150 -91 751 415 
Q 353 922 353 1747 
Q 353 2572 751 3078 
Q 1150 3584 1784 3584 
Q 2172 3584 2448 3432 
Q 2725 3281 2906 2969 
z
M 947 1747 
Q 947 1113 1208 752 
Q 1469 391 1925 391 
Q 2381 391 2643 752 
Q 2906 1113 2906 1747 
Q 2906 2381 2643 2742 
Q 2381 3103 1925 3103 
Q 1469 3103 1208 2742 
Q 947 2381 947 1747 
z
" transform="scale(0.015625)"/>
       <path id="DejaVuSans-61" d="M 2194 1759 
Q 1497 1759 1228 1600 
Q 959 1441 959 1056 
Q 959 750 1161 570 
Q 1363 391 1709 391 
Q 2188 391 2477 730 
Q 2766 1069 2766 1631 
L 2766 1759 
L 2194 1759 
z
M 3341 1997 
L 3341 0 
L 2766 0 
L 2766 531 
Q 2569 213 2275 61 
Q 1981 -91 1556 -91 
Q 1019 -91 701 211 
Q 384 513 384 1019 
Q 384 1609 779 1909 
Q 1175 2209 1959 2209 
L 2766 2209 
L 2766 2266 
Q 2766 2663 2505 2880 
Q 2244 3097 1772 3097 
Q 1472 3097 1187 3025 
Q 903 2953 641 2809 
L 641 3341 
Q 956 3463 1253 3523 
Q 1550 3584 1831 3584 
Q 2591 3584 2966 3190 
Q 3341 2797 3341 1997 
z
" transform="scale(0.015625)"/>
       <path id="DejaVuSans-63" d="M 3122 3366 
L 3122 2828 
Q 2878 2963 2633 3030 
Q 2388 3097 2138 3097 
Q 1578 3097 1268 2742 
Q 959 2388 959 1747 
Q 959 1106 1268 751 
Q 1578 397 2138 397 
Q 2388 397 2633 464 
Q 2878 531 3122 666 
L 3122 134 
Q 2881 22 2623 -34 
Q 2366 -91 2075 -91 
Q 1284 -91 818 406 
Q 353 903 353 1747 
Q 353 2603 823 3093 
Q 1294 3584 2113 3584 
Q 2378 3584 2631 3529 
Q 2884 3475 3122 3366 
z
" transform="scale(0.015625)"/>
       <path id="DejaVuSans-20" transform="scale(0.015625)"/>
       <path id="DejaVuSans-44" d="M 1259 4147 
L 1259 519 
L 2022 519 
Q 2988 519 3436 956 
Q 3884 1394 3884 2338 
Q 3884 3275 3436 3711 
Q 2988 4147 2022 4147 
L 1259 4147 
z
M 628 4666 
L 1925 4666 
Q 3281 4666 3915 4102 
Q 4550 3538 4550 2338 
Q 4550 1131 3912 565 
Q 3275 0 1925 0 
L 628 0 
L 628 4666 
z
" transform="scale(0.015625)"/>
      </defs>
      <use xlink:href="#DejaVuSans-41"/>
      <use xlink:href="#DejaVuSans-74" x="66.658203"/>
      <use xlink:href="#DejaVuSans-74" x="105.867188"/>
      <use xlink:href="#DejaVuSans-65" x="145.076172"/>
      <use xlink:href="#DejaVuSans-6e" x="206.599609"/>
      <use xlink:href="#DejaVuSans-64" x="269.978516"/>
      <use xlink:href="#DejaVuSans-61" x="333.455078"/>
      <use xlink:href="#DejaVuSans-6e" x="394.734375"/>
      <use xlink:href="#DejaVuSans-63" x="458.113281"/>
      <use xlink:href="#DejaVuSans-65" x="513.09375"/>
      <use xlink:href="#DejaVuSans-20" x="574.617188"/>
      <use xlink:href="#DejaVuSans-44" x="606.404297"/>
      <use xlink:href="#DejaVuSans-61" x="683.40625"/>
      <use xlink:href="#DejaVuSans-74" x="744.685547"/>
      <use xlink:href="#DejaVuSans-65" x="783.894531"/>
     </g>
    </g>
   </g>
   <g id="matplotlib.axis_2">
    <g id="ytick_1">
     <g id="line2d_9">
      <defs>
       <path id="m7b13c41d20" d="M 0 0 
L -3.5 0 
" style="stroke: #000000; stroke-width: 0.8"/>
      </defs>
      <g>
       <use xlink:href="#m7b13c41d20" x="57.6" y="256.497144" style="stroke: #000000; stroke-width: 0.8"/>
      </g>
     </g>
     <g id="text_10">
      <!-- 50 -->
      <g transform="translate(37.875 260.296362) scale(0.1 -0.1)">
       <use xlink:href="#DejaVuSans-35"/>
       <use xlink:href="#DejaVuSans-30" x="63.623047"/>
      </g>
     </g>
    </g>
    <g id="ytick_2">
     <g id="line2d_10">
      <g>
       <use xlink:href="#m7b13c41d20" x="57.6" y="227.958741" style="stroke: #000000; stroke-width: 0.8"/>
      </g>
     </g>
     <g id="text_11">
      <!-- 100 -->
      <g transform="translate(31.5125 231.75796) scale(0.1 -0.1)">
       <use xlink:href="#DejaVuSans-31"/>
       <use xlink:href="#DejaVuSans-30" x="63.623047"/>
       <use xlink:href="#DejaVuSans-30" x="127.246094"/>
      </g>
     </g>
    </g>
    <g id="ytick_3">
     <g id="line2d_11">
      <g>
       <use xlink:href="#m7b13c41d20" x="57.6" y="199.420339" style="stroke: #000000; stroke-width: 0.8"/>
      </g>
     </g>
     <g id="text_12">
      <!-- 150 -->
      <g transform="translate(31.5125 203.219558) scale(0.1 -0.1)">
       <use xlink:href="#DejaVuSans-31"/>
       <use xlink:href="#DejaVuSans-35" x="63.623047"/>
       <use xlink:href="#DejaVuSans-30" x="127.246094"/>
      </g>
     </g>
    </g>
    <g id="ytick_4">
     <g id="line2d_12">
      <g>
       <use xlink:href="#m7b13c41d20" x="57.6" y="170.881937" style="stroke: #000000; stroke-width: 0.8"/>
      </g>
     </g>
     <g id="text_13">
      <!-- 200 -->
      <g transform="translate(31.5125 174.681155) scale(0.1 -0.1)">
       <use xlink:href="#DejaVuSans-32"/>
       <use xlink:href="#DejaVuSans-30" x="63.623047"/>
       <use xlink:href="#DejaVuSans-30" x="127.246094"/>
      </g>
     </g>
    </g>
    <g id="ytick_5">
     <g id="line2d_13">
      <g>
       <use xlink:href="#m7b13c41d20" x="57.6" y="142.343534" style="stroke: #000000; stroke-width: 0.8"/>
      </g>
     </g>
     <g id="text_14">
      <!-- 250 -->
      <g transform="translate(31.5125 146.142753) scale(0.1 -0.1)">
       <use xlink:href="#DejaVuSans-32"/>
       <use xlink:href="#DejaVuSans-35" x="63.623047"/>
       <use xlink:href="#DejaVuSans-30" x="127.246094"/>
      </g>
     </g>
    </g>
    <g id="ytick_6">
     <g id="line2d_14">
      <g>
       <use xlink:href="#m7b13c41d20" x="57.6" y="113.805132" style="stroke: #000000; stroke-width: 0.8"/>
      </g>
     </g>
     <g id="text_15">
      <!-- 300 -->
      <g transform="translate(31.5125 117.604351) scale(0.1 -0.1)">
       <use xlink:href="#DejaVuSans-33"/>
       <use xlink:href="#DejaVuSans-30" x="63.623047"/>
       <use xlink:href="#DejaVuSans-30" x="127.246094"/>
      </g>
     </g>
    </g>
    <g id="ytick_7">
     <g id="line2d_15">
      <g>
       <use xlink:href="#m7b13c41d20" x="57.6" y="85.266729" style="stroke: #000000; stroke-width: 0.8"/>
      </g>
     </g>
     <g id="text_16">
      <!-- 350 -->
      <g transform="translate(31.5125 89.065948) scale(0.1 -0.1)">
       <use xlink:href="#DejaVuSans-33"/>
       <use xlink:href="#DejaVuSans-35" x="63.623047"/>
       <use xlink:href="#DejaVuSans-30" x="127.246094"/>
      </g>
     </g>
    </g>
    <g id="ytick_8">
     <g id="line2d_16">
      <g>
       <use xlink:href="#m7b13c41d20" x="57.6" y="56.728327" style="stroke: #000000; stroke-width: 0.8"/>
      </g>
     </g>
     <g id="text_17">
      <!-- 400 -->
      <g transform="translate(31.5125 60.527546) scale(0.1 -0.1)">
       <use xlink:href="#DejaVuSans-34"/>
       <use xlink:href="#DejaVuSans-30" x="63.623047"/>
       <use xlink:href="#DejaVuSans-30" x="127.246094"/>
      </g>
     </g>
    </g>
    <g id="text_18">
     <!-- uACR -->
     <g transform="translate(25.432812 172.443187) rotate(-90) scale(0.1 -0.1)">
      <defs>
       <path id="DejaVuSans-75" d="M 544 1381 
L 544 3500 
L 1119 3500 
L 1119 1403 
Q 1119 906 1312 657 
Q 1506 409 1894 409 
Q 2359 409 2629 706 
Q 2900 1003 2900 1516 
L 2900 3500 
L 3475 3500 
L 3475 0 
L 2900 0 
L 2900 538 
Q 2691 219 2414 64 
Q 2138 -91 1772 -91 
Q 1169 -91 856 284 
Q 544 659 544 1381 
z
M 1991 3584 
L 1991 3584 
z
" transform="scale(0.015625)"/>
       <path id="DejaVuSans-43" d="M 4122 4306 
L 4122 3641 
Q 3803 3938 3442 4084 
Q 3081 4231 2675 4231 
Q 1875 4231 1450 3742 
Q 1025 3253 1025 2328 
Q 1025 1406 1450 917 
Q 1875 428 2675 428 
Q 3081 428 3442 575 
Q 3803 722 4122 1019 
L 4122 359 
Q 3791 134 3420 21 
Q 3050 -91 2638 -91 
Q 1578 -91 968 557 
Q 359 1206 359 2328 
Q 359 3453 968 4101 
Q 1578 4750 2638 4750 
Q 3056 4750 3426 4639 
Q 3797 4528 4122 4306 
z
" transform="scale(0.015625)"/>
       <path id="DejaVuSans-52" d="M 2841 2188 
Q 3044 2119 3236 1894 
Q 3428 1669 3622 1275 
L 4263 0 
L 3584 0 
L 2988 1197 
Q 2756 1666 2539 1819 
Q 2322 1972 1947 1972 
L 1259 1972 
L 1259 0 
L 628 0 
L 628 4666 
L 2053 4666 
Q 2853 4666 3247 4331 
Q 3641 3997 3641 3322 
Q 3641 2881 3436 2590 
Q 3231 2300 2841 2188 
z
M 1259 4147 
L 1259 2491 
L 2053 2491 
Q 2509 2491 2742 2702 
Q 2975 2913 2975 3322 
Q 2975 3731 2742 3939 
Q 2509 4147 2053 4147 
L 1259 4147 
z
" transform="scale(0.015625)"/>
      </defs>
      <use xlink:href="#DejaVuSans-75"/>
      <use xlink:href="#DejaVuSans-41" x="63.378906"/>
      <use xlink:href="#DejaVuSans-43" x="130.037109"/>
      <use xlink:href="#DejaVuSans-52" x="199.861328"/>
     </g>
    </g>
   </g>
   <g id="line2d_17">
    <path d="M 73.832727 72.772183 
L 74.745411 52.154182 
L 74.875794 54.834383 
L 75.658094 77.968982 
L 77.483461 85.307786 
L 78.396145 83.757718 
L 79.308828 105.710096 
L 80.221512 105.326482 
L 81.134195 138.896957 
L 82.046878 148.708817 
L 82.959562 156.176291 
L 83.872245 154.171322 
L 85.697612 151.646859 
L 86.610296 138.619336 
L 87.522979 142.773305 
L 88.435663 160.822526 
L 89.348346 156.594455 
L 90.26103 148.152011 
L 91.173713 136.531698 
L 92.086396 116.479642 
L 92.99908 123.975955 
L 93.911763 151.945764 
L 94.824447 139.447562 
L 95.73713 144.667307 
L 96.649814 166.503359 
L 97.562497 151.099975 
L 99.387864 151.235331 
L 103.038598 164.077825 
L 103.951281 171.361325 
L 104.863965 161.483141 
L 106.689332 182.408543 
L 108.514699 134.328432 
L 109.427382 113.26586 
L 110.340066 108.056797 
L 111.252749 111.134229 
L 112.165433 110.098204 
L 113.078116 124.686613 
L 114.903483 123.93679 
L 115.816166 93.508962 
L 116.468083 107.40469 
L 116.72885 107.768697 
L 117.641533 129.621738 
L 118.554217 127.295559 
L 120.2492 183.297161 
L 120.379584 198.98362 
L 121.292267 216.30782 
L 122.204951 218.464149 
L 123.117634 219.506773 
L 124.030318 214.278163 
L 124.943001 204.479156 
L 125.594918 234.955293 
L 125.855685 223.740567 
L 126.768368 224.290913 
L 128.593735 224.516422 
L 128.854502 226.512576 
L 129.245652 180.681449 
L 130.158335 178.167594 
L 130.419102 180.411034 
L 131.071019 172.606115 
L 131.331785 152.513052 
L 131.983702 168.045257 
L 132.244469 157.35569 
L 132.896386 94.869217 
L 133.157152 106.05316 
L 134.069836 106.088612 
L 134.721752 102.366725 
L 134.982519 102.68154 
L 135.634436 135.170716 
L 135.895203 121.630115 
L 136.547119 118.551403 
L 136.807886 126.874834 
L 137.459803 129.511555 
L 137.590186 132.866501 
L 138.372486 149.944994 
L 138.633253 212.452821 
L 139.28517 211.435076 
L 139.545936 204.578654 
L 140.45862 208.356457 
L 141.110537 207.514153 
L 141.371303 219.961256 
L 142.02322 239.524376 
L 142.935904 237.217165 
L 143.19667 232.163088 
L 143.327054 248.257979 
L 143.848587 241.258264 
L 144.109354 245.499425 
L 145.022037 235.970301 
L 145.673954 236.058706 
L 146.586637 242.066611 
L 146.847404 240.038889 
L 147.760088 238.550545 
L 148.412004 232.395399 
L 148.672771 237.036326 
L 149.585455 238.590364 
L 150.237371 235.164212 
L 151.150055 225.796657 
L 151.410821 230.390872 
L 151.541205 219.935611 
L 152.062738 226.482255 
L 152.975422 227.000463 
L 153.236188 224.560135 
L 153.888105 214.191603 
L 154.800789 216.132992 
L 155.061555 212.741136 
L 155.322322 215.85504 
L 156.626156 213.055974 
L 156.886922 218.02223 
L 157.538839 228.12233 
L 158.451522 230.576351 
L 159.624973 192.169675 
L 161.45034 167.01357 
L 162.102256 170.491383 
L 163.927623 181.158407 
L 165.101073 181.26369 
L 165.883373 191.176386 
L 166.665674 188.752998 
L 167.578357 182.00851 
L 168.491041 180.764516 
L 169.403724 181.205624 
L 170.577174 179.196348 
L 171.229091 226.759586 
L 172.141774 221.581982 
L 172.402541 220.751311 
L 173.967141 198.646614 
L 174.227908 187.044191 
L 174.879825 187.401245 
L 176.705192 184.039353 
L 177.617875 186.553273 
L 177.878642 197.600445 
L 178.530559 194.097551 
L 180.616692 173.903564 
L 181.529376 176.063296 
L 182.442059 176.895801 
L 184.919343 160.046242 
L 185.18011 177.360912 
L 185.832026 197.908829 
L 187.91816 211.194865 
L 188.830843 210.36742 
L 189.48276 212.487092 
L 189.743527 202.967144 
L 190.65621 205.436214 
L 191.308127 195.732763 
L 192.481577 184.475658 
L 193.394261 172.66423 
L 194.046177 159.506383 
L 194.306944 192.195317 
L 195.219628 176.980703 
L 195.871544 171.940482 
L 196.262694 164.060345 
L 196.784228 165.258728 
L 197.044995 174.783556 
L 197.696911 173.075385 
L 197.957678 189.03699 
L 198.870361 217.192645 
L 201.347645 235.383659 
L 201.608412 234.902136 
L 203.173012 249.240324 
L 204.085696 255.84606 
L 205.259146 262.679421 
L 205.911062 259.567448 
L 206.954129 247.925288 
L 208.90988 237.582552 
L 209.561796 226.352673 
L 209.822563 227.314446 
L 210.47448 230.763108 
L 210.735246 234.098088 
L 211.64793 239.164119 
L 212.299847 238.518891 
L 213.21253 228.19207 
L 213.473297 222.491396 
L 214.125214 217.383014 
L 215.037897 229.50475 
L 218.949398 239.848827 
L 220.774765 239.572104 
L 221.426681 241.036909 
L 221.687448 241.01614 
L 224.425498 240.92951 
L 225.077415 225.674835 
L 225.990099 220.287808 
L 226.250865 212.789875 
L 226.902782 214.181007 
L 227.815465 226.449278 
L 228.076232 225.79178 
L 228.728149 225.890448 
L 228.988916 232.375699 
L 230.814283 221.154589 
L 231.726966 216.4741 
L 232.378883 215.937321 
L 239.941117 208.494839 
L 240.853801 182.687063 
L 241.505717 189.993736 
L 242.679168 180.997114 
L 243.331084 181.672108 
L 243.591851 182.441679 
L 244.504535 138.145619 
L 245.156451 136.203002 
L 246.329901 136.528233 
L 246.981818 147.544515 
L 248.155268 152.232751 
L 249.067952 152.915005 
L 250.632552 175.639308 
L 250.893319 196.07622 
L 251.545235 193.681126 
L 253.370602 211.610208 
L 254.283286 213.332313 
L 255.456736 212.703327 
L 256.108653 248.365091 
L 256.369419 250.294352 
L 257.021336 256.701947 
L 257.93402 250.940793 
L 260.020153 246.75362 
L 260.67207 244.761787 
L 261.84552 255.894981 
L 262.497437 248.940908 
L 262.758204 235.081159 
L 264.322804 235.052547 
L 264.583571 235.213386 
L 265.235487 241.440365 
L 266.148171 228.72147 
L 266.408938 227.068611 
L 267.321621 234.268779 
L 269.407755 219.578452 
L 270.059671 201.677411 
L 271.624272 201.521934 
L 271.885038 208.166836 
L 273.449639 210.297633 
L 274.362322 210.358893 
L 274.623089 211.157697 
L 275.275005 209.187044 
L 275.535772 219.912724 
L 276.187689 216.290252 
L 277.361139 212.215428 
L 278.013056 214.551198 
L 278.925739 203.589005 
L 280.751106 217.482424 
L 283.489157 217.369971 
L 285.57529 209.165844 
L 286.227207 216.740531 
L 286.487974 201.381879 
L 287.400657 200.018645 
L 288.965257 202.992288 
L 289.226024 188.745686 
L 289.877941 186.154169 
L 294.702125 189.064076 
L 298.352859 213.278962 
L 299.265542 213.533717 
L 299.917459 226.134842 
L 301.742826 230.307449 
L 302.003593 239.728145 
L 302.916276 241.032381 
L 303.828959 243.271621 
L 305.39356 259.469696 
L 307.218927 261.52768 
L 307.479693 260.6459 
L 308.13161 260.6361 
L 311.782344 262.8831 
L 312.043111 262.63919 
L 315.693844 262.917471 
L 320.387645 261.68899 
L 320.909179 265.797818 
L 321.821862 265.64756 
L 324.820679 259.12967 
L 325.472596 259.143601 
L 325.733363 252.175989 
L 327.297963 254.405395 
L 333.947514 254.487835 
L 334.860197 258.890427 
L 335.512114 249.137722 
L 336.685564 238.795632 
L 337.337481 239.130363 
L 337.598248 239.632808 
L 340.336298 228.596481 
L 341.900898 224.757883 
L 347.376999 231.223673 
L 347.637766 227.911192 
L 354.939233 236.900114 
L 355.59115 231.594539 
L 355.721533 231.548331 
L 355.851917 226.782486 
L 357.416517 245.031403 
L 357.677284 237.637682 
L 358.3292 237.810375 
L 358.589967 243.414083 
L 359.502651 240.860938 
L 360.415334 240.009195 
L 361.067251 234.574792 
L 361.328018 238.095539 
L 363.153384 239.784065 
L 364.066068 239.137741 
L 366.021818 241.103037 
L 366.934502 218.13871 
L 367.586418 220.117723 
L 368.629485 198.968191 
L 369.672552 199.035847 
L 373.192903 177.606132 
L 374.105586 182.391228 
L 374.757503 183.014061 
L 376.58287 191.552982 
L 377.625936 191.183381 
L 377.75632 194.809278 
L 379.581687 194.516187 
L 382.189354 198.01472 
L 382.319737 217.437322 
L 383.102037 208.819514 
L 383.884337 232.920857 
L 384.145104 232.059954 
L 385.057788 238.71107 
L 386.883154 240.543072 
L 387.926221 240.796942 
L 388.708521 231.02942 
L 389.621205 231.680684 
L 390.533888 227.45121 
L 393.271939 229.188237 
L 393.923855 224.010643 
L 394.836539 222.452832 
L 396.009989 223.252627 
L 397.704973 244.607793 
L 398.487273 244.614836 
L 398.487273 244.614836 
" clip-path="url(#p4a8fb47d32)" style="fill: none; stroke: #1f77b4; stroke-width: 1.5; stroke-linecap: square"/>
   </g>
   <g id="patch_3">
    <path d="M 57.6 276.48 
L 57.6 41.472 
" style="fill: none; stroke: #000000; stroke-width: 0.8; stroke-linejoin: miter; stroke-linecap: square"/>
   </g>
   <g id="patch_4">
    <path d="M 414.72 276.48 
L 414.72 41.472 
" style="fill: none; stroke: #000000; stroke-width: 0.8; stroke-linejoin: miter; stroke-linecap: square"/>
   </g>
   <g id="patch_5">
    <path d="M 57.6 276.48 
L 414.72 276.48 
" style="fill: none; stroke: #000000; stroke-width: 0.8; stroke-linejoin: miter; stroke-linecap: square"/>
   </g>
   <g id="patch_6">
    <path d="M 57.6 41.472 
L 414.72 41.472 
" style="fill: none; stroke: #000000; stroke-width: 0.8; stroke-linejoin: miter; stroke-linecap: square"/>
   </g>
   <g id="text_19">
    <!-- UACR by Year of Attendance - 12 Month Rolling Window -->
    <g transform="translate(69.480938 35.472) scale(0.12 -0.12)">
     <defs>
      <path id="DejaVuSans-55" d="M 556 4666 
L 1191 4666 
L 1191 1831 
Q 1191 1081 1462 751 
Q 1734 422 2344 422 
Q 2950 422 3222 751 
Q 3494 1081 3494 1831 
L 3494 4666 
L 4128 4666 
L 4128 1753 
Q 4128 841 3676 375 
Q 3225 -91 2344 -91 
Q 1459 -91 1007 375 
Q 556 841 556 1753 
L 556 4666 
z
" transform="scale(0.015625)"/>
      <path id="DejaVuSans-62" d="M 3116 1747 
Q 3116 2381 2855 2742 
Q 2594 3103 2138 3103 
Q 1681 3103 1420 2742 
Q 1159 2381 1159 1747 
Q 1159 1113 1420 752 
Q 1681 391 2138 391 
Q 2594 391 2855 752 
Q 3116 1113 3116 1747 
z
M 1159 2969 
Q 1341 3281 1617 3432 
Q 1894 3584 2278 3584 
Q 2916 3584 3314 3078 
Q 3713 2572 3713 1747 
Q 3713 922 3314 415 
Q 2916 -91 2278 -91 
Q 1894 -91 1617 61 
Q 1341 213 1159 525 
L 1159 0 
L 581 0 
L 581 4863 
L 1159 4863 
L 1159 2969 
z
" transform="scale(0.015625)"/>
      <path id="DejaVuSans-79" d="M 2059 -325 
Q 1816 -950 1584 -1140 
Q 1353 -1331 966 -1331 
L 506 -1331 
L 506 -850 
L 844 -850 
Q 1081 -850 1212 -737 
Q 1344 -625 1503 -206 
L 1606 56 
L 191 3500 
L 800 3500 
L 1894 763 
L 2988 3500 
L 3597 3500 
L 2059 -325 
z
" transform="scale(0.015625)"/>
      <path id="DejaVuSans-59" d="M -13 4666 
L 666 4666 
L 1959 2747 
L 3244 4666 
L 3922 4666 
L 2272 2222 
L 2272 0 
L 1638 0 
L 1638 2222 
L -13 4666 
z
" transform="scale(0.015625)"/>
      <path id="DejaVuSans-72" d="M 2631 2963 
Q 2534 3019 2420 3045 
Q 2306 3072 2169 3072 
Q 1681 3072 1420 2755 
Q 1159 2438 1159 1844 
L 1159 0 
L 581 0 
L 581 3500 
L 1159 3500 
L 1159 2956 
Q 1341 3275 1631 3429 
Q 1922 3584 2338 3584 
Q 2397 3584 2469 3576 
Q 2541 3569 2628 3553 
L 2631 2963 
z
" transform="scale(0.015625)"/>
      <path id="DejaVuSans-6f" d="M 1959 3097 
Q 1497 3097 1228 2736 
Q 959 2375 959 1747 
Q 959 1119 1226 758 
Q 1494 397 1959 397 
Q 2419 397 2687 759 
Q 2956 1122 2956 1747 
Q 2956 2369 2687 2733 
Q 2419 3097 1959 3097 
z
M 1959 3584 
Q 2709 3584 3137 3096 
Q 3566 2609 3566 1747 
Q 3566 888 3137 398 
Q 2709 -91 1959 -91 
Q 1206 -91 779 398 
Q 353 888 353 1747 
Q 353 2609 779 3096 
Q 1206 3584 1959 3584 
z
" transform="scale(0.015625)"/>
      <path id="DejaVuSans-66" d="M 2375 4863 
L 2375 4384 
L 1825 4384 
Q 1516 4384 1395 4259 
Q 1275 4134 1275 3809 
L 1275 3500 
L 2222 3500 
L 2222 3053 
L 1275 3053 
L 1275 0 
L 697 0 
L 697 3053 
L 147 3053 
L 147 3500 
L 697 3500 
L 697 3744 
Q 697 4328 969 4595 
Q 1241 4863 1831 4863 
L 2375 4863 
z
" transform="scale(0.015625)"/>
      <path id="DejaVuSans-2d" d="M 313 2009 
L 1997 2009 
L 1997 1497 
L 313 1497 
L 313 2009 
z
" transform="scale(0.015625)"/>
      <path id="DejaVuSans-4d" d="M 628 4666 
L 1569 4666 
L 2759 1491 
L 3956 4666 
L 4897 4666 
L 4897 0 
L 4281 0 
L 4281 4097 
L 3078 897 
L 2444 897 
L 1241 4097 
L 1241 0 
L 628 0 
L 628 4666 
z
" transform="scale(0.015625)"/>
      <path id="DejaVuSans-68" d="M 3513 2113 
L 3513 0 
L 2938 0 
L 2938 2094 
Q 2938 2591 2744 2837 
Q 2550 3084 2163 3084 
Q 1697 3084 1428 2787 
Q 1159 2491 1159 1978 
L 1159 0 
L 581 0 
L 581 4863 
L 1159 4863 
L 1159 2956 
Q 1366 3272 1645 3428 
Q 1925 3584 2291 3584 
Q 2894 3584 3203 3211 
Q 3513 2838 3513 2113 
z
" transform="scale(0.015625)"/>
      <path id="DejaVuSans-6c" d="M 603 4863 
L 1178 4863 
L 1178 0 
L 603 0 
L 603 4863 
z
" transform="scale(0.015625)"/>
      <path id="DejaVuSans-69" d="M 603 3500 
L 1178 3500 
L 1178 0 
L 603 0 
L 603 3500 
z
M 603 4863 
L 1178 4863 
L 1178 4134 
L 603 4134 
L 603 4863 
z
" transform="scale(0.015625)"/>
      <path id="DejaVuSans-67" d="M 2906 1791 
Q 2906 2416 2648 2759 
Q 2391 3103 1925 3103 
Q 1463 3103 1205 2759 
Q 947 2416 947 1791 
Q 947 1169 1205 825 
Q 1463 481 1925 481 
Q 2391 481 2648 825 
Q 2906 1169 2906 1791 
z
M 3481 434 
Q 3481 -459 3084 -895 
Q 2688 -1331 1869 -1331 
Q 1566 -1331 1297 -1286 
Q 1028 -1241 775 -1147 
L 775 -588 
Q 1028 -725 1275 -790 
Q 1522 -856 1778 -856 
Q 2344 -856 2625 -561 
Q 2906 -266 2906 331 
L 2906 616 
Q 2728 306 2450 153 
Q 2172 0 1784 0 
Q 1141 0 747 490 
Q 353 981 353 1791 
Q 353 2603 747 3093 
Q 1141 3584 1784 3584 
Q 2172 3584 2450 3431 
Q 2728 3278 2906 2969 
L 2906 3500 
L 3481 3500 
L 3481 434 
z
" transform="scale(0.015625)"/>
      <path id="DejaVuSans-57" d="M 213 4666 
L 850 4666 
L 1831 722 
L 2809 4666 
L 3519 4666 
L 4500 722 
L 5478 4666 
L 6119 4666 
L 4947 0 
L 4153 0 
L 3169 4050 
L 2175 0 
L 1381 0 
L 213 4666 
z
" transform="scale(0.015625)"/>
      <path id="DejaVuSans-77" d="M 269 3500 
L 844 3500 
L 1563 769 
L 2278 3500 
L 2956 3500 
L 3675 769 
L 4391 3500 
L 4966 3500 
L 4050 0 
L 3372 0 
L 2619 2869 
L 1863 0 
L 1184 0 
L 269 3500 
z
" transform="scale(0.015625)"/>
     </defs>
     <use xlink:href="#DejaVuSans-55"/>
     <use xlink:href="#DejaVuSans-41" x="73.193359"/>
     <use xlink:href="#DejaVuSans-43" x="139.851562"/>
     <use xlink:href="#DejaVuSans-52" x="209.675781"/>
     <use xlink:href="#DejaVuSans-20" x="279.158203"/>
     <use xlink:href="#DejaVuSans-62" x="310.945312"/>
     <use xlink:href="#DejaVuSans-79" x="374.421875"/>
     <use xlink:href="#DejaVuSans-20" x="433.601562"/>
     <use xlink:href="#DejaVuSans-59" x="465.388672"/>
     <use xlink:href="#DejaVuSans-65" x="513.222656"/>
     <use xlink:href="#DejaVuSans-61" x="574.746094"/>
     <use xlink:href="#DejaVuSans-72" x="636.025391"/>
     <use xlink:href="#DejaVuSans-20" x="677.138672"/>
     <use xlink:href="#DejaVuSans-6f" x="708.925781"/>
     <use xlink:href="#DejaVuSans-66" x="770.107422"/>
     <use xlink:href="#DejaVuSans-20" x="805.3125"/>
     <use xlink:href="#DejaVuSans-41" x="837.099609"/>
     <use xlink:href="#DejaVuSans-74" x="903.757812"/>
     <use xlink:href="#DejaVuSans-74" x="942.966797"/>
     <use xlink:href="#DejaVuSans-65" x="982.175781"/>
     <use xlink:href="#DejaVuSans-6e" x="1043.699219"/>
     <use xlink:href="#DejaVuSans-64" x="1107.078125"/>
     <use xlink:href="#DejaVuSans-61" x="1170.554688"/>
     <use xlink:href="#DejaVuSans-6e" x="1231.833984"/>
     <use xlink:href="#DejaVuSans-63" x="1295.212891"/>
     <use xlink:href="#DejaVuSans-65" x="1350.193359"/>
     <use xlink:href="#DejaVuSans-20" x="1411.716797"/>
     <use xlink:href="#DejaVuSans-2d" x="1443.503906"/>
     <use xlink:href="#DejaVuSans-20" x="1479.587891"/>
     <use xlink:href="#DejaVuSans-31" x="1511.375"/>
     <use xlink:href="#DejaVuSans-32" x="1574.998047"/>
     <use xlink:href="#DejaVuSans-20" x="1638.621094"/>
     <use xlink:href="#DejaVuSans-4d" x="1670.408203"/>
     <use xlink:href="#DejaVuSans-6f" x="1756.6875"/>
     <use xlink:href="#DejaVuSans-6e" x="1817.869141"/>
     <use xlink:href="#DejaVuSans-74" x="1881.248047"/>
     <use xlink:href="#DejaVuSans-68" x="1920.457031"/>
     <use xlink:href="#DejaVuSans-20" x="1983.835938"/>
     <use xlink:href="#DejaVuSans-52" x="2015.623047"/>
     <use xlink:href="#DejaVuSans-6f" x="2080.605469"/>
     <use xlink:href="#DejaVuSans-6c" x="2141.787109"/>
     <use xlink:href="#DejaVuSans-6c" x="2169.570312"/>
     <use xlink:href="#DejaVuSans-69" x="2197.353516"/>
     <use xlink:href="#DejaVuSans-6e" x="2225.136719"/>
     <use xlink:href="#DejaVuSans-67" x="2288.515625"/>
     <use xlink:href="#DejaVuSans-20" x="2351.992188"/>
     <use xlink:href="#DejaVuSans-57" x="2383.779297"/>
     <use xlink:href="#DejaVuSans-69" x="2480.40625"/>
     <use xlink:href="#DejaVuSans-6e" x="2508.189453"/>
     <use xlink:href="#DejaVuSans-64" x="2571.568359"/>
     <use xlink:href="#DejaVuSans-6f" x="2635.044922"/>
     <use xlink:href="#DejaVuSans-77" x="2696.226562"/>
    </g>
   </g>
  </g>
 </g>
 <defs>
  <clipPath id="p4a8fb47d32">
   <rect x="57.6" y="41.472" width="357.12" height="235.008"/>
  </clipPath>
 </defs>
</svg>
