<?xml version="1.0" encoding="utf-8" standalone="no"?>
<!DOCTYPE svg PUBLIC "-//W3C//DTD SVG 1.1//EN"
  "http://www.w3.org/Graphics/SVG/1.1/DTD/svg11.dtd">
<svg xmlns:xlink="http://www.w3.org/1999/xlink" width="1152pt" height="432pt" viewBox="0 0 1152 432" xmlns="http://www.w3.org/2000/svg" version="1.1">
 <metadata>
  <rdf:RDF xmlns:dc="http://purl.org/dc/elements/1.1/" xmlns:cc="http://creativecommons.org/ns#" xmlns:rdf="http://www.w3.org/1999/02/22-rdf-syntax-ns#">
   <cc:Work>
    <dc:type rdf:resource="http://purl.org/dc/dcmitype/StillImage"/>
    <dc:date>2024-04-20T09:19:40.425246</dc:date>
    <dc:format>image/svg+xml</dc:format>
    <dc:creator>
     <cc:Agent>
      <dc:title>Matplotlib v3.7.2, https://matplotlib.org/</dc:title>
     </cc:Agent>
    </dc:creator>
   </cc:Work>
  </rdf:RDF>
 </metadata>
 <defs>
  <style type="text/css">*{stroke-linejoin: round; stroke-linecap: butt}</style>
 </defs>
 <g id="figure_1">
  <g id="patch_1">
   <path d="M 0 432 
L 1152 432 
L 1152 0 
L 0 0 
z
" style="fill: #ffffff"/>
  </g>
  <g id="axes_1">
   <g id="patch_2">
    <path d="M 144 345.6 
L 1036.8 345.6 
L 1036.8 51.84 
L 144 51.84 
z
" style="fill: #ffffff"/>
   </g>
   <g id="matplotlib.axis_1">
    <g id="xtick_1">
     <g id="line2d_1">
      <defs>
       <path id="m5b9f25708a" d="M 0 0 
L 0 3.5 
" style="stroke: #000000; stroke-width: 0.8"/>
      </defs>
      <g>
       <use xlink:href="#m5b9f25708a" x="201.857612" y="345.6" style="stroke: #000000; stroke-width: 0.8"/>
      </g>
     </g>
     <g id="text_1">
      <!-- 2012 -->
      <g transform="translate(178.777422 371.90544) rotate(-30) scale(0.1 -0.1)">
       <defs>
        <path id="DejaVuSans-32" d="M 1228 531 
L 3431 531 
L 3431 0 
L 469 0 
L 469 531 
Q 828 903 1448 1529 
Q 2069 2156 2228 2338 
Q 2531 2678 2651 2914 
Q 2772 3150 2772 3378 
Q 2772 3750 2511 3984 
Q 2250 4219 1831 4219 
Q 1534 4219 1204 4116 
Q 875 4013 500 3803 
L 500 4441 
Q 881 4594 1212 4672 
Q 1544 4750 1819 4750 
Q 2544 4750 2975 4387 
Q 3406 4025 3406 3419 
Q 3406 3131 3298 2873 
Q 3191 2616 2906 2266 
Q 2828 2175 2409 1742 
Q 1991 1309 1228 531 
z
" transform="scale(0.015625)"/>
        <path id="DejaVuSans-30" d="M 2034 4250 
Q 1547 4250 1301 3770 
Q 1056 3291 1056 2328 
Q 1056 1369 1301 889 
Q 1547 409 2034 409 
Q 2525 409 2770 889 
Q 3016 1369 3016 2328 
Q 3016 3291 2770 3770 
Q 2525 4250 2034 4250 
z
M 2034 4750 
Q 2819 4750 3233 4129 
Q 3647 3509 3647 2328 
Q 3647 1150 3233 529 
Q 2819 -91 2034 -91 
Q 1250 -91 836 529 
Q 422 1150 422 2328 
Q 422 3509 836 4129 
Q 1250 4750 2034 4750 
z
" transform="scale(0.015625)"/>
        <path id="DejaVuSans-31" d="M 794 531 
L 1825 531 
L 1825 4091 
L 703 3866 
L 703 4441 
L 1819 4666 
L 2450 4666 
L 2450 531 
L 3481 531 
L 3481 0 
L 794 0 
L 794 531 
z
" transform="scale(0.015625)"/>
       </defs>
       <use xlink:href="#DejaVuSans-32"/>
       <use xlink:href="#DejaVuSans-30" x="63.623047"/>
       <use xlink:href="#DejaVuSans-31" x="127.246094"/>
       <use xlink:href="#DejaVuSans-32" x="190.869141"/>
      </g>
     </g>
    </g>
    <g id="xtick_2">
     <g id="line2d_2">
      <g>
       <use xlink:href="#m5b9f25708a" x="321.158379" y="345.6" style="stroke: #000000; stroke-width: 0.8"/>
      </g>
     </g>
     <g id="text_2">
      <!-- 2013 -->
      <g transform="translate(298.078189 371.90544) rotate(-30) scale(0.1 -0.1)">
       <defs>
        <path id="DejaVuSans-33" d="M 2597 2516 
Q 3050 2419 3304 2112 
Q 3559 1806 3559 1356 
Q 3559 666 3084 287 
Q 2609 -91 1734 -91 
Q 1441 -91 1130 -33 
Q 819 25 488 141 
L 488 750 
Q 750 597 1062 519 
Q 1375 441 1716 441 
Q 2309 441 2620 675 
Q 2931 909 2931 1356 
Q 2931 1769 2642 2001 
Q 2353 2234 1838 2234 
L 1294 2234 
L 1294 2753 
L 1863 2753 
Q 2328 2753 2575 2939 
Q 2822 3125 2822 3475 
Q 2822 3834 2567 4026 
Q 2313 4219 1838 4219 
Q 1578 4219 1281 4162 
Q 984 4106 628 3988 
L 628 4550 
Q 988 4650 1302 4700 
Q 1616 4750 1894 4750 
Q 2613 4750 3031 4423 
Q 3450 4097 3450 3541 
Q 3450 3153 3228 2886 
Q 3006 2619 2597 2516 
z
" transform="scale(0.015625)"/>
       </defs>
       <use xlink:href="#DejaVuSans-32"/>
       <use xlink:href="#DejaVuSans-30" x="63.623047"/>
       <use xlink:href="#DejaVuSans-31" x="127.246094"/>
       <use xlink:href="#DejaVuSans-33" x="190.869141"/>
      </g>
     </g>
    </g>
    <g id="xtick_3">
     <g id="line2d_3">
      <g>
       <use xlink:href="#m5b9f25708a" x="440.133187" y="345.6" style="stroke: #000000; stroke-width: 0.8"/>
      </g>
     </g>
     <g id="text_3">
      <!-- 2014 -->
      <g transform="translate(417.052997 371.90544) rotate(-30) scale(0.1 -0.1)">
       <defs>
        <path id="DejaVuSans-34" d="M 2419 4116 
L 825 1625 
L 2419 1625 
L 2419 4116 
z
M 2253 4666 
L 3047 4666 
L 3047 1625 
L 3713 1625 
L 3713 1100 
L 3047 1100 
L 3047 0 
L 2419 0 
L 2419 1100 
L 313 1100 
L 313 1709 
L 2253 4666 
z
" transform="scale(0.015625)"/>
       </defs>
       <use xlink:href="#DejaVuSans-32"/>
       <use xlink:href="#DejaVuSans-30" x="63.623047"/>
       <use xlink:href="#DejaVuSans-31" x="127.246094"/>
       <use xlink:href="#DejaVuSans-34" x="190.869141"/>
      </g>
     </g>
    </g>
    <g id="xtick_4">
     <g id="line2d_4">
      <g>
       <use xlink:href="#m5b9f25708a" x="559.107996" y="345.6" style="stroke: #000000; stroke-width: 0.8"/>
      </g>
     </g>
     <g id="text_4">
      <!-- 2015 -->
      <g transform="translate(536.027805 371.90544) rotate(-30) scale(0.1 -0.1)">
       <defs>
        <path id="DejaVuSans-35" d="M 691 4666 
L 3169 4666 
L 3169 4134 
L 1269 4134 
L 1269 2991 
Q 1406 3038 1543 3061 
Q 1681 3084 1819 3084 
Q 2600 3084 3056 2656 
Q 3513 2228 3513 1497 
Q 3513 744 3044 326 
Q 2575 -91 1722 -91 
Q 1428 -91 1123 -41 
Q 819 9 494 109 
L 494 744 
Q 775 591 1075 516 
Q 1375 441 1709 441 
Q 2250 441 2565 725 
Q 2881 1009 2881 1497 
Q 2881 1984 2565 2268 
Q 2250 2553 1709 2553 
Q 1456 2553 1204 2497 
Q 953 2441 691 2322 
L 691 4666 
z
" transform="scale(0.015625)"/>
       </defs>
       <use xlink:href="#DejaVuSans-32"/>
       <use xlink:href="#DejaVuSans-30" x="63.623047"/>
       <use xlink:href="#DejaVuSans-31" x="127.246094"/>
       <use xlink:href="#DejaVuSans-35" x="190.869141"/>
      </g>
     </g>
    </g>
    <g id="xtick_5">
     <g id="line2d_5">
      <g>
       <use xlink:href="#m5b9f25708a" x="678.082804" y="345.6" style="stroke: #000000; stroke-width: 0.8"/>
      </g>
     </g>
     <g id="text_5">
      <!-- 2016 -->
      <g transform="translate(655.002614 371.90544) rotate(-30) scale(0.1 -0.1)">
       <defs>
        <path id="DejaVuSans-36" d="M 2113 2584 
Q 1688 2584 1439 2293 
Q 1191 2003 1191 1497 
Q 1191 994 1439 701 
Q 1688 409 2113 409 
Q 2538 409 2786 701 
Q 3034 994 3034 1497 
Q 3034 2003 2786 2293 
Q 2538 2584 2113 2584 
z
M 3366 4563 
L 3366 3988 
Q 3128 4100 2886 4159 
Q 2644 4219 2406 4219 
Q 1781 4219 1451 3797 
Q 1122 3375 1075 2522 
Q 1259 2794 1537 2939 
Q 1816 3084 2150 3084 
Q 2853 3084 3261 2657 
Q 3669 2231 3669 1497 
Q 3669 778 3244 343 
Q 2819 -91 2113 -91 
Q 1303 -91 875 529 
Q 447 1150 447 2328 
Q 447 3434 972 4092 
Q 1497 4750 2381 4750 
Q 2619 4750 2861 4703 
Q 3103 4656 3366 4563 
z
" transform="scale(0.015625)"/>
       </defs>
       <use xlink:href="#DejaVuSans-32"/>
       <use xlink:href="#DejaVuSans-30" x="63.623047"/>
       <use xlink:href="#DejaVuSans-31" x="127.246094"/>
       <use xlink:href="#DejaVuSans-36" x="190.869141"/>
      </g>
     </g>
    </g>
    <g id="xtick_6">
     <g id="line2d_6">
      <g>
       <use xlink:href="#m5b9f25708a" x="797.383571" y="345.6" style="stroke: #000000; stroke-width: 0.8"/>
      </g>
     </g>
     <g id="text_6">
      <!-- 2017 -->
      <g transform="translate(774.30338 371.90544) rotate(-30) scale(0.1 -0.1)">
       <defs>
        <path id="DejaVuSans-37" d="M 525 4666 
L 3525 4666 
L 3525 4397 
L 1831 0 
L 1172 0 
L 2766 4134 
L 525 4134 
L 525 4666 
z
" transform="scale(0.015625)"/>
       </defs>
       <use xlink:href="#DejaVuSans-32"/>
       <use xlink:href="#DejaVuSans-30" x="63.623047"/>
       <use xlink:href="#DejaVuSans-31" x="127.246094"/>
       <use xlink:href="#DejaVuSans-37" x="190.869141"/>
      </g>
     </g>
    </g>
    <g id="xtick_7">
     <g id="line2d_7">
      <g>
       <use xlink:href="#m5b9f25708a" x="916.358379" y="345.6" style="stroke: #000000; stroke-width: 0.8"/>
      </g>
     </g>
     <g id="text_7">
      <!-- 2018 -->
      <g transform="translate(893.278189 371.90544) rotate(-30) scale(0.1 -0.1)">
       <defs>
        <path id="DejaVuSans-38" d="M 2034 2216 
Q 1584 2216 1326 1975 
Q 1069 1734 1069 1313 
Q 1069 891 1326 650 
Q 1584 409 2034 409 
Q 2484 409 2743 651 
Q 3003 894 3003 1313 
Q 3003 1734 2745 1975 
Q 2488 2216 2034 2216 
z
M 1403 2484 
Q 997 2584 770 2862 
Q 544 3141 544 3541 
Q 544 4100 942 4425 
Q 1341 4750 2034 4750 
Q 2731 4750 3128 4425 
Q 3525 4100 3525 3541 
Q 3525 3141 3298 2862 
Q 3072 2584 2669 2484 
Q 3125 2378 3379 2068 
Q 3634 1759 3634 1313 
Q 3634 634 3220 271 
Q 2806 -91 2034 -91 
Q 1263 -91 848 271 
Q 434 634 434 1313 
Q 434 1759 690 2068 
Q 947 2378 1403 2484 
z
M 1172 3481 
Q 1172 3119 1398 2916 
Q 1625 2713 2034 2713 
Q 2441 2713 2670 2916 
Q 2900 3119 2900 3481 
Q 2900 3844 2670 4047 
Q 2441 4250 2034 4250 
Q 1625 4250 1398 4047 
Q 1172 3844 1172 3481 
z
" transform="scale(0.015625)"/>
       </defs>
       <use xlink:href="#DejaVuSans-32"/>
       <use xlink:href="#DejaVuSans-30" x="63.623047"/>
       <use xlink:href="#DejaVuSans-31" x="127.246094"/>
       <use xlink:href="#DejaVuSans-38" x="190.869141"/>
      </g>
     </g>
    </g>
    <g id="xtick_8">
     <g id="line2d_8">
      <g>
       <use xlink:href="#m5b9f25708a" x="1035.333187" y="345.6" style="stroke: #000000; stroke-width: 0.8"/>
      </g>
     </g>
     <g id="text_8">
      <!-- 2019 -->
      <g transform="translate(1012.252997 371.90544) rotate(-30) scale(0.1 -0.1)">
       <defs>
        <path id="DejaVuSans-39" d="M 703 97 
L 703 672 
Q 941 559 1184 500 
Q 1428 441 1663 441 
Q 2288 441 2617 861 
Q 2947 1281 2994 2138 
Q 2813 1869 2534 1725 
Q 2256 1581 1919 1581 
Q 1219 1581 811 2004 
Q 403 2428 403 3163 
Q 403 3881 828 4315 
Q 1253 4750 1959 4750 
Q 2769 4750 3195 4129 
Q 3622 3509 3622 2328 
Q 3622 1225 3098 567 
Q 2575 -91 1691 -91 
Q 1453 -91 1209 -44 
Q 966 3 703 97 
z
M 1959 2075 
Q 2384 2075 2632 2365 
Q 2881 2656 2881 3163 
Q 2881 3666 2632 3958 
Q 2384 4250 1959 4250 
Q 1534 4250 1286 3958 
Q 1038 3666 1038 3163 
Q 1038 2656 1286 2365 
Q 1534 2075 1959 2075 
z
" transform="scale(0.015625)"/>
       </defs>
       <use xlink:href="#DejaVuSans-32"/>
       <use xlink:href="#DejaVuSans-30" x="63.623047"/>
       <use xlink:href="#DejaVuSans-31" x="127.246094"/>
       <use xlink:href="#DejaVuSans-39" x="190.869141"/>
      </g>
     </g>
    </g>
    <g id="text_9">
     <!-- Attendance Date -->
     <g transform="translate(548.128906 385.30494) scale(0.1 -0.1)">
      <defs>
       <path id="DejaVuSans-41" d="M 2188 4044 
L 1331 1722 
L 3047 1722 
L 2188 4044 
z
M 1831 4666 
L 2547 4666 
L 4325 0 
L 3669 0 
L 3244 1197 
L 1141 1197 
L 716 0 
L 50 0 
L 1831 4666 
z
" transform="scale(0.015625)"/>
       <path id="DejaVuSans-74" d="M 1172 4494 
L 1172 3500 
L 2356 3500 
L 2356 3053 
L 1172 3053 
L 1172 1153 
Q 1172 725 1289 603 
Q 1406 481 1766 481 
L 2356 481 
L 2356 0 
L 1766 0 
Q 1100 0 847 248 
Q 594 497 594 1153 
L 594 3053 
L 172 3053 
L 172 3500 
L 594 3500 
L 594 4494 
L 1172 4494 
z
" transform="scale(0.015625)"/>
       <path id="DejaVuSans-65" d="M 3597 1894 
L 3597 1613 
L 953 1613 
Q 991 1019 1311 708 
Q 1631 397 2203 397 
Q 2534 397 2845 478 
Q 3156 559 3463 722 
L 3463 178 
Q 3153 47 2828 -22 
Q 2503 -91 2169 -91 
Q 1331 -91 842 396 
Q 353 884 353 1716 
Q 353 2575 817 3079 
Q 1281 3584 2069 3584 
Q 2775 3584 3186 3129 
Q 3597 2675 3597 1894 
z
M 3022 2063 
Q 3016 2534 2758 2815 
Q 2500 3097 2075 3097 
Q 1594 3097 1305 2825 
Q 1016 2553 972 2059 
L 3022 2063 
z
" transform="scale(0.015625)"/>
       <path id="DejaVuSans-6e" d="M 3513 2113 
L 3513 0 
L 2938 0 
L 2938 2094 
Q 2938 2591 2744 2837 
Q 2550 3084 2163 3084 
Q 1697 3084 1428 2787 
Q 1159 2491 1159 1978 
L 1159 0 
L 581 0 
L 581 3500 
L 1159 3500 
L 1159 2956 
Q 1366 3272 1645 3428 
Q 1925 3584 2291 3584 
Q 2894 3584 3203 3211 
Q 3513 2838 3513 2113 
z
" transform="scale(0.015625)"/>
       <path id="DejaVuSans-64" d="M 2906 2969 
L 2906 4863 
L 3481 4863 
L 3481 0 
L 2906 0 
L 2906 525 
Q 2725 213 2448 61 
Q 2172 -91 1784 -91 
Q 1150 -91 751 415 
Q 353 922 353 1747 
Q 353 2572 751 3078 
Q 1150 3584 1784 3584 
Q 2172 3584 2448 3432 
Q 2725 3281 2906 2969 
z
M 947 1747 
Q 947 1113 1208 752 
Q 1469 391 1925 391 
Q 2381 391 2643 752 
Q 2906 1113 2906 1747 
Q 2906 2381 2643 2742 
Q 2381 3103 1925 3103 
Q 1469 3103 1208 2742 
Q 947 2381 947 1747 
z
" transform="scale(0.015625)"/>
       <path id="DejaVuSans-61" d="M 2194 1759 
Q 1497 1759 1228 1600 
Q 959 1441 959 1056 
Q 959 750 1161 570 
Q 1363 391 1709 391 
Q 2188 391 2477 730 
Q 2766 1069 2766 1631 
L 2766 1759 
L 2194 1759 
z
M 3341 1997 
L 3341 0 
L 2766 0 
L 2766 531 
Q 2569 213 2275 61 
Q 1981 -91 1556 -91 
Q 1019 -91 701 211 
Q 384 513 384 1019 
Q 384 1609 779 1909 
Q 1175 2209 1959 2209 
L 2766 2209 
L 2766 2266 
Q 2766 2663 2505 2880 
Q 2244 3097 1772 3097 
Q 1472 3097 1187 3025 
Q 903 2953 641 2809 
L 641 3341 
Q 956 3463 1253 3523 
Q 1550 3584 1831 3584 
Q 2591 3584 2966 3190 
Q 3341 2797 3341 1997 
z
" transform="scale(0.015625)"/>
       <path id="DejaVuSans-63" d="M 3122 3366 
L 3122 2828 
Q 2878 2963 2633 3030 
Q 2388 3097 2138 3097 
Q 1578 3097 1268 2742 
Q 959 2388 959 1747 
Q 959 1106 1268 751 
Q 1578 397 2138 397 
Q 2388 397 2633 464 
Q 2878 531 3122 666 
L 3122 134 
Q 2881 22 2623 -34 
Q 2366 -91 2075 -91 
Q 1284 -91 818 406 
Q 353 903 353 1747 
Q 353 2603 823 3093 
Q 1294 3584 2113 3584 
Q 2378 3584 2631 3529 
Q 2884 3475 3122 3366 
z
" transform="scale(0.015625)"/>
       <path id="DejaVuSans-20" transform="scale(0.015625)"/>
       <path id="DejaVuSans-44" d="M 1259 4147 
L 1259 519 
L 2022 519 
Q 2988 519 3436 956 
Q 3884 1394 3884 2338 
Q 3884 3275 3436 3711 
Q 2988 4147 2022 4147 
L 1259 4147 
z
M 628 4666 
L 1925 4666 
Q 3281 4666 3915 4102 
Q 4550 3538 4550 2338 
Q 4550 1131 3912 565 
Q 3275 0 1925 0 
L 628 0 
L 628 4666 
z
" transform="scale(0.015625)"/>
      </defs>
      <use xlink:href="#DejaVuSans-41"/>
      <use xlink:href="#DejaVuSans-74" x="66.658203"/>
      <use xlink:href="#DejaVuSans-74" x="105.867188"/>
      <use xlink:href="#DejaVuSans-65" x="145.076172"/>
      <use xlink:href="#DejaVuSans-6e" x="206.599609"/>
      <use xlink:href="#DejaVuSans-64" x="269.978516"/>
      <use xlink:href="#DejaVuSans-61" x="333.455078"/>
      <use xlink:href="#DejaVuSans-6e" x="394.734375"/>
      <use xlink:href="#DejaVuSans-63" x="458.113281"/>
      <use xlink:href="#DejaVuSans-65" x="513.09375"/>
      <use xlink:href="#DejaVuSans-20" x="574.617188"/>
      <use xlink:href="#DejaVuSans-44" x="606.404297"/>
      <use xlink:href="#DejaVuSans-61" x="683.40625"/>
      <use xlink:href="#DejaVuSans-74" x="744.685547"/>
      <use xlink:href="#DejaVuSans-65" x="783.894531"/>
     </g>
    </g>
   </g>
   <g id="matplotlib.axis_2">
    <g id="ytick_1">
     <g id="line2d_9">
      <defs>
       <path id="md21d0e098d" d="M 0 0 
L -3.5 0 
" style="stroke: #000000; stroke-width: 0.8"/>
      </defs>
      <g>
       <use xlink:href="#md21d0e098d" x="144" y="320.62143" style="stroke: #000000; stroke-width: 0.8"/>
      </g>
     </g>
     <g id="text_10">
      <!-- 50 -->
      <g transform="translate(124.275 324.420648) scale(0.1 -0.1)">
       <use xlink:href="#DejaVuSans-35"/>
       <use xlink:href="#DejaVuSans-30" x="63.623047"/>
      </g>
     </g>
    </g>
    <g id="ytick_2">
     <g id="line2d_10">
      <g>
       <use xlink:href="#md21d0e098d" x="144" y="284.948427" style="stroke: #000000; stroke-width: 0.8"/>
      </g>
     </g>
     <g id="text_11">
      <!-- 100 -->
      <g transform="translate(117.9125 288.747645) scale(0.1 -0.1)">
       <use xlink:href="#DejaVuSans-31"/>
       <use xlink:href="#DejaVuSans-30" x="63.623047"/>
       <use xlink:href="#DejaVuSans-30" x="127.246094"/>
      </g>
     </g>
    </g>
    <g id="ytick_3">
     <g id="line2d_11">
      <g>
       <use xlink:href="#md21d0e098d" x="144" y="249.275424" style="stroke: #000000; stroke-width: 0.8"/>
      </g>
     </g>
     <g id="text_12">
      <!-- 150 -->
      <g transform="translate(117.9125 253.074642) scale(0.1 -0.1)">
       <use xlink:href="#DejaVuSans-31"/>
       <use xlink:href="#DejaVuSans-35" x="63.623047"/>
       <use xlink:href="#DejaVuSans-30" x="127.246094"/>
      </g>
     </g>
    </g>
    <g id="ytick_4">
     <g id="line2d_12">
      <g>
       <use xlink:href="#md21d0e098d" x="144" y="213.602421" style="stroke: #000000; stroke-width: 0.8"/>
      </g>
     </g>
     <g id="text_13">
      <!-- 200 -->
      <g transform="translate(117.9125 217.401639) scale(0.1 -0.1)">
       <use xlink:href="#DejaVuSans-32"/>
       <use xlink:href="#DejaVuSans-30" x="63.623047"/>
       <use xlink:href="#DejaVuSans-30" x="127.246094"/>
      </g>
     </g>
    </g>
    <g id="ytick_5">
     <g id="line2d_13">
      <g>
       <use xlink:href="#md21d0e098d" x="144" y="177.929418" style="stroke: #000000; stroke-width: 0.8"/>
      </g>
     </g>
     <g id="text_14">
      <!-- 250 -->
      <g transform="translate(117.9125 181.728636) scale(0.1 -0.1)">
       <use xlink:href="#DejaVuSans-32"/>
       <use xlink:href="#DejaVuSans-35" x="63.623047"/>
       <use xlink:href="#DejaVuSans-30" x="127.246094"/>
      </g>
     </g>
    </g>
    <g id="ytick_6">
     <g id="line2d_14">
      <g>
       <use xlink:href="#md21d0e098d" x="144" y="142.256415" style="stroke: #000000; stroke-width: 0.8"/>
      </g>
     </g>
     <g id="text_15">
      <!-- 300 -->
      <g transform="translate(117.9125 146.055633) scale(0.1 -0.1)">
       <use xlink:href="#DejaVuSans-33"/>
       <use xlink:href="#DejaVuSans-30" x="63.623047"/>
       <use xlink:href="#DejaVuSans-30" x="127.246094"/>
      </g>
     </g>
    </g>
    <g id="ytick_7">
     <g id="line2d_15">
      <g>
       <use xlink:href="#md21d0e098d" x="144" y="106.583412" style="stroke: #000000; stroke-width: 0.8"/>
      </g>
     </g>
     <g id="text_16">
      <!-- 350 -->
      <g transform="translate(117.9125 110.382631) scale(0.1 -0.1)">
       <use xlink:href="#DejaVuSans-33"/>
       <use xlink:href="#DejaVuSans-35" x="63.623047"/>
       <use xlink:href="#DejaVuSans-30" x="127.246094"/>
      </g>
     </g>
    </g>
    <g id="ytick_8">
     <g id="line2d_16">
      <g>
       <use xlink:href="#md21d0e098d" x="144" y="70.910409" style="stroke: #000000; stroke-width: 0.8"/>
      </g>
     </g>
     <g id="text_17">
      <!-- 400 -->
      <g transform="translate(117.9125 74.709628) scale(0.1 -0.1)">
       <use xlink:href="#DejaVuSans-34"/>
       <use xlink:href="#DejaVuSans-30" x="63.623047"/>
       <use xlink:href="#DejaVuSans-30" x="127.246094"/>
      </g>
     </g>
    </g>
    <g id="text_18">
     <!-- uACR -->
     <g transform="translate(111.832812 212.187187) rotate(-90) scale(0.1 -0.1)">
      <defs>
       <path id="DejaVuSans-75" d="M 544 1381 
L 544 3500 
L 1119 3500 
L 1119 1403 
Q 1119 906 1312 657 
Q 1506 409 1894 409 
Q 2359 409 2629 706 
Q 2900 1003 2900 1516 
L 2900 3500 
L 3475 3500 
L 3475 0 
L 2900 0 
L 2900 538 
Q 2691 219 2414 64 
Q 2138 -91 1772 -91 
Q 1169 -91 856 284 
Q 544 659 544 1381 
z
M 1991 3584 
L 1991 3584 
z
" transform="scale(0.015625)"/>
       <path id="DejaVuSans-43" d="M 4122 4306 
L 4122 3641 
Q 3803 3938 3442 4084 
Q 3081 4231 2675 4231 
Q 1875 4231 1450 3742 
Q 1025 3253 1025 2328 
Q 1025 1406 1450 917 
Q 1875 428 2675 428 
Q 3081 428 3442 575 
Q 3803 722 4122 1019 
L 4122 359 
Q 3791 134 3420 21 
Q 3050 -91 2638 -91 
Q 1578 -91 968 557 
Q 359 1206 359 2328 
Q 359 3453 968 4101 
Q 1578 4750 2638 4750 
Q 3056 4750 3426 4639 
Q 3797 4528 4122 4306 
z
" transform="scale(0.015625)"/>
       <path id="DejaVuSans-52" d="M 2841 2188 
Q 3044 2119 3236 1894 
Q 3428 1669 3622 1275 
L 4263 0 
L 3584 0 
L 2988 1197 
Q 2756 1666 2539 1819 
Q 2322 1972 1947 1972 
L 1259 1972 
L 1259 0 
L 628 0 
L 628 4666 
L 2053 4666 
Q 2853 4666 3247 4331 
Q 3641 3997 3641 3322 
Q 3641 2881 3436 2590 
Q 3231 2300 2841 2188 
z
M 1259 4147 
L 1259 2491 
L 2053 2491 
Q 2509 2491 2742 2702 
Q 2975 2913 2975 3322 
Q 2975 3731 2742 3939 
Q 2509 4147 2053 4147 
L 1259 4147 
z
" transform="scale(0.015625)"/>
      </defs>
      <use xlink:href="#DejaVuSans-75"/>
      <use xlink:href="#DejaVuSans-41" x="63.378906"/>
      <use xlink:href="#DejaVuSans-43" x="130.037109"/>
      <use xlink:href="#DejaVuSans-52" x="199.861328"/>
     </g>
    </g>
   </g>
   <g id="line2d_17">
    <path d="M 184.581818 90.965229 
L 186.863527 65.192727 
L 187.189485 68.542979 
L 189.145235 97.461227 
L 193.708653 106.634733 
L 195.990361 104.697148 
L 198.27207 132.13762 
L 200.553779 131.658102 
L 202.835487 173.621196 
L 205.117196 185.886022 
L 207.398905 195.220364 
L 209.680613 192.714152 
L 214.244031 189.558574 
L 216.525739 173.27417 
L 218.807448 178.466631 
L 221.089157 201.028157 
L 223.370865 195.743068 
L 225.652574 185.190014 
L 227.934283 170.664623 
L 230.215991 145.599553 
L 232.4977 154.969944 
L 234.779409 189.932206 
L 237.061117 174.309453 
L 239.342826 180.834134 
L 241.624535 208.129199 
L 243.906243 188.874969 
L 246.187952 188.90105 
L 248.46966 189.044164 
L 257.596495 205.097281 
L 259.878204 214.201656 
L 262.159912 201.853926 
L 266.72333 228.010679 
L 271.286747 167.91054 
L 273.568456 141.582325 
L 275.850164 135.070996 
L 278.131873 138.917786 
L 280.413582 137.622755 
L 282.69529 155.858266 
L 287.258708 154.920988 
L 289.540416 116.886203 
L 291.170208 134.255863 
L 291.822125 134.710871 
L 294.103834 162.027172 
L 296.385542 159.119449 
L 300.623001 229.121451 
L 300.948959 248.729524 
L 303.230668 270.384775 
L 305.512377 273.080187 
L 307.794085 274.383466 
L 310.075794 267.847704 
L 312.357503 255.598945 
L 313.987295 293.694116 
L 314.639211 279.675709 
L 316.92092 280.363641 
L 321.484337 280.645528 
L 322.136254 283.14072 
L 323.114129 225.851811 
L 325.395838 222.709493 
L 326.047755 225.513793 
L 327.677547 215.757644 
L 328.329463 190.641315 
L 329.959255 210.056572 
L 330.611172 196.694612 
L 332.240964 118.586522 
L 332.892881 132.56645 
L 335.174589 132.610765 
L 336.804381 127.958407 
L 337.456298 128.351925 
L 339.08609 168.963395 
L 339.738007 152.037644 
L 341.367798 148.189253 
L 342.019715 158.593542 
L 343.649507 161.889444 
L 343.975465 166.083127 
L 345.931216 187.431243 
L 346.583133 265.566026 
L 348.212924 264.293845 
L 348.864841 255.723317 
L 351.14655 260.445571 
L 352.776342 259.392691 
L 353.428258 274.95157 
L 355.05805 299.40547 
L 357.339759 296.521457 
L 357.991676 290.203859 
L 358.317634 310.322474 
L 359.621468 301.57283 
L 360.273384 306.874281 
L 362.555093 294.962876 
L 364.184885 295.073382 
L 366.466594 302.583264 
L 367.11851 300.048612 
L 369.400219 298.188182 
L 371.030011 290.494249 
L 371.681928 296.295407 
L 373.963636 298.237955 
L 375.593428 293.955265 
L 377.875137 282.245821 
L 378.527054 287.98859 
L 378.853012 274.919514 
L 380.156846 283.102818 
L 382.438554 283.750578 
L 383.090471 280.700168 
L 384.720263 267.739504 
L 387.001972 270.16624 
L 387.653888 265.92642 
L 388.305805 269.8188 
L 391.565389 266.319967 
L 392.217306 272.527787 
L 393.847097 285.152912 
L 396.128806 288.220439 
L 399.062432 240.212094 
L 403.625849 208.766962 
L 405.255641 213.114228 
L 409.819058 226.448009 
L 412.752683 226.579613 
L 414.708434 238.970483 
L 416.664184 235.941248 
L 418.945893 227.510638 
L 421.227601 225.955645 
L 423.50931 226.50703 
L 426.442935 223.995435 
L 428.072727 283.449482 
L 430.354436 276.977478 
L 431.006353 275.939139 
L 434.917853 248.308268 
L 435.56977 233.805238 
L 437.199562 234.251556 
L 441.762979 230.049191 
L 444.044688 233.191591 
L 444.696605 247.000556 
L 446.326396 242.621938 
L 451.541731 217.379456 
L 453.823439 220.07912 
L 456.105148 221.119752 
L 462.298357 200.057803 
L 462.950274 221.70114 
L 464.580066 247.386037 
L 469.7954 263.993581 
L 472.077108 262.959275 
L 473.7069 265.608865 
L 474.358817 253.70893 
L 476.640526 256.795268 
L 478.270318 244.665954 
L 481.203943 230.594572 
L 483.485652 215.830287 
L 485.115444 199.382978 
L 485.76736 240.244146 
L 488.049069 221.225879 
L 489.678861 214.925603 
L 490.330778 206.177193 
L 490.656736 205.075431 
L 491.96057 206.57341 
L 492.612486 218.479445 
L 494.242278 216.344231 
L 494.894195 236.296238 
L 497.175904 271.490806 
L 500.109529 282.047073 
L 503.369113 294.229573 
L 504.02103 293.62767 
L 507.93253 311.550405 
L 510.214239 319.807576 
L 513.147864 328.349276 
L 514.777656 324.459311 
L 517.385323 309.90661 
L 522.274699 296.97819 
L 523.904491 282.940841 
L 524.556407 284.143057 
L 526.186199 288.453885 
L 526.838116 292.62261 
L 528.467908 297.393454 
L 529.119825 298.955149 
L 530.749617 298.148614 
L 533.031325 285.240088 
L 533.683242 278.114245 
L 535.313034 271.728767 
L 537.594743 286.880937 
L 547.373494 299.811034 
L 551.936911 299.46513 
L 553.566703 301.296136 
L 554.21862 301.270175 
L 561.063746 301.161887 
L 562.693538 282.093544 
L 564.975246 275.35976 
L 565.627163 265.987344 
L 567.256955 267.726258 
L 569.538664 283.061597 
L 570.190581 282.239725 
L 571.820372 282.363061 
L 572.472289 290.469624 
L 577.035706 276.443237 
L 579.317415 270.592625 
L 580.947207 269.921651 
L 599.852793 260.618549 
L 602.134502 228.358828 
L 603.764294 237.49217 
L 606.697919 226.246392 
L 608.327711 227.090136 
L 608.979628 228.052099 
L 611.261336 172.682023 
L 612.891128 170.253752 
L 615.824754 170.660291 
L 617.454545 184.430644 
L 620.388171 190.290939 
L 622.66988 191.143756 
L 626.58138 219.549135 
L 627.233297 245.095275 
L 628.863089 242.101408 
L 633.426506 264.51276 
L 635.708215 266.665391 
L 638.64184 265.879159 
L 640.271632 310.456363 
L 640.923549 312.86794 
L 642.553341 320.877434 
L 644.835049 313.675991 
L 649.398467 308.859471 
L 650.050383 308.442025 
L 651.680175 305.952234 
L 654.613801 319.868726 
L 656.243593 311.176134 
L 656.895509 293.851449 
L 660.80701 293.815684 
L 661.458927 294.016732 
L 663.088719 301.800456 
L 665.370427 285.901837 
L 666.022344 283.835764 
L 667.652136 291.022379 
L 668.304053 292.835974 
L 673.519387 274.473065 
L 675.149179 252.096763 
L 679.060679 251.902417 
L 679.712596 260.208545 
L 683.624096 262.872042 
L 685.905805 262.948616 
L 686.557722 263.947121 
L 688.187514 261.483805 
L 688.83943 274.890905 
L 690.469222 270.362815 
L 693.402848 265.269285 
L 695.03264 268.188997 
L 697.314348 254.486256 
L 701.877766 271.85303 
L 708.722892 271.712464 
L 713.938226 261.457305 
L 715.568018 270.925663 
L 716.219934 251.727349 
L 718.501643 250.023306 
L 722.413143 253.74036 
L 723.06506 235.932108 
L 724.694852 232.692711 
L 736.103395 236.259009 
L 736.755312 236.330095 
L 743.600438 259.338603 
L 745.882147 266.598703 
L 748.163855 266.917146 
L 749.793647 282.668553 
L 754.357065 287.884311 
L 755.008981 299.660181 
L 757.29069 301.290477 
L 759.572399 304.089527 
L 763.483899 324.33712 
L 768.047317 326.9096 
L 768.699233 325.807374 
L 770.329025 325.795125 
L 779.45586 328.603875 
L 780.107777 328.298988 
L 789.234611 328.646839 
L 800.969113 327.111237 
L 802.272946 332.247273 
L 804.554655 332.05945 
L 812.051698 323.912088 
L 813.68149 323.929501 
L 814.333406 315.219986 
L 818.244907 318.006744 
L 834.868784 318.109794 
L 837.150493 323.613034 
L 838.780285 311.422152 
L 841.71391 298.49454 
L 843.343702 298.912953 
L 843.995619 299.54101 
L 850.840745 285.745601 
L 854.752245 280.947354 
L 868.442497 289.029591 
L 869.094414 284.88899 
L 887.348083 296.125143 
L 888.977875 289.493174 
L 889.303834 289.435414 
L 889.629792 283.478107 
L 891.911501 295.973876 
L 893.541292 306.289254 
L 894.193209 297.047102 
L 895.823001 297.262969 
L 896.474918 304.267604 
L 898.756627 301.076173 
L 901.038335 300.011494 
L 902.668127 293.218491 
L 903.320044 297.619423 
L 907.883461 299.730081 
L 910.16517 298.922176 
L 915.054545 301.378797 
L 917.336254 272.673388 
L 918.966046 275.147154 
L 921.573713 248.710238 
L 924.18138 248.794809 
L 932.982256 222.007666 
L 935.263965 227.989034 
L 936.893757 228.767577 
L 941.457174 239.441227 
L 944.064841 238.979227 
L 944.3908 243.511598 
L 948.954217 243.145233 
L 955.473384 247.5184 
L 955.799343 271.796653 
L 957.755093 261.024393 
L 959.710843 291.151071 
L 960.36276 290.074943 
L 962.644469 298.388838 
L 967.207886 300.67884 
L 969.815553 300.996178 
L 971.771303 288.786775 
L 974.053012 289.600855 
L 976.334721 284.314012 
L 983.179847 286.485297 
L 984.809639 280.013303 
L 987.091347 278.066039 
L 990.024973 279.065783 
L 994.262432 305.759741 
L 996.218182 305.768545 
L 996.218182 305.768545 
" clip-path="url(#p7812baa6e6)" style="fill: none; stroke: #1f77b4; stroke-width: 1.5; stroke-linecap: square"/>
   </g>
   <g id="patch_3">
    <path d="M 144 345.6 
L 144 51.84 
" style="fill: none; stroke: #000000; stroke-width: 0.8; stroke-linejoin: miter; stroke-linecap: square"/>
   </g>
   <g id="patch_4">
    <path d="M 1036.8 345.6 
L 1036.8 51.84 
" style="fill: none; stroke: #000000; stroke-width: 0.8; stroke-linejoin: miter; stroke-linecap: square"/>
   </g>
   <g id="patch_5">
    <path d="M 144 345.6 
L 1036.8 345.6 
" style="fill: none; stroke: #000000; stroke-width: 0.8; stroke-linejoin: miter; stroke-linecap: square"/>
   </g>
   <g id="patch_6">
    <path d="M 144 51.84 
L 1036.8 51.84 
" style="fill: none; stroke: #000000; stroke-width: 0.8; stroke-linejoin: miter; stroke-linecap: square"/>
   </g>
   <g id="text_19">
    <!-- UACR by Year of Attendance - 12 Month Rolling Window -->
    <g transform="translate(423.720937 45.84) scale(0.12 -0.12)">
     <defs>
      <path id="DejaVuSans-55" d="M 556 4666 
L 1191 4666 
L 1191 1831 
Q 1191 1081 1462 751 
Q 1734 422 2344 422 
Q 2950 422 3222 751 
Q 3494 1081 3494 1831 
L 3494 4666 
L 4128 4666 
L 4128 1753 
Q 4128 841 3676 375 
Q 3225 -91 2344 -91 
Q 1459 -91 1007 375 
Q 556 841 556 1753 
L 556 4666 
z
" transform="scale(0.015625)"/>
      <path id="DejaVuSans-62" d="M 3116 1747 
Q 3116 2381 2855 2742 
Q 2594 3103 2138 3103 
Q 1681 3103 1420 2742 
Q 1159 2381 1159 1747 
Q 1159 1113 1420 752 
Q 1681 391 2138 391 
Q 2594 391 2855 752 
Q 3116 1113 3116 1747 
z
M 1159 2969 
Q 1341 3281 1617 3432 
Q 1894 3584 2278 3584 
Q 2916 3584 3314 3078 
Q 3713 2572 3713 1747 
Q 3713 922 3314 415 
Q 2916 -91 2278 -91 
Q 1894 -91 1617 61 
Q 1341 213 1159 525 
L 1159 0 
L 581 0 
L 581 4863 
L 1159 4863 
L 1159 2969 
z
" transform="scale(0.015625)"/>
      <path id="DejaVuSans-79" d="M 2059 -325 
Q 1816 -950 1584 -1140 
Q 1353 -1331 966 -1331 
L 506 -1331 
L 506 -850 
L 844 -850 
Q 1081 -850 1212 -737 
Q 1344 -625 1503 -206 
L 1606 56 
L 191 3500 
L 800 3500 
L 1894 763 
L 2988 3500 
L 3597 3500 
L 2059 -325 
z
" transform="scale(0.015625)"/>
      <path id="DejaVuSans-59" d="M -13 4666 
L 666 4666 
L 1959 2747 
L 3244 4666 
L 3922 4666 
L 2272 2222 
L 2272 0 
L 1638 0 
L 1638 2222 
L -13 4666 
z
" transform="scale(0.015625)"/>
      <path id="DejaVuSans-72" d="M 2631 2963 
Q 2534 3019 2420 3045 
Q 2306 3072 2169 3072 
Q 1681 3072 1420 2755 
Q 1159 2438 1159 1844 
L 1159 0 
L 581 0 
L 581 3500 
L 1159 3500 
L 1159 2956 
Q 1341 3275 1631 3429 
Q 1922 3584 2338 3584 
Q 2397 3584 2469 3576 
Q 2541 3569 2628 3553 
L 2631 2963 
z
" transform="scale(0.015625)"/>
      <path id="DejaVuSans-6f" d="M 1959 3097 
Q 1497 3097 1228 2736 
Q 959 2375 959 1747 
Q 959 1119 1226 758 
Q 1494 397 1959 397 
Q 2419 397 2687 759 
Q 2956 1122 2956 1747 
Q 2956 2369 2687 2733 
Q 2419 3097 1959 3097 
z
M 1959 3584 
Q 2709 3584 3137 3096 
Q 3566 2609 3566 1747 
Q 3566 888 3137 398 
Q 2709 -91 1959 -91 
Q 1206 -91 779 398 
Q 353 888 353 1747 
Q 353 2609 779 3096 
Q 1206 3584 1959 3584 
z
" transform="scale(0.015625)"/>
      <path id="DejaVuSans-66" d="M 2375 4863 
L 2375 4384 
L 1825 4384 
Q 1516 4384 1395 4259 
Q 1275 4134 1275 3809 
L 1275 3500 
L 2222 3500 
L 2222 3053 
L 1275 3053 
L 1275 0 
L 697 0 
L 697 3053 
L 147 3053 
L 147 3500 
L 697 3500 
L 697 3744 
Q 697 4328 969 4595 
Q 1241 4863 1831 4863 
L 2375 4863 
z
" transform="scale(0.015625)"/>
      <path id="DejaVuSans-2d" d="M 313 2009 
L 1997 2009 
L 1997 1497 
L 313 1497 
L 313 2009 
z
" transform="scale(0.015625)"/>
      <path id="DejaVuSans-4d" d="M 628 4666 
L 1569 4666 
L 2759 1491 
L 3956 4666 
L 4897 4666 
L 4897 0 
L 4281 0 
L 4281 4097 
L 3078 897 
L 2444 897 
L 1241 4097 
L 1241 0 
L 628 0 
L 628 4666 
z
" transform="scale(0.015625)"/>
      <path id="DejaVuSans-68" d="M 3513 2113 
L 3513 0 
L 2938 0 
L 2938 2094 
Q 2938 2591 2744 2837 
Q 2550 3084 2163 3084 
Q 1697 3084 1428 2787 
Q 1159 2491 1159 1978 
L 1159 0 
L 581 0 
L 581 4863 
L 1159 4863 
L 1159 2956 
Q 1366 3272 1645 3428 
Q 1925 3584 2291 3584 
Q 2894 3584 3203 3211 
Q 3513 2838 3513 2113 
z
" transform="scale(0.015625)"/>
      <path id="DejaVuSans-6c" d="M 603 4863 
L 1178 4863 
L 1178 0 
L 603 0 
L 603 4863 
z
" transform="scale(0.015625)"/>
      <path id="DejaVuSans-69" d="M 603 3500 
L 1178 3500 
L 1178 0 
L 603 0 
L 603 3500 
z
M 603 4863 
L 1178 4863 
L 1178 4134 
L 603 4134 
L 603 4863 
z
" transform="scale(0.015625)"/>
      <path id="DejaVuSans-67" d="M 2906 1791 
Q 2906 2416 2648 2759 
Q 2391 3103 1925 3103 
Q 1463 3103 1205 2759 
Q 947 2416 947 1791 
Q 947 1169 1205 825 
Q 1463 481 1925 481 
Q 2391 481 2648 825 
Q 2906 1169 2906 1791 
z
M 3481 434 
Q 3481 -459 3084 -895 
Q 2688 -1331 1869 -1331 
Q 1566 -1331 1297 -1286 
Q 1028 -1241 775 -1147 
L 775 -588 
Q 1028 -725 1275 -790 
Q 1522 -856 1778 -856 
Q 2344 -856 2625 -561 
Q 2906 -266 2906 331 
L 2906 616 
Q 2728 306 2450 153 
Q 2172 0 1784 0 
Q 1141 0 747 490 
Q 353 981 353 1791 
Q 353 2603 747 3093 
Q 1141 3584 1784 3584 
Q 2172 3584 2450 3431 
Q 2728 3278 2906 2969 
L 2906 3500 
L 3481 3500 
L 3481 434 
z
" transform="scale(0.015625)"/>
      <path id="DejaVuSans-57" d="M 213 4666 
L 850 4666 
L 1831 722 
L 2809 4666 
L 3519 4666 
L 4500 722 
L 5478 4666 
L 6119 4666 
L 4947 0 
L 4153 0 
L 3169 4050 
L 2175 0 
L 1381 0 
L 213 4666 
z
" transform="scale(0.015625)"/>
      <path id="DejaVuSans-77" d="M 269 3500 
L 844 3500 
L 1563 769 
L 2278 3500 
L 2956 3500 
L 3675 769 
L 4391 3500 
L 4966 3500 
L 4050 0 
L 3372 0 
L 2619 2869 
L 1863 0 
L 1184 0 
L 269 3500 
z
" transform="scale(0.015625)"/>
     </defs>
     <use xlink:href="#DejaVuSans-55"/>
     <use xlink:href="#DejaVuSans-41" x="73.193359"/>
     <use xlink:href="#DejaVuSans-43" x="139.851562"/>
     <use xlink:href="#DejaVuSans-52" x="209.675781"/>
     <use xlink:href="#DejaVuSans-20" x="279.158203"/>
     <use xlink:href="#DejaVuSans-62" x="310.945312"/>
     <use xlink:href="#DejaVuSans-79" x="374.421875"/>
     <use xlink:href="#DejaVuSans-20" x="433.601562"/>
     <use xlink:href="#DejaVuSans-59" x="465.388672"/>
     <use xlink:href="#DejaVuSans-65" x="513.222656"/>
     <use xlink:href="#DejaVuSans-61" x="574.746094"/>
     <use xlink:href="#DejaVuSans-72" x="636.025391"/>
     <use xlink:href="#DejaVuSans-20" x="677.138672"/>
     <use xlink:href="#DejaVuSans-6f" x="708.925781"/>
     <use xlink:href="#DejaVuSans-66" x="770.107422"/>
     <use xlink:href="#DejaVuSans-20" x="805.3125"/>
     <use xlink:href="#DejaVuSans-41" x="837.099609"/>
     <use xlink:href="#DejaVuSans-74" x="903.757812"/>
     <use xlink:href="#DejaVuSans-74" x="942.966797"/>
     <use xlink:href="#DejaVuSans-65" x="982.175781"/>
     <use xlink:href="#DejaVuSans-6e" x="1043.699219"/>
     <use xlink:href="#DejaVuSans-64" x="1107.078125"/>
     <use xlink:href="#DejaVuSans-61" x="1170.554688"/>
     <use xlink:href="#DejaVuSans-6e" x="1231.833984"/>
     <use xlink:href="#DejaVuSans-63" x="1295.212891"/>
     <use xlink:href="#DejaVuSans-65" x="1350.193359"/>
     <use xlink:href="#DejaVuSans-20" x="1411.716797"/>
     <use xlink:href="#DejaVuSans-2d" x="1443.503906"/>
     <use xlink:href="#DejaVuSans-20" x="1479.587891"/>
     <use xlink:href="#DejaVuSans-31" x="1511.375"/>
     <use xlink:href="#DejaVuSans-32" x="1574.998047"/>
     <use xlink:href="#DejaVuSans-20" x="1638.621094"/>
     <use xlink:href="#DejaVuSans-4d" x="1670.408203"/>
     <use xlink:href="#DejaVuSans-6f" x="1756.6875"/>
     <use xlink:href="#DejaVuSans-6e" x="1817.869141"/>
     <use xlink:href="#DejaVuSans-74" x="1881.248047"/>
     <use xlink:href="#DejaVuSans-68" x="1920.457031"/>
     <use xlink:href="#DejaVuSans-20" x="1983.835938"/>
     <use xlink:href="#DejaVuSans-52" x="2015.623047"/>
     <use xlink:href="#DejaVuSans-6f" x="2080.605469"/>
     <use xlink:href="#DejaVuSans-6c" x="2141.787109"/>
     <use xlink:href="#DejaVuSans-6c" x="2169.570312"/>
     <use xlink:href="#DejaVuSans-69" x="2197.353516"/>
     <use xlink:href="#DejaVuSans-6e" x="2225.136719"/>
     <use xlink:href="#DejaVuSans-67" x="2288.515625"/>
     <use xlink:href="#DejaVuSans-20" x="2351.992188"/>
     <use xlink:href="#DejaVuSans-57" x="2383.779297"/>
     <use xlink:href="#DejaVuSans-69" x="2480.40625"/>
     <use xlink:href="#DejaVuSans-6e" x="2508.189453"/>
     <use xlink:href="#DejaVuSans-64" x="2571.568359"/>
     <use xlink:href="#DejaVuSans-6f" x="2635.044922"/>
     <use xlink:href="#DejaVuSans-77" x="2696.226562"/>
    </g>
   </g>
  </g>
 </g>
 <defs>
  <clipPath id="p7812baa6e6">
   <rect x="144" y="51.84" width="892.8" height="293.76"/>
  </clipPath>
 </defs>
</svg>
