<?xml version="1.0" encoding="utf-8" standalone="no"?>
<!DOCTYPE svg PUBLIC "-//W3C//DTD SVG 1.1//EN"
  "http://www.w3.org/Graphics/SVG/1.1/DTD/svg11.dtd">
<svg xmlns:xlink="http://www.w3.org/1999/xlink" width="1152pt" height="432pt" viewBox="0 0 1152 432" xmlns="http://www.w3.org/2000/svg" version="1.1">
 <metadata>
  <rdf:RDF xmlns:dc="http://purl.org/dc/elements/1.1/" xmlns:cc="http://creativecommons.org/ns#" xmlns:rdf="http://www.w3.org/1999/02/22-rdf-syntax-ns#">
   <cc:Work>
    <dc:type rdf:resource="http://purl.org/dc/dcmitype/StillImage"/>
    <dc:date>2024-04-21T08:16:52.548785</dc:date>
    <dc:format>image/svg+xml</dc:format>
    <dc:creator>
     <cc:Agent>
      <dc:title>Matplotlib v3.7.2, https://matplotlib.org/</dc:title>
     </cc:Agent>
    </dc:creator>
   </cc:Work>
  </rdf:RDF>
 </metadata>
 <defs>
  <style type="text/css">*{stroke-linejoin: round; stroke-linecap: butt}</style>
 </defs>
 <g id="figure_1">
  <g id="patch_1">
   <path d="M 0 432 
L 1152 432 
L 1152 0 
L 0 0 
z
" style="fill: #ffffff"/>
  </g>
  <g id="axes_1">
   <g id="patch_2">
    <path d="M 144 345.6 
L 1036.8 345.6 
L 1036.8 51.84 
L 144 51.84 
z
" style="fill: #ffffff"/>
   </g>
   <g id="matplotlib.axis_1">
    <g id="xtick_1">
     <g id="line2d_1">
      <defs>
       <path id="m33b42b0a7a" d="M 0 0 
L 0 3.5 
" style="stroke: #000000; stroke-width: 0.8"/>
      </defs>
      <g>
       <use xlink:href="#m33b42b0a7a" x="201.857612" y="345.6" style="stroke: #000000; stroke-width: 0.8"/>
      </g>
     </g>
     <g id="text_1">
      <!-- 2012 -->
      <g transform="translate(178.777422 371.90544) rotate(-30) scale(0.1 -0.1)">
       <defs>
        <path id="DejaVuSans-32" d="M 1228 531 
L 3431 531 
L 3431 0 
L 469 0 
L 469 531 
Q 828 903 1448 1529 
Q 2069 2156 2228 2338 
Q 2531 2678 2651 2914 
Q 2772 3150 2772 3378 
Q 2772 3750 2511 3984 
Q 2250 4219 1831 4219 
Q 1534 4219 1204 4116 
Q 875 4013 500 3803 
L 500 4441 
Q 881 4594 1212 4672 
Q 1544 4750 1819 4750 
Q 2544 4750 2975 4387 
Q 3406 4025 3406 3419 
Q 3406 3131 3298 2873 
Q 3191 2616 2906 2266 
Q 2828 2175 2409 1742 
Q 1991 1309 1228 531 
z
" transform="scale(0.015625)"/>
        <path id="DejaVuSans-30" d="M 2034 4250 
Q 1547 4250 1301 3770 
Q 1056 3291 1056 2328 
Q 1056 1369 1301 889 
Q 1547 409 2034 409 
Q 2525 409 2770 889 
Q 3016 1369 3016 2328 
Q 3016 3291 2770 3770 
Q 2525 4250 2034 4250 
z
M 2034 4750 
Q 2819 4750 3233 4129 
Q 3647 3509 3647 2328 
Q 3647 1150 3233 529 
Q 2819 -91 2034 -91 
Q 1250 -91 836 529 
Q 422 1150 422 2328 
Q 422 3509 836 4129 
Q 1250 4750 2034 4750 
z
" transform="scale(0.015625)"/>
        <path id="DejaVuSans-31" d="M 794 531 
L 1825 531 
L 1825 4091 
L 703 3866 
L 703 4441 
L 1819 4666 
L 2450 4666 
L 2450 531 
L 3481 531 
L 3481 0 
L 794 0 
L 794 531 
z
" transform="scale(0.015625)"/>
       </defs>
       <use xlink:href="#DejaVuSans-32"/>
       <use xlink:href="#DejaVuSans-30" x="63.623047"/>
       <use xlink:href="#DejaVuSans-31" x="127.246094"/>
       <use xlink:href="#DejaVuSans-32" x="190.869141"/>
      </g>
     </g>
    </g>
    <g id="xtick_2">
     <g id="line2d_2">
      <g>
       <use xlink:href="#m33b42b0a7a" x="321.158379" y="345.6" style="stroke: #000000; stroke-width: 0.8"/>
      </g>
     </g>
     <g id="text_2">
      <!-- 2013 -->
      <g transform="translate(298.078189 371.90544) rotate(-30) scale(0.1 -0.1)">
       <defs>
        <path id="DejaVuSans-33" d="M 2597 2516 
Q 3050 2419 3304 2112 
Q 3559 1806 3559 1356 
Q 3559 666 3084 287 
Q 2609 -91 1734 -91 
Q 1441 -91 1130 -33 
Q 819 25 488 141 
L 488 750 
Q 750 597 1062 519 
Q 1375 441 1716 441 
Q 2309 441 2620 675 
Q 2931 909 2931 1356 
Q 2931 1769 2642 2001 
Q 2353 2234 1838 2234 
L 1294 2234 
L 1294 2753 
L 1863 2753 
Q 2328 2753 2575 2939 
Q 2822 3125 2822 3475 
Q 2822 3834 2567 4026 
Q 2313 4219 1838 4219 
Q 1578 4219 1281 4162 
Q 984 4106 628 3988 
L 628 4550 
Q 988 4650 1302 4700 
Q 1616 4750 1894 4750 
Q 2613 4750 3031 4423 
Q 3450 4097 3450 3541 
Q 3450 3153 3228 2886 
Q 3006 2619 2597 2516 
z
" transform="scale(0.015625)"/>
       </defs>
       <use xlink:href="#DejaVuSans-32"/>
       <use xlink:href="#DejaVuSans-30" x="63.623047"/>
       <use xlink:href="#DejaVuSans-31" x="127.246094"/>
       <use xlink:href="#DejaVuSans-33" x="190.869141"/>
      </g>
     </g>
    </g>
    <g id="xtick_3">
     <g id="line2d_3">
      <g>
       <use xlink:href="#m33b42b0a7a" x="440.133187" y="345.6" style="stroke: #000000; stroke-width: 0.8"/>
      </g>
     </g>
     <g id="text_3">
      <!-- 2014 -->
      <g transform="translate(417.052997 371.90544) rotate(-30) scale(0.1 -0.1)">
       <defs>
        <path id="DejaVuSans-34" d="M 2419 4116 
L 825 1625 
L 2419 1625 
L 2419 4116 
z
M 2253 4666 
L 3047 4666 
L 3047 1625 
L 3713 1625 
L 3713 1100 
L 3047 1100 
L 3047 0 
L 2419 0 
L 2419 1100 
L 313 1100 
L 313 1709 
L 2253 4666 
z
" transform="scale(0.015625)"/>
       </defs>
       <use xlink:href="#DejaVuSans-32"/>
       <use xlink:href="#DejaVuSans-30" x="63.623047"/>
       <use xlink:href="#DejaVuSans-31" x="127.246094"/>
       <use xlink:href="#DejaVuSans-34" x="190.869141"/>
      </g>
     </g>
    </g>
    <g id="xtick_4">
     <g id="line2d_4">
      <g>
       <use xlink:href="#m33b42b0a7a" x="559.107996" y="345.6" style="stroke: #000000; stroke-width: 0.8"/>
      </g>
     </g>
     <g id="text_4">
      <!-- 2015 -->
      <g transform="translate(536.027805 371.90544) rotate(-30) scale(0.1 -0.1)">
       <defs>
        <path id="DejaVuSans-35" d="M 691 4666 
L 3169 4666 
L 3169 4134 
L 1269 4134 
L 1269 2991 
Q 1406 3038 1543 3061 
Q 1681 3084 1819 3084 
Q 2600 3084 3056 2656 
Q 3513 2228 3513 1497 
Q 3513 744 3044 326 
Q 2575 -91 1722 -91 
Q 1428 -91 1123 -41 
Q 819 9 494 109 
L 494 744 
Q 775 591 1075 516 
Q 1375 441 1709 441 
Q 2250 441 2565 725 
Q 2881 1009 2881 1497 
Q 2881 1984 2565 2268 
Q 2250 2553 1709 2553 
Q 1456 2553 1204 2497 
Q 953 2441 691 2322 
L 691 4666 
z
" transform="scale(0.015625)"/>
       </defs>
       <use xlink:href="#DejaVuSans-32"/>
       <use xlink:href="#DejaVuSans-30" x="63.623047"/>
       <use xlink:href="#DejaVuSans-31" x="127.246094"/>
       <use xlink:href="#DejaVuSans-35" x="190.869141"/>
      </g>
     </g>
    </g>
    <g id="xtick_5">
     <g id="line2d_5">
      <g>
       <use xlink:href="#m33b42b0a7a" x="678.082804" y="345.6" style="stroke: #000000; stroke-width: 0.8"/>
      </g>
     </g>
     <g id="text_5">
      <!-- 2016 -->
      <g transform="translate(655.002614 371.90544) rotate(-30) scale(0.1 -0.1)">
       <defs>
        <path id="DejaVuSans-36" d="M 2113 2584 
Q 1688 2584 1439 2293 
Q 1191 2003 1191 1497 
Q 1191 994 1439 701 
Q 1688 409 2113 409 
Q 2538 409 2786 701 
Q 3034 994 3034 1497 
Q 3034 2003 2786 2293 
Q 2538 2584 2113 2584 
z
M 3366 4563 
L 3366 3988 
Q 3128 4100 2886 4159 
Q 2644 4219 2406 4219 
Q 1781 4219 1451 3797 
Q 1122 3375 1075 2522 
Q 1259 2794 1537 2939 
Q 1816 3084 2150 3084 
Q 2853 3084 3261 2657 
Q 3669 2231 3669 1497 
Q 3669 778 3244 343 
Q 2819 -91 2113 -91 
Q 1303 -91 875 529 
Q 447 1150 447 2328 
Q 447 3434 972 4092 
Q 1497 4750 2381 4750 
Q 2619 4750 2861 4703 
Q 3103 4656 3366 4563 
z
" transform="scale(0.015625)"/>
       </defs>
       <use xlink:href="#DejaVuSans-32"/>
       <use xlink:href="#DejaVuSans-30" x="63.623047"/>
       <use xlink:href="#DejaVuSans-31" x="127.246094"/>
       <use xlink:href="#DejaVuSans-36" x="190.869141"/>
      </g>
     </g>
    </g>
    <g id="xtick_6">
     <g id="line2d_6">
      <g>
       <use xlink:href="#m33b42b0a7a" x="797.383571" y="345.6" style="stroke: #000000; stroke-width: 0.8"/>
      </g>
     </g>
     <g id="text_6">
      <!-- 2017 -->
      <g transform="translate(774.30338 371.90544) rotate(-30) scale(0.1 -0.1)">
       <defs>
        <path id="DejaVuSans-37" d="M 525 4666 
L 3525 4666 
L 3525 4397 
L 1831 0 
L 1172 0 
L 2766 4134 
L 525 4134 
L 525 4666 
z
" transform="scale(0.015625)"/>
       </defs>
       <use xlink:href="#DejaVuSans-32"/>
       <use xlink:href="#DejaVuSans-30" x="63.623047"/>
       <use xlink:href="#DejaVuSans-31" x="127.246094"/>
       <use xlink:href="#DejaVuSans-37" x="190.869141"/>
      </g>
     </g>
    </g>
    <g id="xtick_7">
     <g id="line2d_7">
      <g>
       <use xlink:href="#m33b42b0a7a" x="916.358379" y="345.6" style="stroke: #000000; stroke-width: 0.8"/>
      </g>
     </g>
     <g id="text_7">
      <!-- 2018 -->
      <g transform="translate(893.278189 371.90544) rotate(-30) scale(0.1 -0.1)">
       <defs>
        <path id="DejaVuSans-38" d="M 2034 2216 
Q 1584 2216 1326 1975 
Q 1069 1734 1069 1313 
Q 1069 891 1326 650 
Q 1584 409 2034 409 
Q 2484 409 2743 651 
Q 3003 894 3003 1313 
Q 3003 1734 2745 1975 
Q 2488 2216 2034 2216 
z
M 1403 2484 
Q 997 2584 770 2862 
Q 544 3141 544 3541 
Q 544 4100 942 4425 
Q 1341 4750 2034 4750 
Q 2731 4750 3128 4425 
Q 3525 4100 3525 3541 
Q 3525 3141 3298 2862 
Q 3072 2584 2669 2484 
Q 3125 2378 3379 2068 
Q 3634 1759 3634 1313 
Q 3634 634 3220 271 
Q 2806 -91 2034 -91 
Q 1263 -91 848 271 
Q 434 634 434 1313 
Q 434 1759 690 2068 
Q 947 2378 1403 2484 
z
M 1172 3481 
Q 1172 3119 1398 2916 
Q 1625 2713 2034 2713 
Q 2441 2713 2670 2916 
Q 2900 3119 2900 3481 
Q 2900 3844 2670 4047 
Q 2441 4250 2034 4250 
Q 1625 4250 1398 4047 
Q 1172 3844 1172 3481 
z
" transform="scale(0.015625)"/>
       </defs>
       <use xlink:href="#DejaVuSans-32"/>
       <use xlink:href="#DejaVuSans-30" x="63.623047"/>
       <use xlink:href="#DejaVuSans-31" x="127.246094"/>
       <use xlink:href="#DejaVuSans-38" x="190.869141"/>
      </g>
     </g>
    </g>
    <g id="xtick_8">
     <g id="line2d_8">
      <g>
       <use xlink:href="#m33b42b0a7a" x="1035.333187" y="345.6" style="stroke: #000000; stroke-width: 0.8"/>
      </g>
     </g>
     <g id="text_8">
      <!-- 2019 -->
      <g transform="translate(1012.252997 371.90544) rotate(-30) scale(0.1 -0.1)">
       <defs>
        <path id="DejaVuSans-39" d="M 703 97 
L 703 672 
Q 941 559 1184 500 
Q 1428 441 1663 441 
Q 2288 441 2617 861 
Q 2947 1281 2994 2138 
Q 2813 1869 2534 1725 
Q 2256 1581 1919 1581 
Q 1219 1581 811 2004 
Q 403 2428 403 3163 
Q 403 3881 828 4315 
Q 1253 4750 1959 4750 
Q 2769 4750 3195 4129 
Q 3622 3509 3622 2328 
Q 3622 1225 3098 567 
Q 2575 -91 1691 -91 
Q 1453 -91 1209 -44 
Q 966 3 703 97 
z
M 1959 2075 
Q 2384 2075 2632 2365 
Q 2881 2656 2881 3163 
Q 2881 3666 2632 3958 
Q 2384 4250 1959 4250 
Q 1534 4250 1286 3958 
Q 1038 3666 1038 3163 
Q 1038 2656 1286 2365 
Q 1534 2075 1959 2075 
z
" transform="scale(0.015625)"/>
       </defs>
       <use xlink:href="#DejaVuSans-32"/>
       <use xlink:href="#DejaVuSans-30" x="63.623047"/>
       <use xlink:href="#DejaVuSans-31" x="127.246094"/>
       <use xlink:href="#DejaVuSans-39" x="190.869141"/>
      </g>
     </g>
    </g>
    <g id="text_9">
     <!-- Attendance Date -->
     <g transform="translate(548.128906 385.30494) scale(0.1 -0.1)">
      <defs>
       <path id="DejaVuSans-41" d="M 2188 4044 
L 1331 1722 
L 3047 1722 
L 2188 4044 
z
M 1831 4666 
L 2547 4666 
L 4325 0 
L 3669 0 
L 3244 1197 
L 1141 1197 
L 716 0 
L 50 0 
L 1831 4666 
z
" transform="scale(0.015625)"/>
       <path id="DejaVuSans-74" d="M 1172 4494 
L 1172 3500 
L 2356 3500 
L 2356 3053 
L 1172 3053 
L 1172 1153 
Q 1172 725 1289 603 
Q 1406 481 1766 481 
L 2356 481 
L 2356 0 
L 1766 0 
Q 1100 0 847 248 
Q 594 497 594 1153 
L 594 3053 
L 172 3053 
L 172 3500 
L 594 3500 
L 594 4494 
L 1172 4494 
z
" transform="scale(0.015625)"/>
       <path id="DejaVuSans-65" d="M 3597 1894 
L 3597 1613 
L 953 1613 
Q 991 1019 1311 708 
Q 1631 397 2203 397 
Q 2534 397 2845 478 
Q 3156 559 3463 722 
L 3463 178 
Q 3153 47 2828 -22 
Q 2503 -91 2169 -91 
Q 1331 -91 842 396 
Q 353 884 353 1716 
Q 353 2575 817 3079 
Q 1281 3584 2069 3584 
Q 2775 3584 3186 3129 
Q 3597 2675 3597 1894 
z
M 3022 2063 
Q 3016 2534 2758 2815 
Q 2500 3097 2075 3097 
Q 1594 3097 1305 2825 
Q 1016 2553 972 2059 
L 3022 2063 
z
" transform="scale(0.015625)"/>
       <path id="DejaVuSans-6e" d="M 3513 2113 
L 3513 0 
L 2938 0 
L 2938 2094 
Q 2938 2591 2744 2837 
Q 2550 3084 2163 3084 
Q 1697 3084 1428 2787 
Q 1159 2491 1159 1978 
L 1159 0 
L 581 0 
L 581 3500 
L 1159 3500 
L 1159 2956 
Q 1366 3272 1645 3428 
Q 1925 3584 2291 3584 
Q 2894 3584 3203 3211 
Q 3513 2838 3513 2113 
z
" transform="scale(0.015625)"/>
       <path id="DejaVuSans-64" d="M 2906 2969 
L 2906 4863 
L 3481 4863 
L 3481 0 
L 2906 0 
L 2906 525 
Q 2725 213 2448 61 
Q 2172 -91 1784 -91 
Q 1150 -91 751 415 
Q 353 922 353 1747 
Q 353 2572 751 3078 
Q 1150 3584 1784 3584 
Q 2172 3584 2448 3432 
Q 2725 3281 2906 2969 
z
M 947 1747 
Q 947 1113 1208 752 
Q 1469 391 1925 391 
Q 2381 391 2643 752 
Q 2906 1113 2906 1747 
Q 2906 2381 2643 2742 
Q 2381 3103 1925 3103 
Q 1469 3103 1208 2742 
Q 947 2381 947 1747 
z
" transform="scale(0.015625)"/>
       <path id="DejaVuSans-61" d="M 2194 1759 
Q 1497 1759 1228 1600 
Q 959 1441 959 1056 
Q 959 750 1161 570 
Q 1363 391 1709 391 
Q 2188 391 2477 730 
Q 2766 1069 2766 1631 
L 2766 1759 
L 2194 1759 
z
M 3341 1997 
L 3341 0 
L 2766 0 
L 2766 531 
Q 2569 213 2275 61 
Q 1981 -91 1556 -91 
Q 1019 -91 701 211 
Q 384 513 384 1019 
Q 384 1609 779 1909 
Q 1175 2209 1959 2209 
L 2766 2209 
L 2766 2266 
Q 2766 2663 2505 2880 
Q 2244 3097 1772 3097 
Q 1472 3097 1187 3025 
Q 903 2953 641 2809 
L 641 3341 
Q 956 3463 1253 3523 
Q 1550 3584 1831 3584 
Q 2591 3584 2966 3190 
Q 3341 2797 3341 1997 
z
" transform="scale(0.015625)"/>
       <path id="DejaVuSans-63" d="M 3122 3366 
L 3122 2828 
Q 2878 2963 2633 3030 
Q 2388 3097 2138 3097 
Q 1578 3097 1268 2742 
Q 959 2388 959 1747 
Q 959 1106 1268 751 
Q 1578 397 2138 397 
Q 2388 397 2633 464 
Q 2878 531 3122 666 
L 3122 134 
Q 2881 22 2623 -34 
Q 2366 -91 2075 -91 
Q 1284 -91 818 406 
Q 353 903 353 1747 
Q 353 2603 823 3093 
Q 1294 3584 2113 3584 
Q 2378 3584 2631 3529 
Q 2884 3475 3122 3366 
z
" transform="scale(0.015625)"/>
       <path id="DejaVuSans-20" transform="scale(0.015625)"/>
       <path id="DejaVuSans-44" d="M 1259 4147 
L 1259 519 
L 2022 519 
Q 2988 519 3436 956 
Q 3884 1394 3884 2338 
Q 3884 3275 3436 3711 
Q 2988 4147 2022 4147 
L 1259 4147 
z
M 628 4666 
L 1925 4666 
Q 3281 4666 3915 4102 
Q 4550 3538 4550 2338 
Q 4550 1131 3912 565 
Q 3275 0 1925 0 
L 628 0 
L 628 4666 
z
" transform="scale(0.015625)"/>
      </defs>
      <use xlink:href="#DejaVuSans-41"/>
      <use xlink:href="#DejaVuSans-74" x="66.658203"/>
      <use xlink:href="#DejaVuSans-74" x="105.867188"/>
      <use xlink:href="#DejaVuSans-65" x="145.076172"/>
      <use xlink:href="#DejaVuSans-6e" x="206.599609"/>
      <use xlink:href="#DejaVuSans-64" x="269.978516"/>
      <use xlink:href="#DejaVuSans-61" x="333.455078"/>
      <use xlink:href="#DejaVuSans-6e" x="394.734375"/>
      <use xlink:href="#DejaVuSans-63" x="458.113281"/>
      <use xlink:href="#DejaVuSans-65" x="513.09375"/>
      <use xlink:href="#DejaVuSans-20" x="574.617188"/>
      <use xlink:href="#DejaVuSans-44" x="606.404297"/>
      <use xlink:href="#DejaVuSans-61" x="683.40625"/>
      <use xlink:href="#DejaVuSans-74" x="744.685547"/>
      <use xlink:href="#DejaVuSans-65" x="783.894531"/>
     </g>
    </g>
   </g>
   <g id="matplotlib.axis_2">
    <g id="ytick_1">
     <g id="line2d_9">
      <defs>
       <path id="mf4fd5e8394" d="M 0 0 
L -3.5 0 
" style="stroke: #000000; stroke-width: 0.8"/>
      </defs>
      <g>
       <use xlink:href="#mf4fd5e8394" x="144" y="293.78322" style="stroke: #000000; stroke-width: 0.8"/>
      </g>
     </g>
     <g id="text_10">
      <!-- 100 -->
      <g transform="translate(117.9125 297.582439) scale(0.1 -0.1)">
       <use xlink:href="#DejaVuSans-31"/>
       <use xlink:href="#DejaVuSans-30" x="63.623047"/>
       <use xlink:href="#DejaVuSans-30" x="127.246094"/>
      </g>
     </g>
    </g>
    <g id="ytick_2">
     <g id="line2d_10">
      <g>
       <use xlink:href="#mf4fd5e8394" x="144" y="230.979332" style="stroke: #000000; stroke-width: 0.8"/>
      </g>
     </g>
     <g id="text_11">
      <!-- 200 -->
      <g transform="translate(117.9125 234.77855) scale(0.1 -0.1)">
       <use xlink:href="#DejaVuSans-32"/>
       <use xlink:href="#DejaVuSans-30" x="63.623047"/>
       <use xlink:href="#DejaVuSans-30" x="127.246094"/>
      </g>
     </g>
    </g>
    <g id="ytick_3">
     <g id="line2d_11">
      <g>
       <use xlink:href="#mf4fd5e8394" x="144" y="168.175443" style="stroke: #000000; stroke-width: 0.8"/>
      </g>
     </g>
     <g id="text_12">
      <!-- 300 -->
      <g transform="translate(117.9125 171.974662) scale(0.1 -0.1)">
       <use xlink:href="#DejaVuSans-33"/>
       <use xlink:href="#DejaVuSans-30" x="63.623047"/>
       <use xlink:href="#DejaVuSans-30" x="127.246094"/>
      </g>
     </g>
    </g>
    <g id="ytick_4">
     <g id="line2d_12">
      <g>
       <use xlink:href="#mf4fd5e8394" x="144" y="105.371555" style="stroke: #000000; stroke-width: 0.8"/>
      </g>
     </g>
     <g id="text_13">
      <!-- 400 -->
      <g transform="translate(117.9125 109.170774) scale(0.1 -0.1)">
       <use xlink:href="#DejaVuSans-34"/>
       <use xlink:href="#DejaVuSans-30" x="63.623047"/>
       <use xlink:href="#DejaVuSans-30" x="127.246094"/>
      </g>
     </g>
    </g>
    <g id="text_14">
     <!-- uACR -->
     <g transform="translate(111.832812 212.187187) rotate(-90) scale(0.1 -0.1)">
      <defs>
       <path id="DejaVuSans-75" d="M 544 1381 
L 544 3500 
L 1119 3500 
L 1119 1403 
Q 1119 906 1312 657 
Q 1506 409 1894 409 
Q 2359 409 2629 706 
Q 2900 1003 2900 1516 
L 2900 3500 
L 3475 3500 
L 3475 0 
L 2900 0 
L 2900 538 
Q 2691 219 2414 64 
Q 2138 -91 1772 -91 
Q 1169 -91 856 284 
Q 544 659 544 1381 
z
M 1991 3584 
L 1991 3584 
z
" transform="scale(0.015625)"/>
       <path id="DejaVuSans-43" d="M 4122 4306 
L 4122 3641 
Q 3803 3938 3442 4084 
Q 3081 4231 2675 4231 
Q 1875 4231 1450 3742 
Q 1025 3253 1025 2328 
Q 1025 1406 1450 917 
Q 1875 428 2675 428 
Q 3081 428 3442 575 
Q 3803 722 4122 1019 
L 4122 359 
Q 3791 134 3420 21 
Q 3050 -91 2638 -91 
Q 1578 -91 968 557 
Q 359 1206 359 2328 
Q 359 3453 968 4101 
Q 1578 4750 2638 4750 
Q 3056 4750 3426 4639 
Q 3797 4528 4122 4306 
z
" transform="scale(0.015625)"/>
       <path id="DejaVuSans-52" d="M 2841 2188 
Q 3044 2119 3236 1894 
Q 3428 1669 3622 1275 
L 4263 0 
L 3584 0 
L 2988 1197 
Q 2756 1666 2539 1819 
Q 2322 1972 1947 1972 
L 1259 1972 
L 1259 0 
L 628 0 
L 628 4666 
L 2053 4666 
Q 2853 4666 3247 4331 
Q 3641 3997 3641 3322 
Q 3641 2881 3436 2590 
Q 3231 2300 2841 2188 
z
M 1259 4147 
L 1259 2491 
L 2053 2491 
Q 2509 2491 2742 2702 
Q 2975 2913 2975 3322 
Q 2975 3731 2742 3939 
Q 2509 4147 2053 4147 
L 1259 4147 
z
" transform="scale(0.015625)"/>
      </defs>
      <use xlink:href="#DejaVuSans-75"/>
      <use xlink:href="#DejaVuSans-41" x="63.378906"/>
      <use xlink:href="#DejaVuSans-43" x="130.037109"/>
      <use xlink:href="#DejaVuSans-52" x="199.861328"/>
     </g>
    </g>
   </g>
   <g id="line2d_13">
    <path d="M 184.581818 90.560904 
L 186.863527 65.192727 
L 187.189485 68.548115 
L 189.145235 96.004268 
L 193.708653 106.642199 
L 195.990361 102.978647 
L 198.27207 130.04272 
L 200.553779 129.636487 
L 202.835487 173.25759 
L 207.398905 193.548596 
L 209.680613 190.825683 
L 211.962322 188.314458 
L 214.244031 185.991181 
L 216.525739 170.168616 
L 218.807448 175.226777 
L 221.089157 196.638606 
L 223.370865 192.625343 
L 225.652574 181.620079 
L 227.934283 167.084007 
L 230.215991 142.081034 
L 232.4977 151.4183 
L 234.779409 187.236101 
L 237.061117 171.351885 
L 239.342826 179.167233 
L 241.624535 206.86355 
L 243.906243 187.098035 
L 248.46966 187.254286 
L 257.596495 204.018292 
L 259.878204 213.66482 
L 262.159912 201.26363 
L 266.72333 227.422045 
L 273.568456 138.92584 
L 275.850164 132.181532 
L 278.131873 135.586594 
L 280.413582 134.28048 
L 282.69529 151.244332 
L 287.258708 150.213064 
L 289.540416 112.158264 
L 291.170208 129.555992 
L 291.822125 129.936819 
L 294.103834 157.241001 
L 296.385542 154.091048 
L 300.623001 224.017286 
L 300.948959 246.420933 
L 303.230668 268.76712 
L 305.512377 271.790669 
L 307.794085 273.104409 
L 310.075794 266.010223 
L 312.357503 252.772125 
L 313.987295 290.882762 
L 314.639211 276.489065 
L 316.92092 277.16906 
L 321.484337 277.493382 
L 322.136254 280.179551 
L 323.114129 227.226999 
L 325.395838 222.829676 
L 326.047755 225.670918 
L 327.677547 216.160535 
L 328.329463 191.016064 
L 329.959255 212.277297 
L 330.611172 200.010732 
L 332.240964 119.386118 
L 332.892881 133.72991 
L 335.174589 133.806267 
L 336.804381 129.169649 
L 337.456298 129.614441 
L 339.08609 165.895045 
L 339.738007 152.229815 
L 341.367798 148.180882 
L 342.019715 158.354865 
L 343.649507 160.595963 
L 343.975465 164.823435 
L 345.931216 186.121513 
L 346.583133 266.754329 
L 348.212924 265.453609 
L 348.864841 256.85721 
L 351.14655 261.564234 
L 352.776342 260.608113 
L 353.428258 276.204164 
L 355.05805 299.10398 
L 357.339759 296.415468 
L 357.991676 290.153959 
L 358.317634 311.345467 
L 359.621468 303.080744 
L 360.273384 308.419801 
L 362.555093 296.500253 
L 364.184885 296.654733 
L 366.466594 304.186821 
L 367.11851 301.648263 
L 369.400219 299.92799 
L 371.030011 291.523289 
L 371.681928 297.171099 
L 373.963636 298.763744 
L 375.593428 295.071408 
L 377.875137 282.341849 
L 378.527054 287.316612 
L 378.853012 274.229545 
L 380.156846 282.433315 
L 382.438554 283.087899 
L 383.090471 280.006092 
L 384.720263 267.944403 
L 387.001972 270.075334 
L 387.653888 265.573647 
L 388.305805 269.146013 
L 391.565389 265.280581 
L 392.217306 271.210338 
L 393.847097 284.854639 
L 396.128806 288.205241 
L 399.062432 242.960511 
L 400.692223 232.717132 
L 403.625849 212.59234 
L 409.819058 229.195427 
L 412.752683 229.337803 
L 414.708434 242.659322 
L 416.664184 239.737157 
L 418.945893 231.987753 
L 421.227601 230.547202 
L 423.50931 231.098022 
L 426.442935 228.80457 
L 428.072727 285.371523 
L 431.006353 273.312717 
L 434.917853 243.440316 
L 435.56977 228.311728 
L 437.199562 228.794578 
L 441.762979 224.235783 
L 444.044688 227.270998 
L 444.696605 241.349852 
L 446.326396 235.573272 
L 451.541731 210.295103 
L 453.823439 212.776379 
L 456.105148 213.902191 
L 462.298357 194.938307 
L 462.950274 218.367376 
L 464.580066 246.31391 
L 469.7954 263.738153 
L 472.077108 262.716398 
L 473.7069 265.59053 
L 474.358817 253.702779 
L 476.640526 256.530885 
L 478.270318 243.470098 
L 481.203943 229.489118 
L 483.485652 214.379769 
L 485.115444 198.899574 
L 485.76736 239.319662 
L 488.049069 221.750652 
L 489.678861 215.453174 
L 490.330778 205.999455 
L 490.656736 205.319314 
L 491.96057 207.020222 
L 492.612486 218.914066 
L 494.242278 216.949796 
L 494.894195 238.870552 
L 497.175904 274.014623 
L 500.109529 284.920263 
L 503.369113 296.197164 
L 504.02103 295.395112 
L 507.93253 311.964158 
L 510.214239 320.172265 
L 513.147864 329.418438 
L 514.777656 324.614314 
L 517.385323 310.005528 
L 522.274699 296.882121 
L 523.904491 282.709851 
L 524.556407 283.644392 
L 526.186199 287.950806 
L 526.838116 292.114689 
L 529.119825 298.685688 
L 530.749617 297.791521 
L 533.031325 283.946356 
L 533.683242 276.202277 
L 535.313034 271.253958 
L 537.594743 286.417051 
L 547.373494 299.522679 
L 551.936911 300.408195 
L 553.566703 302.369293 
L 554.21862 302.343358 
L 561.063746 302.235755 
L 562.693538 283.214203 
L 564.975246 276.461626 
L 565.627163 267.943679 
L 567.256955 271.433443 
L 567.908872 276.446737 
L 569.538664 286.45036 
L 570.190581 285.602892 
L 571.820372 285.736323 
L 572.472289 292.346362 
L 577.035706 279.386959 
L 579.317415 273.983956 
L 580.947207 273.313668 
L 599.852793 262.866916 
L 602.134502 227.610589 
L 603.764294 235.692112 
L 606.697919 223.614055 
L 608.327711 224.716786 
L 608.979628 225.628852 
L 611.261336 165.629338 
L 612.891128 163.002306 
L 615.824754 162.995923 
L 617.454545 175.731583 
L 620.388171 181.14426 
L 622.66988 181.995807 
L 626.58138 211.484027 
L 627.233297 238.868984 
L 628.863089 236.057045 
L 633.426506 258.499248 
L 635.708215 260.396053 
L 638.64184 259.663383 
L 640.271632 308.888064 
L 640.923549 311.50734 
L 642.553341 320.18154 
L 644.835049 312.326287 
L 649.398467 307.888838 
L 650.050383 307.469753 
L 651.680175 305.090837 
L 654.613801 320.157743 
L 656.243593 312.451424 
L 656.895509 296.444761 
L 660.80701 296.395288 
L 661.458927 296.593193 
L 663.088719 304.379842 
L 665.370427 289.689134 
L 666.022344 287.614419 
L 667.652136 295.389283 
L 668.304053 296.819154 
L 673.519387 276.907536 
L 675.149179 256.295991 
L 679.060679 256.149775 
L 679.712596 263.88424 
L 685.905805 264.09303 
L 686.557722 265.093451 
L 688.187514 262.614774 
L 688.83943 274.816827 
L 690.469222 269.77438 
L 693.402848 264.719612 
L 695.03264 267.651358 
L 697.314348 255.532619 
L 701.877766 271.031442 
L 708.722892 270.843087 
L 713.938226 261.382382 
L 715.568018 272.467983 
L 716.219934 254.726696 
L 718.501643 253.167964 
L 722.413143 256.638516 
L 723.06506 237.155492 
L 724.694852 234.414459 
L 736.103395 237.972462 
L 736.755312 238.035631 
L 745.882147 267.474511 
L 748.163855 267.754301 
L 749.793647 282.287911 
L 754.357065 287.110737 
L 755.008981 296.858775 
L 757.29069 298.319221 
L 759.572399 301.368058 
L 763.483899 323.30167 
L 768.047317 325.877691 
L 768.699233 324.788751 
L 770.329025 324.795089 
L 779.45586 327.833744 
L 780.107777 327.581066 
L 789.234611 327.966608 
L 800.969113 326.357472 
L 802.272946 332.247273 
L 804.554655 332.109497 
L 812.051698 324.575921 
L 813.68149 324.579572 
L 814.333406 315.896746 
L 818.244907 318.691875 
L 834.868784 318.787161 
L 837.150493 324.74086 
L 838.780285 312.518077 
L 841.71391 299.586637 
L 843.343702 300.101806 
L 843.995619 300.774646 
L 850.840745 285.468368 
L 854.752245 280.211948 
L 868.442497 287.670035 
L 869.094414 283.523338 
L 887.348083 294.747986 
L 888.977875 288.615641 
L 889.303834 288.571159 
L 889.629792 282.126227 
L 891.911501 294.601688 
L 893.541292 304.923849 
L 894.193209 294.862689 
L 895.823001 295.062293 
L 896.474918 303.334566 
L 898.756627 300.584247 
L 901.038335 299.416777 
L 902.668127 291.72142 
L 903.320044 296.142779 
L 907.883461 297.739705 
L 910.16517 296.909038 
L 915.054545 299.566742 
L 917.336254 268.479476 
L 918.966046 270.929735 
L 921.573713 242.328869 
L 924.18138 242.407069 
L 932.982256 215.723925 
L 935.263965 221.693179 
L 936.893757 222.582791 
L 941.457174 234.165158 
L 944.064841 233.748571 
L 944.3908 238.276302 
L 948.954217 238.012236 
L 955.473384 242.814936 
L 955.799343 269.475686 
L 957.755093 257.82168 
L 959.710843 290.907267 
L 960.36276 289.819385 
L 962.644469 298.051287 
L 967.207886 300.344442 
L 969.815553 300.674042 
L 971.771303 288.47714 
L 974.053012 289.220513 
L 976.334721 283.618933 
L 980.898138 284.956488 
L 983.179847 285.328562 
L 984.809639 279.746541 
L 987.091347 278.388316 
L 990.024973 279.389936 
L 994.262432 306.197394 
L 996.218182 306.206681 
L 996.218182 306.206681 
" clip-path="url(#p838496dde9)" style="fill: none; stroke: #1f77b4; stroke-width: 1.5; stroke-linecap: square"/>
   </g>
   <g id="patch_3">
    <path d="M 144 345.6 
L 144 51.84 
" style="fill: none; stroke: #000000; stroke-width: 0.8; stroke-linejoin: miter; stroke-linecap: square"/>
   </g>
   <g id="patch_4">
    <path d="M 1036.8 345.6 
L 1036.8 51.84 
" style="fill: none; stroke: #000000; stroke-width: 0.8; stroke-linejoin: miter; stroke-linecap: square"/>
   </g>
   <g id="patch_5">
    <path d="M 144 345.6 
L 1036.8 345.6 
" style="fill: none; stroke: #000000; stroke-width: 0.8; stroke-linejoin: miter; stroke-linecap: square"/>
   </g>
   <g id="patch_6">
    <path d="M 144 51.84 
L 1036.8 51.84 
" style="fill: none; stroke: #000000; stroke-width: 0.8; stroke-linejoin: miter; stroke-linecap: square"/>
   </g>
   <g id="text_15">
    <!-- UACR by Year of Attendance - 12 Month Rolling Window -->
    <g transform="translate(423.720937 45.84) scale(0.12 -0.12)">
     <defs>
      <path id="DejaVuSans-55" d="M 556 4666 
L 1191 4666 
L 1191 1831 
Q 1191 1081 1462 751 
Q 1734 422 2344 422 
Q 2950 422 3222 751 
Q 3494 1081 3494 1831 
L 3494 4666 
L 4128 4666 
L 4128 1753 
Q 4128 841 3676 375 
Q 3225 -91 2344 -91 
Q 1459 -91 1007 375 
Q 556 841 556 1753 
L 556 4666 
z
" transform="scale(0.015625)"/>
      <path id="DejaVuSans-62" d="M 3116 1747 
Q 3116 2381 2855 2742 
Q 2594 3103 2138 3103 
Q 1681 3103 1420 2742 
Q 1159 2381 1159 1747 
Q 1159 1113 1420 752 
Q 1681 391 2138 391 
Q 2594 391 2855 752 
Q 3116 1113 3116 1747 
z
M 1159 2969 
Q 1341 3281 1617 3432 
Q 1894 3584 2278 3584 
Q 2916 3584 3314 3078 
Q 3713 2572 3713 1747 
Q 3713 922 3314 415 
Q 2916 -91 2278 -91 
Q 1894 -91 1617 61 
Q 1341 213 1159 525 
L 1159 0 
L 581 0 
L 581 4863 
L 1159 4863 
L 1159 2969 
z
" transform="scale(0.015625)"/>
      <path id="DejaVuSans-79" d="M 2059 -325 
Q 1816 -950 1584 -1140 
Q 1353 -1331 966 -1331 
L 506 -1331 
L 506 -850 
L 844 -850 
Q 1081 -850 1212 -737 
Q 1344 -625 1503 -206 
L 1606 56 
L 191 3500 
L 800 3500 
L 1894 763 
L 2988 3500 
L 3597 3500 
L 2059 -325 
z
" transform="scale(0.015625)"/>
      <path id="DejaVuSans-59" d="M -13 4666 
L 666 4666 
L 1959 2747 
L 3244 4666 
L 3922 4666 
L 2272 2222 
L 2272 0 
L 1638 0 
L 1638 2222 
L -13 4666 
z
" transform="scale(0.015625)"/>
      <path id="DejaVuSans-72" d="M 2631 2963 
Q 2534 3019 2420 3045 
Q 2306 3072 2169 3072 
Q 1681 3072 1420 2755 
Q 1159 2438 1159 1844 
L 1159 0 
L 581 0 
L 581 3500 
L 1159 3500 
L 1159 2956 
Q 1341 3275 1631 3429 
Q 1922 3584 2338 3584 
Q 2397 3584 2469 3576 
Q 2541 3569 2628 3553 
L 2631 2963 
z
" transform="scale(0.015625)"/>
      <path id="DejaVuSans-6f" d="M 1959 3097 
Q 1497 3097 1228 2736 
Q 959 2375 959 1747 
Q 959 1119 1226 758 
Q 1494 397 1959 397 
Q 2419 397 2687 759 
Q 2956 1122 2956 1747 
Q 2956 2369 2687 2733 
Q 2419 3097 1959 3097 
z
M 1959 3584 
Q 2709 3584 3137 3096 
Q 3566 2609 3566 1747 
Q 3566 888 3137 398 
Q 2709 -91 1959 -91 
Q 1206 -91 779 398 
Q 353 888 353 1747 
Q 353 2609 779 3096 
Q 1206 3584 1959 3584 
z
" transform="scale(0.015625)"/>
      <path id="DejaVuSans-66" d="M 2375 4863 
L 2375 4384 
L 1825 4384 
Q 1516 4384 1395 4259 
Q 1275 4134 1275 3809 
L 1275 3500 
L 2222 3500 
L 2222 3053 
L 1275 3053 
L 1275 0 
L 697 0 
L 697 3053 
L 147 3053 
L 147 3500 
L 697 3500 
L 697 3744 
Q 697 4328 969 4595 
Q 1241 4863 1831 4863 
L 2375 4863 
z
" transform="scale(0.015625)"/>
      <path id="DejaVuSans-2d" d="M 313 2009 
L 1997 2009 
L 1997 1497 
L 313 1497 
L 313 2009 
z
" transform="scale(0.015625)"/>
      <path id="DejaVuSans-4d" d="M 628 4666 
L 1569 4666 
L 2759 1491 
L 3956 4666 
L 4897 4666 
L 4897 0 
L 4281 0 
L 4281 4097 
L 3078 897 
L 2444 897 
L 1241 4097 
L 1241 0 
L 628 0 
L 628 4666 
z
" transform="scale(0.015625)"/>
      <path id="DejaVuSans-68" d="M 3513 2113 
L 3513 0 
L 2938 0 
L 2938 2094 
Q 2938 2591 2744 2837 
Q 2550 3084 2163 3084 
Q 1697 3084 1428 2787 
Q 1159 2491 1159 1978 
L 1159 0 
L 581 0 
L 581 4863 
L 1159 4863 
L 1159 2956 
Q 1366 3272 1645 3428 
Q 1925 3584 2291 3584 
Q 2894 3584 3203 3211 
Q 3513 2838 3513 2113 
z
" transform="scale(0.015625)"/>
      <path id="DejaVuSans-6c" d="M 603 4863 
L 1178 4863 
L 1178 0 
L 603 0 
L 603 4863 
z
" transform="scale(0.015625)"/>
      <path id="DejaVuSans-69" d="M 603 3500 
L 1178 3500 
L 1178 0 
L 603 0 
L 603 3500 
z
M 603 4863 
L 1178 4863 
L 1178 4134 
L 603 4134 
L 603 4863 
z
" transform="scale(0.015625)"/>
      <path id="DejaVuSans-67" d="M 2906 1791 
Q 2906 2416 2648 2759 
Q 2391 3103 1925 3103 
Q 1463 3103 1205 2759 
Q 947 2416 947 1791 
Q 947 1169 1205 825 
Q 1463 481 1925 481 
Q 2391 481 2648 825 
Q 2906 1169 2906 1791 
z
M 3481 434 
Q 3481 -459 3084 -895 
Q 2688 -1331 1869 -1331 
Q 1566 -1331 1297 -1286 
Q 1028 -1241 775 -1147 
L 775 -588 
Q 1028 -725 1275 -790 
Q 1522 -856 1778 -856 
Q 2344 -856 2625 -561 
Q 2906 -266 2906 331 
L 2906 616 
Q 2728 306 2450 153 
Q 2172 0 1784 0 
Q 1141 0 747 490 
Q 353 981 353 1791 
Q 353 2603 747 3093 
Q 1141 3584 1784 3584 
Q 2172 3584 2450 3431 
Q 2728 3278 2906 2969 
L 2906 3500 
L 3481 3500 
L 3481 434 
z
" transform="scale(0.015625)"/>
      <path id="DejaVuSans-57" d="M 213 4666 
L 850 4666 
L 1831 722 
L 2809 4666 
L 3519 4666 
L 4500 722 
L 5478 4666 
L 6119 4666 
L 4947 0 
L 4153 0 
L 3169 4050 
L 2175 0 
L 1381 0 
L 213 4666 
z
" transform="scale(0.015625)"/>
      <path id="DejaVuSans-77" d="M 269 3500 
L 844 3500 
L 1563 769 
L 2278 3500 
L 2956 3500 
L 3675 769 
L 4391 3500 
L 4966 3500 
L 4050 0 
L 3372 0 
L 2619 2869 
L 1863 0 
L 1184 0 
L 269 3500 
z
" transform="scale(0.015625)"/>
     </defs>
     <use xlink:href="#DejaVuSans-55"/>
     <use xlink:href="#DejaVuSans-41" x="73.193359"/>
     <use xlink:href="#DejaVuSans-43" x="139.851562"/>
     <use xlink:href="#DejaVuSans-52" x="209.675781"/>
     <use xlink:href="#DejaVuSans-20" x="279.158203"/>
     <use xlink:href="#DejaVuSans-62" x="310.945312"/>
     <use xlink:href="#DejaVuSans-79" x="374.421875"/>
     <use xlink:href="#DejaVuSans-20" x="433.601562"/>
     <use xlink:href="#DejaVuSans-59" x="465.388672"/>
     <use xlink:href="#DejaVuSans-65" x="513.222656"/>
     <use xlink:href="#DejaVuSans-61" x="574.746094"/>
     <use xlink:href="#DejaVuSans-72" x="636.025391"/>
     <use xlink:href="#DejaVuSans-20" x="677.138672"/>
     <use xlink:href="#DejaVuSans-6f" x="708.925781"/>
     <use xlink:href="#DejaVuSans-66" x="770.107422"/>
     <use xlink:href="#DejaVuSans-20" x="805.3125"/>
     <use xlink:href="#DejaVuSans-41" x="837.099609"/>
     <use xlink:href="#DejaVuSans-74" x="903.757812"/>
     <use xlink:href="#DejaVuSans-74" x="942.966797"/>
     <use xlink:href="#DejaVuSans-65" x="982.175781"/>
     <use xlink:href="#DejaVuSans-6e" x="1043.699219"/>
     <use xlink:href="#DejaVuSans-64" x="1107.078125"/>
     <use xlink:href="#DejaVuSans-61" x="1170.554688"/>
     <use xlink:href="#DejaVuSans-6e" x="1231.833984"/>
     <use xlink:href="#DejaVuSans-63" x="1295.212891"/>
     <use xlink:href="#DejaVuSans-65" x="1350.193359"/>
     <use xlink:href="#DejaVuSans-20" x="1411.716797"/>
     <use xlink:href="#DejaVuSans-2d" x="1443.503906"/>
     <use xlink:href="#DejaVuSans-20" x="1479.587891"/>
     <use xlink:href="#DejaVuSans-31" x="1511.375"/>
     <use xlink:href="#DejaVuSans-32" x="1574.998047"/>
     <use xlink:href="#DejaVuSans-20" x="1638.621094"/>
     <use xlink:href="#DejaVuSans-4d" x="1670.408203"/>
     <use xlink:href="#DejaVuSans-6f" x="1756.6875"/>
     <use xlink:href="#DejaVuSans-6e" x="1817.869141"/>
     <use xlink:href="#DejaVuSans-74" x="1881.248047"/>
     <use xlink:href="#DejaVuSans-68" x="1920.457031"/>
     <use xlink:href="#DejaVuSans-20" x="1983.835938"/>
     <use xlink:href="#DejaVuSans-52" x="2015.623047"/>
     <use xlink:href="#DejaVuSans-6f" x="2080.605469"/>
     <use xlink:href="#DejaVuSans-6c" x="2141.787109"/>
     <use xlink:href="#DejaVuSans-6c" x="2169.570312"/>
     <use xlink:href="#DejaVuSans-69" x="2197.353516"/>
     <use xlink:href="#DejaVuSans-6e" x="2225.136719"/>
     <use xlink:href="#DejaVuSans-67" x="2288.515625"/>
     <use xlink:href="#DejaVuSans-20" x="2351.992188"/>
     <use xlink:href="#DejaVuSans-57" x="2383.779297"/>
     <use xlink:href="#DejaVuSans-69" x="2480.40625"/>
     <use xlink:href="#DejaVuSans-6e" x="2508.189453"/>
     <use xlink:href="#DejaVuSans-64" x="2571.568359"/>
     <use xlink:href="#DejaVuSans-6f" x="2635.044922"/>
     <use xlink:href="#DejaVuSans-77" x="2696.226562"/>
    </g>
   </g>
  </g>
 </g>
 <defs>
  <clipPath id="p838496dde9">
   <rect x="144" y="51.84" width="892.8" height="293.76"/>
  </clipPath>
 </defs>
</svg>
