<?xml version="1.0" encoding="utf-8" standalone="no"?>
<!DOCTYPE svg PUBLIC "-//W3C//DTD SVG 1.1//EN"
  "http://www.w3.org/Graphics/SVG/1.1/DTD/svg11.dtd">
<svg xmlns:xlink="http://www.w3.org/1999/xlink" width="352.480864pt" height="367.114375pt" viewBox="0 0 352.480864 367.114375" xmlns="http://www.w3.org/2000/svg" version="1.1">
 <metadata>
  <rdf:RDF xmlns:dc="http://purl.org/dc/elements/1.1/" xmlns:cc="http://creativecommons.org/ns#" xmlns:rdf="http://www.w3.org/1999/02/22-rdf-syntax-ns#">
   <cc:Work>
    <dc:type rdf:resource="http://purl.org/dc/dcmitype/StillImage"/>
    <dc:date>2024-04-20T09:16:22.369105</dc:date>
    <dc:format>image/svg+xml</dc:format>
    <dc:creator>
     <cc:Agent>
      <dc:title>Matplotlib v3.7.2, https://matplotlib.org/</dc:title>
     </cc:Agent>
    </dc:creator>
   </cc:Work>
  </rdf:RDF>
 </metadata>
 <defs>
  <style type="text/css">*{stroke-linejoin: round; stroke-linecap: butt}</style>
 </defs>
 <g id="figure_1">
  <g id="patch_1">
   <path d="M 0 367.114375 
L 352.480864 367.114375 
L 352.480864 0 
L 0 0 
z
" style="fill: #ffffff"/>
  </g>
  <g id="axes_1">
   <g id="patch_2">
    <path d="M 46.965625 329.558125 
L 336.0028 329.558125 
L 336.0028 22.318125 
L 46.965625 22.318125 
z
" style="fill: #ffffff"/>
   </g>
   <g id="patch_3">
    <path d="M 60.103678 329.558125 
L 63.967812 329.558125 
L 63.967812 36.948601 
L 60.103678 36.948601 
z
" clip-path="url(#p3c09c5aa63)" style="fill: #1f77b4; fill-opacity: 0.5; stroke: #000000; stroke-width: 0.411103; stroke-linejoin: miter"/>
   </g>
   <g id="patch_4">
    <path d="M 63.967812 329.558125 
L 67.831945 329.558125 
L 67.831945 273.258571 
L 63.967812 273.258571 
z
" clip-path="url(#p3c09c5aa63)" style="fill: #1f77b4; fill-opacity: 0.5; stroke: #000000; stroke-width: 0.411103; stroke-linejoin: miter"/>
   </g>
   <g id="patch_5">
    <path d="M 67.831945 329.558125 
L 71.696078 329.558125 
L 71.696078 294.741296 
L 67.831945 294.741296 
z
" clip-path="url(#p3c09c5aa63)" style="fill: #1f77b4; fill-opacity: 0.5; stroke: #000000; stroke-width: 0.411103; stroke-linejoin: miter"/>
   </g>
   <g id="patch_6">
    <path d="M 71.696078 329.558125 
L 75.560212 329.558125 
L 75.560212 311.038535 
L 71.696078 311.038535 
z
" clip-path="url(#p3c09c5aa63)" style="fill: #1f77b4; fill-opacity: 0.5; stroke: #000000; stroke-width: 0.411103; stroke-linejoin: miter"/>
   </g>
   <g id="patch_7">
    <path d="M 75.560212 329.558125 
L 79.424345 329.558125 
L 79.424345 311.038535 
L 75.560212 311.038535 
z
" clip-path="url(#p3c09c5aa63)" style="fill: #1f77b4; fill-opacity: 0.5; stroke: #000000; stroke-width: 0.411103; stroke-linejoin: miter"/>
   </g>
   <g id="patch_8">
    <path d="M 79.424345 329.558125 
L 83.288478 329.558125 
L 83.288478 314.001669 
L 79.424345 314.001669 
z
" clip-path="url(#p3c09c5aa63)" style="fill: #1f77b4; fill-opacity: 0.5; stroke: #000000; stroke-width: 0.411103; stroke-linejoin: miter"/>
   </g>
   <g id="patch_9">
    <path d="M 83.288478 329.558125 
L 87.152612 329.558125 
L 87.152612 314.742453 
L 83.288478 314.742453 
z
" clip-path="url(#p3c09c5aa63)" style="fill: #1f77b4; fill-opacity: 0.5; stroke: #000000; stroke-width: 0.411103; stroke-linejoin: miter"/>
   </g>
   <g id="patch_10">
    <path d="M 87.152612 329.558125 
L 91.016745 329.558125 
L 91.016745 318.446371 
L 87.152612 318.446371 
z
" clip-path="url(#p3c09c5aa63)" style="fill: #1f77b4; fill-opacity: 0.5; stroke: #000000; stroke-width: 0.411103; stroke-linejoin: miter"/>
   </g>
   <g id="patch_11">
    <path d="M 91.016745 329.558125 
L 94.880879 329.558125 
L 94.880879 317.705587 
L 91.016745 317.705587 
z
" clip-path="url(#p3c09c5aa63)" style="fill: #1f77b4; fill-opacity: 0.5; stroke: #000000; stroke-width: 0.411103; stroke-linejoin: miter"/>
   </g>
   <g id="patch_12">
    <path d="M 94.880879 329.558125 
L 98.745012 329.558125 
L 98.745012 323.631856 
L 94.880879 323.631856 
z
" clip-path="url(#p3c09c5aa63)" style="fill: #1f77b4; fill-opacity: 0.5; stroke: #000000; stroke-width: 0.411103; stroke-linejoin: miter"/>
   </g>
   <g id="patch_13">
    <path d="M 98.745012 329.558125 
L 102.609145 329.558125 
L 102.609145 322.150289 
L 98.745012 322.150289 
z
" clip-path="url(#p3c09c5aa63)" style="fill: #1f77b4; fill-opacity: 0.5; stroke: #000000; stroke-width: 0.411103; stroke-linejoin: miter"/>
   </g>
   <g id="patch_14">
    <path d="M 102.609145 329.558125 
L 106.473279 329.558125 
L 106.473279 320.668722 
L 102.609145 320.668722 
z
" clip-path="url(#p3c09c5aa63)" style="fill: #1f77b4; fill-opacity: 0.5; stroke: #000000; stroke-width: 0.411103; stroke-linejoin: miter"/>
   </g>
   <g id="patch_15">
    <path d="M 106.473279 329.558125 
L 110.337412 329.558125 
L 110.337412 325.854207 
L 106.473279 325.854207 
z
" clip-path="url(#p3c09c5aa63)" style="fill: #1f77b4; fill-opacity: 0.5; stroke: #000000; stroke-width: 0.411103; stroke-linejoin: miter"/>
   </g>
   <g id="patch_16">
    <path d="M 110.337412 329.558125 
L 114.201545 329.558125 
L 114.201545 322.150289 
L 110.337412 322.150289 
z
" clip-path="url(#p3c09c5aa63)" style="fill: #1f77b4; fill-opacity: 0.5; stroke: #000000; stroke-width: 0.411103; stroke-linejoin: miter"/>
   </g>
   <g id="patch_17">
    <path d="M 114.201545 329.558125 
L 118.065679 329.558125 
L 118.065679 326.594991 
L 114.201545 326.594991 
z
" clip-path="url(#p3c09c5aa63)" style="fill: #1f77b4; fill-opacity: 0.5; stroke: #000000; stroke-width: 0.411103; stroke-linejoin: miter"/>
   </g>
   <g id="patch_18">
    <path d="M 118.065679 329.558125 
L 121.929812 329.558125 
L 121.929812 321.409505 
L 118.065679 321.409505 
z
" clip-path="url(#p3c09c5aa63)" style="fill: #1f77b4; fill-opacity: 0.5; stroke: #000000; stroke-width: 0.411103; stroke-linejoin: miter"/>
   </g>
   <g id="patch_19">
    <path d="M 121.929812 329.558125 
L 125.793945 329.558125 
L 125.793945 325.113423 
L 121.929812 325.113423 
z
" clip-path="url(#p3c09c5aa63)" style="fill: #1f77b4; fill-opacity: 0.5; stroke: #000000; stroke-width: 0.411103; stroke-linejoin: miter"/>
   </g>
   <g id="patch_20">
    <path d="M 125.793945 329.558125 
L 129.658079 329.558125 
L 129.658079 327.335774 
L 125.793945 327.335774 
z
" clip-path="url(#p3c09c5aa63)" style="fill: #1f77b4; fill-opacity: 0.5; stroke: #000000; stroke-width: 0.411103; stroke-linejoin: miter"/>
   </g>
   <g id="patch_21">
    <path d="M 129.658079 329.558125 
L 133.522212 329.558125 
L 133.522212 327.335774 
L 129.658079 327.335774 
z
" clip-path="url(#p3c09c5aa63)" style="fill: #1f77b4; fill-opacity: 0.5; stroke: #000000; stroke-width: 0.411103; stroke-linejoin: miter"/>
   </g>
   <g id="patch_22">
    <path d="M 133.522212 329.558125 
L 137.386345 329.558125 
L 137.386345 328.076558 
L 133.522212 328.076558 
z
" clip-path="url(#p3c09c5aa63)" style="fill: #1f77b4; fill-opacity: 0.5; stroke: #000000; stroke-width: 0.411103; stroke-linejoin: miter"/>
   </g>
   <g id="patch_23">
    <path d="M 137.386345 329.558125 
L 141.250479 329.558125 
L 141.250479 327.335774 
L 137.386345 327.335774 
z
" clip-path="url(#p3c09c5aa63)" style="fill: #1f77b4; fill-opacity: 0.5; stroke: #000000; stroke-width: 0.411103; stroke-linejoin: miter"/>
   </g>
   <g id="patch_24">
    <path d="M 141.250479 329.558125 
L 145.114612 329.558125 
L 145.114612 328.076558 
L 141.250479 328.076558 
z
" clip-path="url(#p3c09c5aa63)" style="fill: #1f77b4; fill-opacity: 0.5; stroke: #000000; stroke-width: 0.411103; stroke-linejoin: miter"/>
   </g>
   <g id="patch_25">
    <path d="M 145.114612 329.558125 
L 148.978745 329.558125 
L 148.978745 327.335774 
L 145.114612 327.335774 
z
" clip-path="url(#p3c09c5aa63)" style="fill: #1f77b4; fill-opacity: 0.5; stroke: #000000; stroke-width: 0.411103; stroke-linejoin: miter"/>
   </g>
   <g id="patch_26">
    <path d="M 148.978745 329.558125 
L 152.842879 329.558125 
L 152.842879 329.558125 
L 148.978745 329.558125 
z
" clip-path="url(#p3c09c5aa63)" style="fill: #1f77b4; fill-opacity: 0.5; stroke: #000000; stroke-width: 0.411103; stroke-linejoin: miter"/>
   </g>
   <g id="patch_27">
    <path d="M 152.842879 329.558125 
L 156.707012 329.558125 
L 156.707012 326.594991 
L 152.842879 326.594991 
z
" clip-path="url(#p3c09c5aa63)" style="fill: #1f77b4; fill-opacity: 0.5; stroke: #000000; stroke-width: 0.411103; stroke-linejoin: miter"/>
   </g>
   <g id="patch_28">
    <path d="M 156.707012 329.558125 
L 160.571146 329.558125 
L 160.571146 328.817341 
L 156.707012 328.817341 
z
" clip-path="url(#p3c09c5aa63)" style="fill: #1f77b4; fill-opacity: 0.5; stroke: #000000; stroke-width: 0.411103; stroke-linejoin: miter"/>
   </g>
   <g id="patch_29">
    <path d="M 160.571146 329.558125 
L 164.435279 329.558125 
L 164.435279 329.558125 
L 160.571146 329.558125 
z
" clip-path="url(#p3c09c5aa63)" style="fill: #1f77b4; fill-opacity: 0.5; stroke: #000000; stroke-width: 0.411103; stroke-linejoin: miter"/>
   </g>
   <g id="patch_30">
    <path d="M 164.435279 329.558125 
L 168.299412 329.558125 
L 168.299412 328.076558 
L 164.435279 328.076558 
z
" clip-path="url(#p3c09c5aa63)" style="fill: #1f77b4; fill-opacity: 0.5; stroke: #000000; stroke-width: 0.411103; stroke-linejoin: miter"/>
   </g>
   <g id="patch_31">
    <path d="M 168.299412 329.558125 
L 172.163546 329.558125 
L 172.163546 328.817341 
L 168.299412 328.817341 
z
" clip-path="url(#p3c09c5aa63)" style="fill: #1f77b4; fill-opacity: 0.5; stroke: #000000; stroke-width: 0.411103; stroke-linejoin: miter"/>
   </g>
   <g id="patch_32">
    <path d="M 172.163546 329.558125 
L 176.027679 329.558125 
L 176.027679 328.817341 
L 172.163546 328.817341 
z
" clip-path="url(#p3c09c5aa63)" style="fill: #1f77b4; fill-opacity: 0.5; stroke: #000000; stroke-width: 0.411103; stroke-linejoin: miter"/>
   </g>
   <g id="patch_33">
    <path d="M 176.027679 329.558125 
L 179.891812 329.558125 
L 179.891812 328.817341 
L 176.027679 328.817341 
z
" clip-path="url(#p3c09c5aa63)" style="fill: #1f77b4; fill-opacity: 0.5; stroke: #000000; stroke-width: 0.411103; stroke-linejoin: miter"/>
   </g>
   <g id="patch_34">
    <path d="M 179.891812 329.558125 
L 183.755946 329.558125 
L 183.755946 329.558125 
L 179.891812 329.558125 
z
" clip-path="url(#p3c09c5aa63)" style="fill: #1f77b4; fill-opacity: 0.5; stroke: #000000; stroke-width: 0.411103; stroke-linejoin: miter"/>
   </g>
   <g id="patch_35">
    <path d="M 183.755946 329.558125 
L 187.620079 329.558125 
L 187.620079 328.817341 
L 183.755946 328.817341 
z
" clip-path="url(#p3c09c5aa63)" style="fill: #1f77b4; fill-opacity: 0.5; stroke: #000000; stroke-width: 0.411103; stroke-linejoin: miter"/>
   </g>
   <g id="patch_36">
    <path d="M 187.620079 329.558125 
L 191.484212 329.558125 
L 191.484212 328.817341 
L 187.620079 328.817341 
z
" clip-path="url(#p3c09c5aa63)" style="fill: #1f77b4; fill-opacity: 0.5; stroke: #000000; stroke-width: 0.411103; stroke-linejoin: miter"/>
   </g>
   <g id="patch_37">
    <path d="M 191.484212 329.558125 
L 195.348346 329.558125 
L 195.348346 328.817341 
L 191.484212 328.817341 
z
" clip-path="url(#p3c09c5aa63)" style="fill: #1f77b4; fill-opacity: 0.5; stroke: #000000; stroke-width: 0.411103; stroke-linejoin: miter"/>
   </g>
   <g id="patch_38">
    <path d="M 195.348346 329.558125 
L 199.212479 329.558125 
L 199.212479 326.594991 
L 195.348346 326.594991 
z
" clip-path="url(#p3c09c5aa63)" style="fill: #1f77b4; fill-opacity: 0.5; stroke: #000000; stroke-width: 0.411103; stroke-linejoin: miter"/>
   </g>
   <g id="patch_39">
    <path d="M 199.212479 329.558125 
L 203.076612 329.558125 
L 203.076612 328.817341 
L 199.212479 328.817341 
z
" clip-path="url(#p3c09c5aa63)" style="fill: #1f77b4; fill-opacity: 0.5; stroke: #000000; stroke-width: 0.411103; stroke-linejoin: miter"/>
   </g>
   <g id="patch_40">
    <path d="M 203.076612 329.558125 
L 206.940746 329.558125 
L 206.940746 329.558125 
L 203.076612 329.558125 
z
" clip-path="url(#p3c09c5aa63)" style="fill: #1f77b4; fill-opacity: 0.5; stroke: #000000; stroke-width: 0.411103; stroke-linejoin: miter"/>
   </g>
   <g id="patch_41">
    <path d="M 206.940746 329.558125 
L 210.804879 329.558125 
L 210.804879 329.558125 
L 206.940746 329.558125 
z
" clip-path="url(#p3c09c5aa63)" style="fill: #1f77b4; fill-opacity: 0.5; stroke: #000000; stroke-width: 0.411103; stroke-linejoin: miter"/>
   </g>
   <g id="patch_42">
    <path d="M 210.804879 329.558125 
L 214.669012 329.558125 
L 214.669012 329.558125 
L 210.804879 329.558125 
z
" clip-path="url(#p3c09c5aa63)" style="fill: #1f77b4; fill-opacity: 0.5; stroke: #000000; stroke-width: 0.411103; stroke-linejoin: miter"/>
   </g>
   <g id="patch_43">
    <path d="M 214.669012 329.558125 
L 218.533146 329.558125 
L 218.533146 329.558125 
L 214.669012 329.558125 
z
" clip-path="url(#p3c09c5aa63)" style="fill: #1f77b4; fill-opacity: 0.5; stroke: #000000; stroke-width: 0.411103; stroke-linejoin: miter"/>
   </g>
   <g id="patch_44">
    <path d="M 218.533146 329.558125 
L 222.397279 329.558125 
L 222.397279 329.558125 
L 218.533146 329.558125 
z
" clip-path="url(#p3c09c5aa63)" style="fill: #1f77b4; fill-opacity: 0.5; stroke: #000000; stroke-width: 0.411103; stroke-linejoin: miter"/>
   </g>
   <g id="patch_45">
    <path d="M 222.397279 329.558125 
L 226.261412 329.558125 
L 226.261412 329.558125 
L 222.397279 329.558125 
z
" clip-path="url(#p3c09c5aa63)" style="fill: #1f77b4; fill-opacity: 0.5; stroke: #000000; stroke-width: 0.411103; stroke-linejoin: miter"/>
   </g>
   <g id="patch_46">
    <path d="M 226.261412 329.558125 
L 230.125546 329.558125 
L 230.125546 329.558125 
L 226.261412 329.558125 
z
" clip-path="url(#p3c09c5aa63)" style="fill: #1f77b4; fill-opacity: 0.5; stroke: #000000; stroke-width: 0.411103; stroke-linejoin: miter"/>
   </g>
   <g id="patch_47">
    <path d="M 230.125546 329.558125 
L 233.989679 329.558125 
L 233.989679 329.558125 
L 230.125546 329.558125 
z
" clip-path="url(#p3c09c5aa63)" style="fill: #1f77b4; fill-opacity: 0.5; stroke: #000000; stroke-width: 0.411103; stroke-linejoin: miter"/>
   </g>
   <g id="patch_48">
    <path d="M 233.989679 329.558125 
L 237.853813 329.558125 
L 237.853813 329.558125 
L 233.989679 329.558125 
z
" clip-path="url(#p3c09c5aa63)" style="fill: #1f77b4; fill-opacity: 0.5; stroke: #000000; stroke-width: 0.411103; stroke-linejoin: miter"/>
   </g>
   <g id="patch_49">
    <path d="M 237.853813 329.558125 
L 241.717946 329.558125 
L 241.717946 329.558125 
L 237.853813 329.558125 
z
" clip-path="url(#p3c09c5aa63)" style="fill: #1f77b4; fill-opacity: 0.5; stroke: #000000; stroke-width: 0.411103; stroke-linejoin: miter"/>
   </g>
   <g id="patch_50">
    <path d="M 241.717946 329.558125 
L 245.582079 329.558125 
L 245.582079 329.558125 
L 241.717946 329.558125 
z
" clip-path="url(#p3c09c5aa63)" style="fill: #1f77b4; fill-opacity: 0.5; stroke: #000000; stroke-width: 0.411103; stroke-linejoin: miter"/>
   </g>
   <g id="patch_51">
    <path d="M 245.582079 329.558125 
L 249.446213 329.558125 
L 249.446213 329.558125 
L 245.582079 329.558125 
z
" clip-path="url(#p3c09c5aa63)" style="fill: #1f77b4; fill-opacity: 0.5; stroke: #000000; stroke-width: 0.411103; stroke-linejoin: miter"/>
   </g>
   <g id="patch_52">
    <path d="M 249.446213 329.558125 
L 253.310346 329.558125 
L 253.310346 329.558125 
L 249.446213 329.558125 
z
" clip-path="url(#p3c09c5aa63)" style="fill: #1f77b4; fill-opacity: 0.5; stroke: #000000; stroke-width: 0.411103; stroke-linejoin: miter"/>
   </g>
   <g id="patch_53">
    <path d="M 253.310346 329.558125 
L 257.174479 329.558125 
L 257.174479 329.558125 
L 253.310346 329.558125 
z
" clip-path="url(#p3c09c5aa63)" style="fill: #1f77b4; fill-opacity: 0.5; stroke: #000000; stroke-width: 0.411103; stroke-linejoin: miter"/>
   </g>
   <g id="patch_54">
    <path d="M 257.174479 329.558125 
L 261.038613 329.558125 
L 261.038613 329.558125 
L 257.174479 329.558125 
z
" clip-path="url(#p3c09c5aa63)" style="fill: #1f77b4; fill-opacity: 0.5; stroke: #000000; stroke-width: 0.411103; stroke-linejoin: miter"/>
   </g>
   <g id="patch_55">
    <path d="M 261.038613 329.558125 
L 264.902746 329.558125 
L 264.902746 329.558125 
L 261.038613 329.558125 
z
" clip-path="url(#p3c09c5aa63)" style="fill: #1f77b4; fill-opacity: 0.5; stroke: #000000; stroke-width: 0.411103; stroke-linejoin: miter"/>
   </g>
   <g id="patch_56">
    <path d="M 264.902746 329.558125 
L 268.766879 329.558125 
L 268.766879 329.558125 
L 264.902746 329.558125 
z
" clip-path="url(#p3c09c5aa63)" style="fill: #1f77b4; fill-opacity: 0.5; stroke: #000000; stroke-width: 0.411103; stroke-linejoin: miter"/>
   </g>
   <g id="patch_57">
    <path d="M 268.766879 329.558125 
L 272.631013 329.558125 
L 272.631013 329.558125 
L 268.766879 329.558125 
z
" clip-path="url(#p3c09c5aa63)" style="fill: #1f77b4; fill-opacity: 0.5; stroke: #000000; stroke-width: 0.411103; stroke-linejoin: miter"/>
   </g>
   <g id="patch_58">
    <path d="M 272.631013 329.558125 
L 276.495146 329.558125 
L 276.495146 328.817341 
L 272.631013 328.817341 
z
" clip-path="url(#p3c09c5aa63)" style="fill: #1f77b4; fill-opacity: 0.5; stroke: #000000; stroke-width: 0.411103; stroke-linejoin: miter"/>
   </g>
   <g id="patch_59">
    <path d="M 276.495146 329.558125 
L 280.359279 329.558125 
L 280.359279 328.817341 
L 276.495146 328.817341 
z
" clip-path="url(#p3c09c5aa63)" style="fill: #1f77b4; fill-opacity: 0.5; stroke: #000000; stroke-width: 0.411103; stroke-linejoin: miter"/>
   </g>
   <g id="patch_60">
    <path d="M 280.359279 329.558125 
L 284.223413 329.558125 
L 284.223413 329.558125 
L 280.359279 329.558125 
z
" clip-path="url(#p3c09c5aa63)" style="fill: #1f77b4; fill-opacity: 0.5; stroke: #000000; stroke-width: 0.411103; stroke-linejoin: miter"/>
   </g>
   <g id="patch_61">
    <path d="M 284.223413 329.558125 
L 288.087546 329.558125 
L 288.087546 329.558125 
L 284.223413 329.558125 
z
" clip-path="url(#p3c09c5aa63)" style="fill: #1f77b4; fill-opacity: 0.5; stroke: #000000; stroke-width: 0.411103; stroke-linejoin: miter"/>
   </g>
   <g id="patch_62">
    <path d="M 288.087546 329.558125 
L 291.951679 329.558125 
L 291.951679 329.558125 
L 288.087546 329.558125 
z
" clip-path="url(#p3c09c5aa63)" style="fill: #1f77b4; fill-opacity: 0.5; stroke: #000000; stroke-width: 0.411103; stroke-linejoin: miter"/>
   </g>
   <g id="patch_63">
    <path d="M 291.951679 329.558125 
L 295.815813 329.558125 
L 295.815813 329.558125 
L 291.951679 329.558125 
z
" clip-path="url(#p3c09c5aa63)" style="fill: #1f77b4; fill-opacity: 0.5; stroke: #000000; stroke-width: 0.411103; stroke-linejoin: miter"/>
   </g>
   <g id="patch_64">
    <path d="M 295.815813 329.558125 
L 299.679946 329.558125 
L 299.679946 329.558125 
L 295.815813 329.558125 
z
" clip-path="url(#p3c09c5aa63)" style="fill: #1f77b4; fill-opacity: 0.5; stroke: #000000; stroke-width: 0.411103; stroke-linejoin: miter"/>
   </g>
   <g id="patch_65">
    <path d="M 299.679946 329.558125 
L 303.54408 329.558125 
L 303.54408 329.558125 
L 299.679946 329.558125 
z
" clip-path="url(#p3c09c5aa63)" style="fill: #1f77b4; fill-opacity: 0.5; stroke: #000000; stroke-width: 0.411103; stroke-linejoin: miter"/>
   </g>
   <g id="patch_66">
    <path d="M 303.54408 329.558125 
L 307.408213 329.558125 
L 307.408213 329.558125 
L 303.54408 329.558125 
z
" clip-path="url(#p3c09c5aa63)" style="fill: #1f77b4; fill-opacity: 0.5; stroke: #000000; stroke-width: 0.411103; stroke-linejoin: miter"/>
   </g>
   <g id="patch_67">
    <path d="M 307.408213 329.558125 
L 311.272346 329.558125 
L 311.272346 329.558125 
L 307.408213 329.558125 
z
" clip-path="url(#p3c09c5aa63)" style="fill: #1f77b4; fill-opacity: 0.5; stroke: #000000; stroke-width: 0.411103; stroke-linejoin: miter"/>
   </g>
   <g id="patch_68">
    <path d="M 311.272346 329.558125 
L 315.13648 329.558125 
L 315.13648 329.558125 
L 311.272346 329.558125 
z
" clip-path="url(#p3c09c5aa63)" style="fill: #1f77b4; fill-opacity: 0.5; stroke: #000000; stroke-width: 0.411103; stroke-linejoin: miter"/>
   </g>
   <g id="patch_69">
    <path d="M 315.13648 329.558125 
L 319.000613 329.558125 
L 319.000613 329.558125 
L 315.13648 329.558125 
z
" clip-path="url(#p3c09c5aa63)" style="fill: #1f77b4; fill-opacity: 0.5; stroke: #000000; stroke-width: 0.411103; stroke-linejoin: miter"/>
   </g>
   <g id="patch_70">
    <path d="M 319.000613 329.558125 
L 322.864746 329.558125 
L 322.864746 328.817341 
L 319.000613 328.817341 
z
" clip-path="url(#p3c09c5aa63)" style="fill: #1f77b4; fill-opacity: 0.5; stroke: #000000; stroke-width: 0.411103; stroke-linejoin: miter"/>
   </g>
   <g id="matplotlib.axis_1">
    <g id="xtick_1">
     <g id="line2d_1">
      <defs>
       <path id="m9dfd87b338" d="M 0 0 
L 0 3.5 
" style="stroke: #000000; stroke-width: 0.8"/>
      </defs>
      <g>
       <use xlink:href="#m9dfd87b338" x="59.548148" y="329.558125" style="stroke: #000000; stroke-width: 0.8"/>
      </g>
     </g>
     <g id="text_1">
      <!-- 0 -->
      <g transform="translate(56.366898 344.156562) scale(0.1 -0.1)">
       <defs>
        <path id="DejaVuSans-30" d="M 2034 4250 
Q 1547 4250 1301 3770 
Q 1056 3291 1056 2328 
Q 1056 1369 1301 889 
Q 1547 409 2034 409 
Q 2525 409 2770 889 
Q 3016 1369 3016 2328 
Q 3016 3291 2770 3770 
Q 2525 4250 2034 4250 
z
M 2034 4750 
Q 2819 4750 3233 4129 
Q 3647 3509 3647 2328 
Q 3647 1150 3233 529 
Q 2819 -91 2034 -91 
Q 1250 -91 836 529 
Q 422 1150 422 2328 
Q 422 3509 836 4129 
Q 1250 4750 2034 4750 
z
" transform="scale(0.015625)"/>
       </defs>
       <use xlink:href="#DejaVuSans-30"/>
      </g>
     </g>
    </g>
    <g id="xtick_2">
     <g id="line2d_2">
      <g>
       <use xlink:href="#m9dfd87b338" x="105.049434" y="329.558125" style="stroke: #000000; stroke-width: 0.8"/>
      </g>
     </g>
     <g id="text_2">
      <!-- 200 -->
      <g transform="translate(95.505684 344.156562) scale(0.1 -0.1)">
       <defs>
        <path id="DejaVuSans-32" d="M 1228 531 
L 3431 531 
L 3431 0 
L 469 0 
L 469 531 
Q 828 903 1448 1529 
Q 2069 2156 2228 2338 
Q 2531 2678 2651 2914 
Q 2772 3150 2772 3378 
Q 2772 3750 2511 3984 
Q 2250 4219 1831 4219 
Q 1534 4219 1204 4116 
Q 875 4013 500 3803 
L 500 4441 
Q 881 4594 1212 4672 
Q 1544 4750 1819 4750 
Q 2544 4750 2975 4387 
Q 3406 4025 3406 3419 
Q 3406 3131 3298 2873 
Q 3191 2616 2906 2266 
Q 2828 2175 2409 1742 
Q 1991 1309 1228 531 
z
" transform="scale(0.015625)"/>
       </defs>
       <use xlink:href="#DejaVuSans-32"/>
       <use xlink:href="#DejaVuSans-30" x="63.623047"/>
       <use xlink:href="#DejaVuSans-30" x="127.246094"/>
      </g>
     </g>
    </g>
    <g id="xtick_3">
     <g id="line2d_3">
      <g>
       <use xlink:href="#m9dfd87b338" x="150.55072" y="329.558125" style="stroke: #000000; stroke-width: 0.8"/>
      </g>
     </g>
     <g id="text_3">
      <!-- 400 -->
      <g transform="translate(141.00697 344.156562) scale(0.1 -0.1)">
       <defs>
        <path id="DejaVuSans-34" d="M 2419 4116 
L 825 1625 
L 2419 1625 
L 2419 4116 
z
M 2253 4666 
L 3047 4666 
L 3047 1625 
L 3713 1625 
L 3713 1100 
L 3047 1100 
L 3047 0 
L 2419 0 
L 2419 1100 
L 313 1100 
L 313 1709 
L 2253 4666 
z
" transform="scale(0.015625)"/>
       </defs>
       <use xlink:href="#DejaVuSans-34"/>
       <use xlink:href="#DejaVuSans-30" x="63.623047"/>
       <use xlink:href="#DejaVuSans-30" x="127.246094"/>
      </g>
     </g>
    </g>
    <g id="xtick_4">
     <g id="line2d_4">
      <g>
       <use xlink:href="#m9dfd87b338" x="196.052006" y="329.558125" style="stroke: #000000; stroke-width: 0.8"/>
      </g>
     </g>
     <g id="text_4">
      <!-- 600 -->
      <g transform="translate(186.508256 344.156562) scale(0.1 -0.1)">
       <defs>
        <path id="DejaVuSans-36" d="M 2113 2584 
Q 1688 2584 1439 2293 
Q 1191 2003 1191 1497 
Q 1191 994 1439 701 
Q 1688 409 2113 409 
Q 2538 409 2786 701 
Q 3034 994 3034 1497 
Q 3034 2003 2786 2293 
Q 2538 2584 2113 2584 
z
M 3366 4563 
L 3366 3988 
Q 3128 4100 2886 4159 
Q 2644 4219 2406 4219 
Q 1781 4219 1451 3797 
Q 1122 3375 1075 2522 
Q 1259 2794 1537 2939 
Q 1816 3084 2150 3084 
Q 2853 3084 3261 2657 
Q 3669 2231 3669 1497 
Q 3669 778 3244 343 
Q 2819 -91 2113 -91 
Q 1303 -91 875 529 
Q 447 1150 447 2328 
Q 447 3434 972 4092 
Q 1497 4750 2381 4750 
Q 2619 4750 2861 4703 
Q 3103 4656 3366 4563 
z
" transform="scale(0.015625)"/>
       </defs>
       <use xlink:href="#DejaVuSans-36"/>
       <use xlink:href="#DejaVuSans-30" x="63.623047"/>
       <use xlink:href="#DejaVuSans-30" x="127.246094"/>
      </g>
     </g>
    </g>
    <g id="xtick_5">
     <g id="line2d_5">
      <g>
       <use xlink:href="#m9dfd87b338" x="241.553292" y="329.558125" style="stroke: #000000; stroke-width: 0.8"/>
      </g>
     </g>
     <g id="text_5">
      <!-- 800 -->
      <g transform="translate(232.009542 344.156562) scale(0.1 -0.1)">
       <defs>
        <path id="DejaVuSans-38" d="M 2034 2216 
Q 1584 2216 1326 1975 
Q 1069 1734 1069 1313 
Q 1069 891 1326 650 
Q 1584 409 2034 409 
Q 2484 409 2743 651 
Q 3003 894 3003 1313 
Q 3003 1734 2745 1975 
Q 2488 2216 2034 2216 
z
M 1403 2484 
Q 997 2584 770 2862 
Q 544 3141 544 3541 
Q 544 4100 942 4425 
Q 1341 4750 2034 4750 
Q 2731 4750 3128 4425 
Q 3525 4100 3525 3541 
Q 3525 3141 3298 2862 
Q 3072 2584 2669 2484 
Q 3125 2378 3379 2068 
Q 3634 1759 3634 1313 
Q 3634 634 3220 271 
Q 2806 -91 2034 -91 
Q 1263 -91 848 271 
Q 434 634 434 1313 
Q 434 1759 690 2068 
Q 947 2378 1403 2484 
z
M 1172 3481 
Q 1172 3119 1398 2916 
Q 1625 2713 2034 2713 
Q 2441 2713 2670 2916 
Q 2900 3119 2900 3481 
Q 2900 3844 2670 4047 
Q 2441 4250 2034 4250 
Q 1625 4250 1398 4047 
Q 1172 3844 1172 3481 
z
" transform="scale(0.015625)"/>
       </defs>
       <use xlink:href="#DejaVuSans-38"/>
       <use xlink:href="#DejaVuSans-30" x="63.623047"/>
       <use xlink:href="#DejaVuSans-30" x="127.246094"/>
      </g>
     </g>
    </g>
    <g id="xtick_6">
     <g id="line2d_6">
      <g>
       <use xlink:href="#m9dfd87b338" x="287.054578" y="329.558125" style="stroke: #000000; stroke-width: 0.8"/>
      </g>
     </g>
     <g id="text_6">
      <!-- 1000 -->
      <g transform="translate(274.329578 344.156562) scale(0.1 -0.1)">
       <defs>
        <path id="DejaVuSans-31" d="M 794 531 
L 1825 531 
L 1825 4091 
L 703 3866 
L 703 4441 
L 1819 4666 
L 2450 4666 
L 2450 531 
L 3481 531 
L 3481 0 
L 794 0 
L 794 531 
z
" transform="scale(0.015625)"/>
       </defs>
       <use xlink:href="#DejaVuSans-31"/>
       <use xlink:href="#DejaVuSans-30" x="63.623047"/>
       <use xlink:href="#DejaVuSans-30" x="127.246094"/>
       <use xlink:href="#DejaVuSans-30" x="190.869141"/>
      </g>
     </g>
    </g>
    <g id="xtick_7">
     <g id="line2d_7">
      <g>
       <use xlink:href="#m9dfd87b338" x="332.555864" y="329.558125" style="stroke: #000000; stroke-width: 0.8"/>
      </g>
     </g>
     <g id="text_7">
      <!-- 1200 -->
      <g transform="translate(319.830864 344.156562) scale(0.1 -0.1)">
       <use xlink:href="#DejaVuSans-31"/>
       <use xlink:href="#DejaVuSans-32" x="63.623047"/>
       <use xlink:href="#DejaVuSans-30" x="127.246094"/>
       <use xlink:href="#DejaVuSans-30" x="190.869141"/>
      </g>
     </g>
    </g>
    <g id="text_8">
     <!-- uACR -->
     <g transform="translate(178.017025 357.834687) scale(0.1 -0.1)">
      <defs>
       <path id="DejaVuSans-75" d="M 544 1381 
L 544 3500 
L 1119 3500 
L 1119 1403 
Q 1119 906 1312 657 
Q 1506 409 1894 409 
Q 2359 409 2629 706 
Q 2900 1003 2900 1516 
L 2900 3500 
L 3475 3500 
L 3475 0 
L 2900 0 
L 2900 538 
Q 2691 219 2414 64 
Q 2138 -91 1772 -91 
Q 1169 -91 856 284 
Q 544 659 544 1381 
z
M 1991 3584 
L 1991 3584 
z
" transform="scale(0.015625)"/>
       <path id="DejaVuSans-41" d="M 2188 4044 
L 1331 1722 
L 3047 1722 
L 2188 4044 
z
M 1831 4666 
L 2547 4666 
L 4325 0 
L 3669 0 
L 3244 1197 
L 1141 1197 
L 716 0 
L 50 0 
L 1831 4666 
z
" transform="scale(0.015625)"/>
       <path id="DejaVuSans-43" d="M 4122 4306 
L 4122 3641 
Q 3803 3938 3442 4084 
Q 3081 4231 2675 4231 
Q 1875 4231 1450 3742 
Q 1025 3253 1025 2328 
Q 1025 1406 1450 917 
Q 1875 428 2675 428 
Q 3081 428 3442 575 
Q 3803 722 4122 1019 
L 4122 359 
Q 3791 134 3420 21 
Q 3050 -91 2638 -91 
Q 1578 -91 968 557 
Q 359 1206 359 2328 
Q 359 3453 968 4101 
Q 1578 4750 2638 4750 
Q 3056 4750 3426 4639 
Q 3797 4528 4122 4306 
z
" transform="scale(0.015625)"/>
       <path id="DejaVuSans-52" d="M 2841 2188 
Q 3044 2119 3236 1894 
Q 3428 1669 3622 1275 
L 4263 0 
L 3584 0 
L 2988 1197 
Q 2756 1666 2539 1819 
Q 2322 1972 1947 1972 
L 1259 1972 
L 1259 0 
L 628 0 
L 628 4666 
L 2053 4666 
Q 2853 4666 3247 4331 
Q 3641 3997 3641 3322 
Q 3641 2881 3436 2590 
Q 3231 2300 2841 2188 
z
M 1259 4147 
L 1259 2491 
L 2053 2491 
Q 2509 2491 2742 2702 
Q 2975 2913 2975 3322 
Q 2975 3731 2742 3939 
Q 2509 4147 2053 4147 
L 1259 4147 
z
" transform="scale(0.015625)"/>
      </defs>
      <use xlink:href="#DejaVuSans-75"/>
      <use xlink:href="#DejaVuSans-41" x="63.378906"/>
      <use xlink:href="#DejaVuSans-43" x="130.037109"/>
      <use xlink:href="#DejaVuSans-52" x="199.861328"/>
     </g>
    </g>
   </g>
   <g id="matplotlib.axis_2">
    <g id="ytick_1">
     <g id="line2d_8">
      <defs>
       <path id="m41d9433b4a" d="M 0 0 
L -3.5 0 
" style="stroke: #000000; stroke-width: 0.8"/>
      </defs>
      <g>
       <use xlink:href="#m41d9433b4a" x="46.965625" y="329.558125" style="stroke: #000000; stroke-width: 0.8"/>
      </g>
     </g>
     <g id="text_9">
      <!-- 0 -->
      <g transform="translate(33.603125 333.357344) scale(0.1 -0.1)">
       <use xlink:href="#DejaVuSans-30"/>
      </g>
     </g>
    </g>
    <g id="ytick_2">
     <g id="line2d_9">
      <g>
       <use xlink:href="#m41d9433b4a" x="46.965625" y="292.518945" style="stroke: #000000; stroke-width: 0.8"/>
      </g>
     </g>
     <g id="text_10">
      <!-- 50 -->
      <g transform="translate(27.240625 296.318164) scale(0.1 -0.1)">
       <defs>
        <path id="DejaVuSans-35" d="M 691 4666 
L 3169 4666 
L 3169 4134 
L 1269 4134 
L 1269 2991 
Q 1406 3038 1543 3061 
Q 1681 3084 1819 3084 
Q 2600 3084 3056 2656 
Q 3513 2228 3513 1497 
Q 3513 744 3044 326 
Q 2575 -91 1722 -91 
Q 1428 -91 1123 -41 
Q 819 9 494 109 
L 494 744 
Q 775 591 1075 516 
Q 1375 441 1709 441 
Q 2250 441 2565 725 
Q 2881 1009 2881 1497 
Q 2881 1984 2565 2268 
Q 2250 2553 1709 2553 
Q 1456 2553 1204 2497 
Q 953 2441 691 2322 
L 691 4666 
z
" transform="scale(0.015625)"/>
       </defs>
       <use xlink:href="#DejaVuSans-35"/>
       <use xlink:href="#DejaVuSans-30" x="63.623047"/>
      </g>
     </g>
    </g>
    <g id="ytick_3">
     <g id="line2d_10">
      <g>
       <use xlink:href="#m41d9433b4a" x="46.965625" y="255.479765" style="stroke: #000000; stroke-width: 0.8"/>
      </g>
     </g>
     <g id="text_11">
      <!-- 100 -->
      <g transform="translate(20.878125 259.278983) scale(0.1 -0.1)">
       <use xlink:href="#DejaVuSans-31"/>
       <use xlink:href="#DejaVuSans-30" x="63.623047"/>
       <use xlink:href="#DejaVuSans-30" x="127.246094"/>
      </g>
     </g>
    </g>
    <g id="ytick_4">
     <g id="line2d_11">
      <g>
       <use xlink:href="#m41d9433b4a" x="46.965625" y="218.440584" style="stroke: #000000; stroke-width: 0.8"/>
      </g>
     </g>
     <g id="text_12">
      <!-- 150 -->
      <g transform="translate(20.878125 222.239803) scale(0.1 -0.1)">
       <use xlink:href="#DejaVuSans-31"/>
       <use xlink:href="#DejaVuSans-35" x="63.623047"/>
       <use xlink:href="#DejaVuSans-30" x="127.246094"/>
      </g>
     </g>
    </g>
    <g id="ytick_5">
     <g id="line2d_12">
      <g>
       <use xlink:href="#m41d9433b4a" x="46.965625" y="181.401404" style="stroke: #000000; stroke-width: 0.8"/>
      </g>
     </g>
     <g id="text_13">
      <!-- 200 -->
      <g transform="translate(20.878125 185.200623) scale(0.1 -0.1)">
       <use xlink:href="#DejaVuSans-32"/>
       <use xlink:href="#DejaVuSans-30" x="63.623047"/>
       <use xlink:href="#DejaVuSans-30" x="127.246094"/>
      </g>
     </g>
    </g>
    <g id="ytick_6">
     <g id="line2d_13">
      <g>
       <use xlink:href="#m41d9433b4a" x="46.965625" y="144.362224" style="stroke: #000000; stroke-width: 0.8"/>
      </g>
     </g>
     <g id="text_14">
      <!-- 250 -->
      <g transform="translate(20.878125 148.161443) scale(0.1 -0.1)">
       <use xlink:href="#DejaVuSans-32"/>
       <use xlink:href="#DejaVuSans-35" x="63.623047"/>
       <use xlink:href="#DejaVuSans-30" x="127.246094"/>
      </g>
     </g>
    </g>
    <g id="ytick_7">
     <g id="line2d_14">
      <g>
       <use xlink:href="#m41d9433b4a" x="46.965625" y="107.323044" style="stroke: #000000; stroke-width: 0.8"/>
      </g>
     </g>
     <g id="text_15">
      <!-- 300 -->
      <g transform="translate(20.878125 111.122262) scale(0.1 -0.1)">
       <defs>
        <path id="DejaVuSans-33" d="M 2597 2516 
Q 3050 2419 3304 2112 
Q 3559 1806 3559 1356 
Q 3559 666 3084 287 
Q 2609 -91 1734 -91 
Q 1441 -91 1130 -33 
Q 819 25 488 141 
L 488 750 
Q 750 597 1062 519 
Q 1375 441 1716 441 
Q 2309 441 2620 675 
Q 2931 909 2931 1356 
Q 2931 1769 2642 2001 
Q 2353 2234 1838 2234 
L 1294 2234 
L 1294 2753 
L 1863 2753 
Q 2328 2753 2575 2939 
Q 2822 3125 2822 3475 
Q 2822 3834 2567 4026 
Q 2313 4219 1838 4219 
Q 1578 4219 1281 4162 
Q 984 4106 628 3988 
L 628 4550 
Q 988 4650 1302 4700 
Q 1616 4750 1894 4750 
Q 2613 4750 3031 4423 
Q 3450 4097 3450 3541 
Q 3450 3153 3228 2886 
Q 3006 2619 2597 2516 
z
" transform="scale(0.015625)"/>
       </defs>
       <use xlink:href="#DejaVuSans-33"/>
       <use xlink:href="#DejaVuSans-30" x="63.623047"/>
       <use xlink:href="#DejaVuSans-30" x="127.246094"/>
      </g>
     </g>
    </g>
    <g id="ytick_8">
     <g id="line2d_15">
      <g>
       <use xlink:href="#m41d9433b4a" x="46.965625" y="70.283863" style="stroke: #000000; stroke-width: 0.8"/>
      </g>
     </g>
     <g id="text_16">
      <!-- 350 -->
      <g transform="translate(20.878125 74.083082) scale(0.1 -0.1)">
       <use xlink:href="#DejaVuSans-33"/>
       <use xlink:href="#DejaVuSans-35" x="63.623047"/>
       <use xlink:href="#DejaVuSans-30" x="127.246094"/>
      </g>
     </g>
    </g>
    <g id="ytick_9">
     <g id="line2d_16">
      <g>
       <use xlink:href="#m41d9433b4a" x="46.965625" y="33.244683" style="stroke: #000000; stroke-width: 0.8"/>
      </g>
     </g>
     <g id="text_17">
      <!-- 400 -->
      <g transform="translate(20.878125 37.043902) scale(0.1 -0.1)">
       <use xlink:href="#DejaVuSans-34"/>
       <use xlink:href="#DejaVuSans-30" x="63.623047"/>
       <use xlink:href="#DejaVuSans-30" x="127.246094"/>
      </g>
     </g>
    </g>
    <g id="text_18">
     <!-- Count -->
     <g transform="translate(14.798438 190.786562) rotate(-90) scale(0.1 -0.1)">
      <defs>
       <path id="DejaVuSans-6f" d="M 1959 3097 
Q 1497 3097 1228 2736 
Q 959 2375 959 1747 
Q 959 1119 1226 758 
Q 1494 397 1959 397 
Q 2419 397 2687 759 
Q 2956 1122 2956 1747 
Q 2956 2369 2687 2733 
Q 2419 3097 1959 3097 
z
M 1959 3584 
Q 2709 3584 3137 3096 
Q 3566 2609 3566 1747 
Q 3566 888 3137 398 
Q 2709 -91 1959 -91 
Q 1206 -91 779 398 
Q 353 888 353 1747 
Q 353 2609 779 3096 
Q 1206 3584 1959 3584 
z
" transform="scale(0.015625)"/>
       <path id="DejaVuSans-6e" d="M 3513 2113 
L 3513 0 
L 2938 0 
L 2938 2094 
Q 2938 2591 2744 2837 
Q 2550 3084 2163 3084 
Q 1697 3084 1428 2787 
Q 1159 2491 1159 1978 
L 1159 0 
L 581 0 
L 581 3500 
L 1159 3500 
L 1159 2956 
Q 1366 3272 1645 3428 
Q 1925 3584 2291 3584 
Q 2894 3584 3203 3211 
Q 3513 2838 3513 2113 
z
" transform="scale(0.015625)"/>
       <path id="DejaVuSans-74" d="M 1172 4494 
L 1172 3500 
L 2356 3500 
L 2356 3053 
L 1172 3053 
L 1172 1153 
Q 1172 725 1289 603 
Q 1406 481 1766 481 
L 2356 481 
L 2356 0 
L 1766 0 
Q 1100 0 847 248 
Q 594 497 594 1153 
L 594 3053 
L 172 3053 
L 172 3500 
L 594 3500 
L 594 4494 
L 1172 4494 
z
" transform="scale(0.015625)"/>
      </defs>
      <use xlink:href="#DejaVuSans-43"/>
      <use xlink:href="#DejaVuSans-6f" x="69.824219"/>
      <use xlink:href="#DejaVuSans-75" x="131.005859"/>
      <use xlink:href="#DejaVuSans-6e" x="194.384766"/>
      <use xlink:href="#DejaVuSans-74" x="257.763672"/>
     </g>
    </g>
   </g>
   <g id="line2d_17">
    <path d="M 60.103678 256.834977 
L 61.424086 254.210993 
L 62.744493 253.494154 
L 64.064901 254.659722 
L 65.385308 257.526842 
L 66.705715 261.788442 
L 68.026123 267.056367 
L 73.307752 290.34511 
L 74.62816 295.258854 
L 75.948567 299.517292 
L 77.268974 303.112194 
L 78.589382 306.088135 
L 79.909789 308.522272 
L 81.230196 310.506377 
L 82.550604 312.1329 
L 83.871011 313.485642 
L 85.191419 314.634636 
L 87.832233 316.52436 
L 90.473048 318.069914 
L 93.113863 319.37155 
L 95.754678 320.444498 
L 98.395492 321.28892 
L 101.036307 321.93117 
L 104.997529 322.643101 
L 111.599566 323.569156 
L 123.483232 325.146576 
L 135.366899 327.302076 
L 139.328121 327.655591 
L 145.930158 327.953514 
L 161.775046 328.590253 
L 169.697491 328.815967 
L 180.26075 328.869973 
L 188.183194 328.689583 
L 194.785231 328.517797 
L 198.746453 328.598308 
L 205.34849 329.043268 
L 211.950527 329.419557 
L 218.552564 329.539943 
L 242.319896 329.558117 
L 264.766822 329.471545 
L 279.291303 329.270828 
L 301.738228 329.554348 
L 317.583117 329.438837 
L 322.864746 329.404672 
L 322.864746 329.404672 
" clip-path="url(#p3c09c5aa63)" style="fill: none; stroke: #1f77b4; stroke-width: 1.5; stroke-linecap: square"/>
   </g>
   <g id="patch_71">
    <path d="M 46.965625 329.558125 
L 46.965625 22.318125 
" style="fill: none; stroke: #000000; stroke-width: 0.8; stroke-linejoin: miter; stroke-linecap: square"/>
   </g>
   <g id="patch_72">
    <path d="M 46.965625 329.558125 
L 336.0028 329.558125 
" style="fill: none; stroke: #000000; stroke-width: 0.8; stroke-linejoin: miter; stroke-linecap: square"/>
   </g>
   <g id="text_19">
    <!-- Distribution of uACR -->
    <g transform="translate(130.7239 16.318125) scale(0.12 -0.12)">
     <defs>
      <path id="DejaVuSans-44" d="M 1259 4147 
L 1259 519 
L 2022 519 
Q 2988 519 3436 956 
Q 3884 1394 3884 2338 
Q 3884 3275 3436 3711 
Q 2988 4147 2022 4147 
L 1259 4147 
z
M 628 4666 
L 1925 4666 
Q 3281 4666 3915 4102 
Q 4550 3538 4550 2338 
Q 4550 1131 3912 565 
Q 3275 0 1925 0 
L 628 0 
L 628 4666 
z
" transform="scale(0.015625)"/>
      <path id="DejaVuSans-69" d="M 603 3500 
L 1178 3500 
L 1178 0 
L 603 0 
L 603 3500 
z
M 603 4863 
L 1178 4863 
L 1178 4134 
L 603 4134 
L 603 4863 
z
" transform="scale(0.015625)"/>
      <path id="DejaVuSans-73" d="M 2834 3397 
L 2834 2853 
Q 2591 2978 2328 3040 
Q 2066 3103 1784 3103 
Q 1356 3103 1142 2972 
Q 928 2841 928 2578 
Q 928 2378 1081 2264 
Q 1234 2150 1697 2047 
L 1894 2003 
Q 2506 1872 2764 1633 
Q 3022 1394 3022 966 
Q 3022 478 2636 193 
Q 2250 -91 1575 -91 
Q 1294 -91 989 -36 
Q 684 19 347 128 
L 347 722 
Q 666 556 975 473 
Q 1284 391 1588 391 
Q 1994 391 2212 530 
Q 2431 669 2431 922 
Q 2431 1156 2273 1281 
Q 2116 1406 1581 1522 
L 1381 1569 
Q 847 1681 609 1914 
Q 372 2147 372 2553 
Q 372 3047 722 3315 
Q 1072 3584 1716 3584 
Q 2034 3584 2315 3537 
Q 2597 3491 2834 3397 
z
" transform="scale(0.015625)"/>
      <path id="DejaVuSans-72" d="M 2631 2963 
Q 2534 3019 2420 3045 
Q 2306 3072 2169 3072 
Q 1681 3072 1420 2755 
Q 1159 2438 1159 1844 
L 1159 0 
L 581 0 
L 581 3500 
L 1159 3500 
L 1159 2956 
Q 1341 3275 1631 3429 
Q 1922 3584 2338 3584 
Q 2397 3584 2469 3576 
Q 2541 3569 2628 3553 
L 2631 2963 
z
" transform="scale(0.015625)"/>
      <path id="DejaVuSans-62" d="M 3116 1747 
Q 3116 2381 2855 2742 
Q 2594 3103 2138 3103 
Q 1681 3103 1420 2742 
Q 1159 2381 1159 1747 
Q 1159 1113 1420 752 
Q 1681 391 2138 391 
Q 2594 391 2855 752 
Q 3116 1113 3116 1747 
z
M 1159 2969 
Q 1341 3281 1617 3432 
Q 1894 3584 2278 3584 
Q 2916 3584 3314 3078 
Q 3713 2572 3713 1747 
Q 3713 922 3314 415 
Q 2916 -91 2278 -91 
Q 1894 -91 1617 61 
Q 1341 213 1159 525 
L 1159 0 
L 581 0 
L 581 4863 
L 1159 4863 
L 1159 2969 
z
" transform="scale(0.015625)"/>
      <path id="DejaVuSans-20" transform="scale(0.015625)"/>
      <path id="DejaVuSans-66" d="M 2375 4863 
L 2375 4384 
L 1825 4384 
Q 1516 4384 1395 4259 
Q 1275 4134 1275 3809 
L 1275 3500 
L 2222 3500 
L 2222 3053 
L 1275 3053 
L 1275 0 
L 697 0 
L 697 3053 
L 147 3053 
L 147 3500 
L 697 3500 
L 697 3744 
Q 697 4328 969 4595 
Q 1241 4863 1831 4863 
L 2375 4863 
z
" transform="scale(0.015625)"/>
     </defs>
     <use xlink:href="#DejaVuSans-44"/>
     <use xlink:href="#DejaVuSans-69" x="77.001953"/>
     <use xlink:href="#DejaVuSans-73" x="104.785156"/>
     <use xlink:href="#DejaVuSans-74" x="156.884766"/>
     <use xlink:href="#DejaVuSans-72" x="196.09375"/>
     <use xlink:href="#DejaVuSans-69" x="237.207031"/>
     <use xlink:href="#DejaVuSans-62" x="264.990234"/>
     <use xlink:href="#DejaVuSans-75" x="328.466797"/>
     <use xlink:href="#DejaVuSans-74" x="391.845703"/>
     <use xlink:href="#DejaVuSans-69" x="431.054688"/>
     <use xlink:href="#DejaVuSans-6f" x="458.837891"/>
     <use xlink:href="#DejaVuSans-6e" x="520.019531"/>
     <use xlink:href="#DejaVuSans-20" x="583.398438"/>
     <use xlink:href="#DejaVuSans-6f" x="615.185547"/>
     <use xlink:href="#DejaVuSans-66" x="676.367188"/>
     <use xlink:href="#DejaVuSans-20" x="711.572266"/>
     <use xlink:href="#DejaVuSans-75" x="743.359375"/>
     <use xlink:href="#DejaVuSans-41" x="806.738281"/>
     <use xlink:href="#DejaVuSans-43" x="873.396484"/>
     <use xlink:href="#DejaVuSans-52" x="943.220703"/>
    </g>
   </g>
  </g>
 </g>
 <defs>
  <clipPath id="p3c09c5aa63">
   <rect x="46.965625" y="22.318125" width="289.037175" height="307.24"/>
  </clipPath>
 </defs>
</svg>
