<?xml version="1.0" encoding="utf-8" standalone="no"?>
<!DOCTYPE svg PUBLIC "-//W3C//DTD SVG 1.1//EN"
  "http://www.w3.org/Graphics/SVG/1.1/DTD/svg11.dtd">
<svg xmlns:xlink="http://www.w3.org/1999/xlink" width="352.315625pt" height="367.114375pt" viewBox="0 0 352.315625 367.114375" xmlns="http://www.w3.org/2000/svg" version="1.1">
 <metadata>
  <rdf:RDF xmlns:dc="http://purl.org/dc/elements/1.1/" xmlns:cc="http://creativecommons.org/ns#" xmlns:rdf="http://www.w3.org/1999/02/22-rdf-syntax-ns#">
   <cc:Work>
    <dc:type rdf:resource="http://purl.org/dc/dcmitype/StillImage"/>
    <dc:date>2024-04-21T08:16:29.985176</dc:date>
    <dc:format>image/svg+xml</dc:format>
    <dc:creator>
     <cc:Agent>
      <dc:title>Matplotlib v3.7.2, https://matplotlib.org/</dc:title>
     </cc:Agent>
    </dc:creator>
   </cc:Work>
  </rdf:RDF>
 </metadata>
 <defs>
  <style type="text/css">*{stroke-linejoin: round; stroke-linecap: butt}</style>
 </defs>
 <g id="figure_1">
  <g id="patch_1">
   <path d="M 0 367.114375 
L 352.315625 367.114375 
L 352.315625 0 
L 0 0 
z
" style="fill: #ffffff"/>
  </g>
  <g id="axes_1">
   <g id="patch_2">
    <path d="M 46.965625 329.558125 
L 345.115625 329.558125 
L 345.115625 22.318125 
L 46.965625 22.318125 
z
" style="fill: #ffffff"/>
   </g>
   <g id="patch_3">
    <path d="M 60.517898 329.558125 
L 64.446093 329.558125 
L 64.446093 36.948601 
L 60.517898 36.948601 
z
" clip-path="url(#p2c22d0ec6d)" style="fill: #1f77b4; fill-opacity: 0.5; stroke: #000000; stroke-width: 0.405145; stroke-linejoin: miter"/>
   </g>
   <g id="patch_4">
    <path d="M 64.446093 329.558125 
L 68.374288 329.558125 
L 68.374288 275.016299 
L 64.446093 275.016299 
z
" clip-path="url(#p2c22d0ec6d)" style="fill: #1f77b4; fill-opacity: 0.5; stroke: #000000; stroke-width: 0.405145; stroke-linejoin: miter"/>
   </g>
   <g id="patch_5">
    <path d="M 68.374288 329.558125 
L 72.302483 329.558125 
L 72.302483 297.12785 
L 68.374288 297.12785 
z
" clip-path="url(#p2c22d0ec6d)" style="fill: #1f77b4; fill-opacity: 0.5; stroke: #000000; stroke-width: 0.405145; stroke-linejoin: miter"/>
   </g>
   <g id="patch_6">
    <path d="M 72.302483 329.558125 
L 76.230678 329.558125 
L 76.230678 311.131833 
L 72.302483 311.131833 
z
" clip-path="url(#p2c22d0ec6d)" style="fill: #1f77b4; fill-opacity: 0.5; stroke: #000000; stroke-width: 0.405145; stroke-linejoin: miter"/>
   </g>
   <g id="patch_7">
    <path d="M 76.230678 329.558125 
L 80.158873 329.558125 
L 80.158873 311.131833 
L 76.230678 311.131833 
z
" clip-path="url(#p2c22d0ec6d)" style="fill: #1f77b4; fill-opacity: 0.5; stroke: #000000; stroke-width: 0.405145; stroke-linejoin: miter"/>
   </g>
   <g id="patch_8">
    <path d="M 80.158873 329.558125 
L 84.087068 329.558125 
L 84.087068 312.605936 
L 80.158873 312.605936 
z
" clip-path="url(#p2c22d0ec6d)" style="fill: #1f77b4; fill-opacity: 0.5; stroke: #000000; stroke-width: 0.405145; stroke-linejoin: miter"/>
   </g>
   <g id="patch_9">
    <path d="M 84.087068 329.558125 
L 88.015263 329.558125 
L 88.015263 314.817091 
L 84.087068 314.817091 
z
" clip-path="url(#p2c22d0ec6d)" style="fill: #1f77b4; fill-opacity: 0.5; stroke: #000000; stroke-width: 0.405145; stroke-linejoin: miter"/>
   </g>
   <g id="patch_10">
    <path d="M 88.015263 329.558125 
L 91.943458 329.558125 
L 91.943458 319.239401 
L 88.015263 319.239401 
z
" clip-path="url(#p2c22d0ec6d)" style="fill: #1f77b4; fill-opacity: 0.5; stroke: #000000; stroke-width: 0.405145; stroke-linejoin: miter"/>
   </g>
   <g id="patch_11">
    <path d="M 91.943458 329.558125 
L 95.871653 329.558125 
L 95.871653 319.976453 
L 91.943458 319.976453 
z
" clip-path="url(#p2c22d0ec6d)" style="fill: #1f77b4; fill-opacity: 0.5; stroke: #000000; stroke-width: 0.405145; stroke-linejoin: miter"/>
   </g>
   <g id="patch_12">
    <path d="M 95.871653 329.558125 
L 99.799848 329.558125 
L 99.799848 323.661711 
L 95.871653 323.661711 
z
" clip-path="url(#p2c22d0ec6d)" style="fill: #1f77b4; fill-opacity: 0.5; stroke: #000000; stroke-width: 0.405145; stroke-linejoin: miter"/>
   </g>
   <g id="patch_13">
    <path d="M 99.799848 329.558125 
L 103.728043 329.558125 
L 103.728043 321.450556 
L 99.799848 321.450556 
z
" clip-path="url(#p2c22d0ec6d)" style="fill: #1f77b4; fill-opacity: 0.5; stroke: #000000; stroke-width: 0.405145; stroke-linejoin: miter"/>
   </g>
   <g id="patch_14">
    <path d="M 103.728043 329.558125 
L 107.656238 329.558125 
L 107.656238 321.450556 
L 103.728043 321.450556 
z
" clip-path="url(#p2c22d0ec6d)" style="fill: #1f77b4; fill-opacity: 0.5; stroke: #000000; stroke-width: 0.405145; stroke-linejoin: miter"/>
   </g>
   <g id="patch_15">
    <path d="M 107.656238 329.558125 
L 111.584433 329.558125 
L 111.584433 322.187608 
L 107.656238 322.187608 
z
" clip-path="url(#p2c22d0ec6d)" style="fill: #1f77b4; fill-opacity: 0.5; stroke: #000000; stroke-width: 0.405145; stroke-linejoin: miter"/>
   </g>
   <g id="patch_16">
    <path d="M 111.584433 329.558125 
L 115.512628 329.558125 
L 115.512628 326.609918 
L 111.584433 326.609918 
z
" clip-path="url(#p2c22d0ec6d)" style="fill: #1f77b4; fill-opacity: 0.5; stroke: #000000; stroke-width: 0.405145; stroke-linejoin: miter"/>
   </g>
   <g id="patch_17">
    <path d="M 115.512628 329.558125 
L 119.440823 329.558125 
L 119.440823 323.661711 
L 115.512628 323.661711 
z
" clip-path="url(#p2c22d0ec6d)" style="fill: #1f77b4; fill-opacity: 0.5; stroke: #000000; stroke-width: 0.405145; stroke-linejoin: miter"/>
   </g>
   <g id="patch_18">
    <path d="M 119.440823 329.558125 
L 123.369018 329.558125 
L 123.369018 323.661711 
L 119.440823 323.661711 
z
" clip-path="url(#p2c22d0ec6d)" style="fill: #1f77b4; fill-opacity: 0.5; stroke: #000000; stroke-width: 0.405145; stroke-linejoin: miter"/>
   </g>
   <g id="patch_19">
    <path d="M 123.369018 329.558125 
L 127.297213 329.558125 
L 127.297213 323.661711 
L 123.369018 323.661711 
z
" clip-path="url(#p2c22d0ec6d)" style="fill: #1f77b4; fill-opacity: 0.5; stroke: #000000; stroke-width: 0.405145; stroke-linejoin: miter"/>
   </g>
   <g id="patch_20">
    <path d="M 127.297213 329.558125 
L 131.225408 329.558125 
L 131.225408 325.872867 
L 127.297213 325.872867 
z
" clip-path="url(#p2c22d0ec6d)" style="fill: #1f77b4; fill-opacity: 0.5; stroke: #000000; stroke-width: 0.405145; stroke-linejoin: miter"/>
   </g>
   <g id="patch_21">
    <path d="M 131.225408 329.558125 
L 135.153603 329.558125 
L 135.153603 327.34697 
L 131.225408 327.34697 
z
" clip-path="url(#p2c22d0ec6d)" style="fill: #1f77b4; fill-opacity: 0.5; stroke: #000000; stroke-width: 0.405145; stroke-linejoin: miter"/>
   </g>
   <g id="patch_22">
    <path d="M 135.153603 329.558125 
L 139.081798 329.558125 
L 139.081798 329.558125 
L 135.153603 329.558125 
z
" clip-path="url(#p2c22d0ec6d)" style="fill: #1f77b4; fill-opacity: 0.5; stroke: #000000; stroke-width: 0.405145; stroke-linejoin: miter"/>
   </g>
   <g id="patch_23">
    <path d="M 139.081798 329.558125 
L 143.009993 329.558125 
L 143.009993 327.34697 
L 139.081798 327.34697 
z
" clip-path="url(#p2c22d0ec6d)" style="fill: #1f77b4; fill-opacity: 0.5; stroke: #000000; stroke-width: 0.405145; stroke-linejoin: miter"/>
   </g>
   <g id="patch_24">
    <path d="M 143.009993 329.558125 
L 146.938188 329.558125 
L 146.938188 328.084022 
L 143.009993 328.084022 
z
" clip-path="url(#p2c22d0ec6d)" style="fill: #1f77b4; fill-opacity: 0.5; stroke: #000000; stroke-width: 0.405145; stroke-linejoin: miter"/>
   </g>
   <g id="patch_25">
    <path d="M 146.938188 329.558125 
L 150.866383 329.558125 
L 150.866383 326.609918 
L 146.938188 326.609918 
z
" clip-path="url(#p2c22d0ec6d)" style="fill: #1f77b4; fill-opacity: 0.5; stroke: #000000; stroke-width: 0.405145; stroke-linejoin: miter"/>
   </g>
   <g id="patch_26">
    <path d="M 150.866383 329.558125 
L 154.794578 329.558125 
L 154.794578 328.821073 
L 150.866383 328.821073 
z
" clip-path="url(#p2c22d0ec6d)" style="fill: #1f77b4; fill-opacity: 0.5; stroke: #000000; stroke-width: 0.405145; stroke-linejoin: miter"/>
   </g>
   <g id="patch_27">
    <path d="M 154.794578 329.558125 
L 158.722773 329.558125 
L 158.722773 326.609918 
L 154.794578 326.609918 
z
" clip-path="url(#p2c22d0ec6d)" style="fill: #1f77b4; fill-opacity: 0.5; stroke: #000000; stroke-width: 0.405145; stroke-linejoin: miter"/>
   </g>
   <g id="patch_28">
    <path d="M 158.722773 329.558125 
L 162.650968 329.558125 
L 162.650968 328.084022 
L 158.722773 328.084022 
z
" clip-path="url(#p2c22d0ec6d)" style="fill: #1f77b4; fill-opacity: 0.5; stroke: #000000; stroke-width: 0.405145; stroke-linejoin: miter"/>
   </g>
   <g id="patch_29">
    <path d="M 162.650968 329.558125 
L 166.579163 329.558125 
L 166.579163 329.558125 
L 162.650968 329.558125 
z
" clip-path="url(#p2c22d0ec6d)" style="fill: #1f77b4; fill-opacity: 0.5; stroke: #000000; stroke-width: 0.405145; stroke-linejoin: miter"/>
   </g>
   <g id="patch_30">
    <path d="M 166.579163 329.558125 
L 170.507358 329.558125 
L 170.507358 328.084022 
L 166.579163 328.084022 
z
" clip-path="url(#p2c22d0ec6d)" style="fill: #1f77b4; fill-opacity: 0.5; stroke: #000000; stroke-width: 0.405145; stroke-linejoin: miter"/>
   </g>
   <g id="patch_31">
    <path d="M 170.507358 329.558125 
L 174.435553 329.558125 
L 174.435553 329.558125 
L 170.507358 329.558125 
z
" clip-path="url(#p2c22d0ec6d)" style="fill: #1f77b4; fill-opacity: 0.5; stroke: #000000; stroke-width: 0.405145; stroke-linejoin: miter"/>
   </g>
   <g id="patch_32">
    <path d="M 174.435553 329.558125 
L 178.363748 329.558125 
L 178.363748 328.821073 
L 174.435553 328.821073 
z
" clip-path="url(#p2c22d0ec6d)" style="fill: #1f77b4; fill-opacity: 0.5; stroke: #000000; stroke-width: 0.405145; stroke-linejoin: miter"/>
   </g>
   <g id="patch_33">
    <path d="M 178.363748 329.558125 
L 182.291943 329.558125 
L 182.291943 329.558125 
L 178.363748 329.558125 
z
" clip-path="url(#p2c22d0ec6d)" style="fill: #1f77b4; fill-opacity: 0.5; stroke: #000000; stroke-width: 0.405145; stroke-linejoin: miter"/>
   </g>
   <g id="patch_34">
    <path d="M 182.291943 329.558125 
L 186.220138 329.558125 
L 186.220138 328.084022 
L 182.291943 328.084022 
z
" clip-path="url(#p2c22d0ec6d)" style="fill: #1f77b4; fill-opacity: 0.5; stroke: #000000; stroke-width: 0.405145; stroke-linejoin: miter"/>
   </g>
   <g id="patch_35">
    <path d="M 186.220138 329.558125 
L 190.148333 329.558125 
L 190.148333 328.821073 
L 186.220138 328.821073 
z
" clip-path="url(#p2c22d0ec6d)" style="fill: #1f77b4; fill-opacity: 0.5; stroke: #000000; stroke-width: 0.405145; stroke-linejoin: miter"/>
   </g>
   <g id="patch_36">
    <path d="M 190.148333 329.558125 
L 194.076528 329.558125 
L 194.076528 328.821073 
L 190.148333 328.821073 
z
" clip-path="url(#p2c22d0ec6d)" style="fill: #1f77b4; fill-opacity: 0.5; stroke: #000000; stroke-width: 0.405145; stroke-linejoin: miter"/>
   </g>
   <g id="patch_37">
    <path d="M 194.076528 329.558125 
L 198.004722 329.558125 
L 198.004722 328.821073 
L 194.076528 328.821073 
z
" clip-path="url(#p2c22d0ec6d)" style="fill: #1f77b4; fill-opacity: 0.5; stroke: #000000; stroke-width: 0.405145; stroke-linejoin: miter"/>
   </g>
   <g id="patch_38">
    <path d="M 198.004722 329.558125 
L 201.932917 329.558125 
L 201.932917 327.34697 
L 198.004722 327.34697 
z
" clip-path="url(#p2c22d0ec6d)" style="fill: #1f77b4; fill-opacity: 0.5; stroke: #000000; stroke-width: 0.405145; stroke-linejoin: miter"/>
   </g>
   <g id="patch_39">
    <path d="M 201.932917 329.558125 
L 205.861112 329.558125 
L 205.861112 329.558125 
L 201.932917 329.558125 
z
" clip-path="url(#p2c22d0ec6d)" style="fill: #1f77b4; fill-opacity: 0.5; stroke: #000000; stroke-width: 0.405145; stroke-linejoin: miter"/>
   </g>
   <g id="patch_40">
    <path d="M 205.861112 329.558125 
L 209.789307 329.558125 
L 209.789307 329.558125 
L 205.861112 329.558125 
z
" clip-path="url(#p2c22d0ec6d)" style="fill: #1f77b4; fill-opacity: 0.5; stroke: #000000; stroke-width: 0.405145; stroke-linejoin: miter"/>
   </g>
   <g id="patch_41">
    <path d="M 209.789307 329.558125 
L 213.717502 329.558125 
L 213.717502 328.821073 
L 209.789307 328.821073 
z
" clip-path="url(#p2c22d0ec6d)" style="fill: #1f77b4; fill-opacity: 0.5; stroke: #000000; stroke-width: 0.405145; stroke-linejoin: miter"/>
   </g>
   <g id="patch_42">
    <path d="M 213.717502 329.558125 
L 217.645697 329.558125 
L 217.645697 328.821073 
L 213.717502 328.821073 
z
" clip-path="url(#p2c22d0ec6d)" style="fill: #1f77b4; fill-opacity: 0.5; stroke: #000000; stroke-width: 0.405145; stroke-linejoin: miter"/>
   </g>
   <g id="patch_43">
    <path d="M 217.645697 329.558125 
L 221.573892 329.558125 
L 221.573892 329.558125 
L 217.645697 329.558125 
z
" clip-path="url(#p2c22d0ec6d)" style="fill: #1f77b4; fill-opacity: 0.5; stroke: #000000; stroke-width: 0.405145; stroke-linejoin: miter"/>
   </g>
   <g id="patch_44">
    <path d="M 221.573892 329.558125 
L 225.502087 329.558125 
L 225.502087 329.558125 
L 221.573892 329.558125 
z
" clip-path="url(#p2c22d0ec6d)" style="fill: #1f77b4; fill-opacity: 0.5; stroke: #000000; stroke-width: 0.405145; stroke-linejoin: miter"/>
   </g>
   <g id="patch_45">
    <path d="M 225.502087 329.558125 
L 229.430282 329.558125 
L 229.430282 329.558125 
L 225.502087 329.558125 
z
" clip-path="url(#p2c22d0ec6d)" style="fill: #1f77b4; fill-opacity: 0.5; stroke: #000000; stroke-width: 0.405145; stroke-linejoin: miter"/>
   </g>
   <g id="patch_46">
    <path d="M 229.430282 329.558125 
L 233.358477 329.558125 
L 233.358477 329.558125 
L 229.430282 329.558125 
z
" clip-path="url(#p2c22d0ec6d)" style="fill: #1f77b4; fill-opacity: 0.5; stroke: #000000; stroke-width: 0.405145; stroke-linejoin: miter"/>
   </g>
   <g id="patch_47">
    <path d="M 233.358477 329.558125 
L 237.286672 329.558125 
L 237.286672 329.558125 
L 233.358477 329.558125 
z
" clip-path="url(#p2c22d0ec6d)" style="fill: #1f77b4; fill-opacity: 0.5; stroke: #000000; stroke-width: 0.405145; stroke-linejoin: miter"/>
   </g>
   <g id="patch_48">
    <path d="M 237.286672 329.558125 
L 241.214867 329.558125 
L 241.214867 329.558125 
L 237.286672 329.558125 
z
" clip-path="url(#p2c22d0ec6d)" style="fill: #1f77b4; fill-opacity: 0.5; stroke: #000000; stroke-width: 0.405145; stroke-linejoin: miter"/>
   </g>
   <g id="patch_49">
    <path d="M 241.214867 329.558125 
L 245.143062 329.558125 
L 245.143062 329.558125 
L 241.214867 329.558125 
z
" clip-path="url(#p2c22d0ec6d)" style="fill: #1f77b4; fill-opacity: 0.5; stroke: #000000; stroke-width: 0.405145; stroke-linejoin: miter"/>
   </g>
   <g id="patch_50">
    <path d="M 245.143062 329.558125 
L 249.071257 329.558125 
L 249.071257 329.558125 
L 245.143062 329.558125 
z
" clip-path="url(#p2c22d0ec6d)" style="fill: #1f77b4; fill-opacity: 0.5; stroke: #000000; stroke-width: 0.405145; stroke-linejoin: miter"/>
   </g>
   <g id="patch_51">
    <path d="M 249.071257 329.558125 
L 252.999452 329.558125 
L 252.999452 329.558125 
L 249.071257 329.558125 
z
" clip-path="url(#p2c22d0ec6d)" style="fill: #1f77b4; fill-opacity: 0.5; stroke: #000000; stroke-width: 0.405145; stroke-linejoin: miter"/>
   </g>
   <g id="patch_52">
    <path d="M 252.999452 329.558125 
L 256.927647 329.558125 
L 256.927647 329.558125 
L 252.999452 329.558125 
z
" clip-path="url(#p2c22d0ec6d)" style="fill: #1f77b4; fill-opacity: 0.5; stroke: #000000; stroke-width: 0.405145; stroke-linejoin: miter"/>
   </g>
   <g id="patch_53">
    <path d="M 256.927647 329.558125 
L 260.855842 329.558125 
L 260.855842 329.558125 
L 256.927647 329.558125 
z
" clip-path="url(#p2c22d0ec6d)" style="fill: #1f77b4; fill-opacity: 0.5; stroke: #000000; stroke-width: 0.405145; stroke-linejoin: miter"/>
   </g>
   <g id="patch_54">
    <path d="M 260.855842 329.558125 
L 264.784037 329.558125 
L 264.784037 329.558125 
L 260.855842 329.558125 
z
" clip-path="url(#p2c22d0ec6d)" style="fill: #1f77b4; fill-opacity: 0.5; stroke: #000000; stroke-width: 0.405145; stroke-linejoin: miter"/>
   </g>
   <g id="patch_55">
    <path d="M 264.784037 329.558125 
L 268.712232 329.558125 
L 268.712232 328.821073 
L 264.784037 328.821073 
z
" clip-path="url(#p2c22d0ec6d)" style="fill: #1f77b4; fill-opacity: 0.5; stroke: #000000; stroke-width: 0.405145; stroke-linejoin: miter"/>
   </g>
   <g id="patch_56">
    <path d="M 268.712232 329.558125 
L 272.640427 329.558125 
L 272.640427 329.558125 
L 268.712232 329.558125 
z
" clip-path="url(#p2c22d0ec6d)" style="fill: #1f77b4; fill-opacity: 0.5; stroke: #000000; stroke-width: 0.405145; stroke-linejoin: miter"/>
   </g>
   <g id="patch_57">
    <path d="M 272.640427 329.558125 
L 276.568622 329.558125 
L 276.568622 329.558125 
L 272.640427 329.558125 
z
" clip-path="url(#p2c22d0ec6d)" style="fill: #1f77b4; fill-opacity: 0.5; stroke: #000000; stroke-width: 0.405145; stroke-linejoin: miter"/>
   </g>
   <g id="patch_58">
    <path d="M 276.568622 329.558125 
L 280.496817 329.558125 
L 280.496817 329.558125 
L 276.568622 329.558125 
z
" clip-path="url(#p2c22d0ec6d)" style="fill: #1f77b4; fill-opacity: 0.5; stroke: #000000; stroke-width: 0.405145; stroke-linejoin: miter"/>
   </g>
   <g id="patch_59">
    <path d="M 280.496817 329.558125 
L 284.425012 329.558125 
L 284.425012 329.558125 
L 280.496817 329.558125 
z
" clip-path="url(#p2c22d0ec6d)" style="fill: #1f77b4; fill-opacity: 0.5; stroke: #000000; stroke-width: 0.405145; stroke-linejoin: miter"/>
   </g>
   <g id="patch_60">
    <path d="M 284.425012 329.558125 
L 288.353207 329.558125 
L 288.353207 329.558125 
L 284.425012 329.558125 
z
" clip-path="url(#p2c22d0ec6d)" style="fill: #1f77b4; fill-opacity: 0.5; stroke: #000000; stroke-width: 0.405145; stroke-linejoin: miter"/>
   </g>
   <g id="patch_61">
    <path d="M 288.353207 329.558125 
L 292.281402 329.558125 
L 292.281402 329.558125 
L 288.353207 329.558125 
z
" clip-path="url(#p2c22d0ec6d)" style="fill: #1f77b4; fill-opacity: 0.5; stroke: #000000; stroke-width: 0.405145; stroke-linejoin: miter"/>
   </g>
   <g id="patch_62">
    <path d="M 292.281402 329.558125 
L 296.209597 329.558125 
L 296.209597 329.558125 
L 292.281402 329.558125 
z
" clip-path="url(#p2c22d0ec6d)" style="fill: #1f77b4; fill-opacity: 0.5; stroke: #000000; stroke-width: 0.405145; stroke-linejoin: miter"/>
   </g>
   <g id="patch_63">
    <path d="M 296.209597 329.558125 
L 300.137792 329.558125 
L 300.137792 329.558125 
L 296.209597 329.558125 
z
" clip-path="url(#p2c22d0ec6d)" style="fill: #1f77b4; fill-opacity: 0.5; stroke: #000000; stroke-width: 0.405145; stroke-linejoin: miter"/>
   </g>
   <g id="patch_64">
    <path d="M 300.137792 329.558125 
L 304.065987 329.558125 
L 304.065987 328.821073 
L 300.137792 328.821073 
z
" clip-path="url(#p2c22d0ec6d)" style="fill: #1f77b4; fill-opacity: 0.5; stroke: #000000; stroke-width: 0.405145; stroke-linejoin: miter"/>
   </g>
   <g id="patch_65">
    <path d="M 304.065987 329.558125 
L 307.994182 329.558125 
L 307.994182 329.558125 
L 304.065987 329.558125 
z
" clip-path="url(#p2c22d0ec6d)" style="fill: #1f77b4; fill-opacity: 0.5; stroke: #000000; stroke-width: 0.405145; stroke-linejoin: miter"/>
   </g>
   <g id="patch_66">
    <path d="M 307.994182 329.558125 
L 311.922377 329.558125 
L 311.922377 329.558125 
L 307.994182 329.558125 
z
" clip-path="url(#p2c22d0ec6d)" style="fill: #1f77b4; fill-opacity: 0.5; stroke: #000000; stroke-width: 0.405145; stroke-linejoin: miter"/>
   </g>
   <g id="patch_67">
    <path d="M 311.922377 329.558125 
L 315.850572 329.558125 
L 315.850572 329.558125 
L 311.922377 329.558125 
z
" clip-path="url(#p2c22d0ec6d)" style="fill: #1f77b4; fill-opacity: 0.5; stroke: #000000; stroke-width: 0.405145; stroke-linejoin: miter"/>
   </g>
   <g id="patch_68">
    <path d="M 315.850572 329.558125 
L 319.778767 329.558125 
L 319.778767 329.558125 
L 315.850572 329.558125 
z
" clip-path="url(#p2c22d0ec6d)" style="fill: #1f77b4; fill-opacity: 0.5; stroke: #000000; stroke-width: 0.405145; stroke-linejoin: miter"/>
   </g>
   <g id="patch_69">
    <path d="M 319.778767 329.558125 
L 323.706962 329.558125 
L 323.706962 329.558125 
L 319.778767 329.558125 
z
" clip-path="url(#p2c22d0ec6d)" style="fill: #1f77b4; fill-opacity: 0.5; stroke: #000000; stroke-width: 0.405145; stroke-linejoin: miter"/>
   </g>
   <g id="patch_70">
    <path d="M 323.706962 329.558125 
L 327.635157 329.558125 
L 327.635157 329.558125 
L 323.706962 329.558125 
z
" clip-path="url(#p2c22d0ec6d)" style="fill: #1f77b4; fill-opacity: 0.5; stroke: #000000; stroke-width: 0.405145; stroke-linejoin: miter"/>
   </g>
   <g id="patch_71">
    <path d="M 327.635157 329.558125 
L 331.563352 329.558125 
L 331.563352 328.821073 
L 327.635157 328.821073 
z
" clip-path="url(#p2c22d0ec6d)" style="fill: #1f77b4; fill-opacity: 0.5; stroke: #000000; stroke-width: 0.405145; stroke-linejoin: miter"/>
   </g>
   <g id="matplotlib.axis_1">
    <g id="xtick_1">
     <g id="line2d_1">
      <defs>
       <path id="mcb2dd8e21d" d="M 0 0 
L 0 3.5 
" style="stroke: #000000; stroke-width: 0.8"/>
      </defs>
      <g>
       <use xlink:href="#mcb2dd8e21d" x="59.973797" y="329.558125" style="stroke: #000000; stroke-width: 0.8"/>
      </g>
     </g>
     <g id="text_1">
      <!-- 0 -->
      <g transform="translate(56.792547 344.156562) scale(0.1 -0.1)">
       <defs>
        <path id="DejaVuSans-30" d="M 2034 4250 
Q 1547 4250 1301 3770 
Q 1056 3291 1056 2328 
Q 1056 1369 1301 889 
Q 1547 409 2034 409 
Q 2525 409 2770 889 
Q 3016 1369 3016 2328 
Q 3016 3291 2770 3770 
Q 2525 4250 2034 4250 
z
M 2034 4750 
Q 2819 4750 3233 4129 
Q 3647 3509 3647 2328 
Q 3647 1150 3233 529 
Q 2819 -91 2034 -91 
Q 1250 -91 836 529 
Q 422 1150 422 2328 
Q 422 3509 836 4129 
Q 1250 4750 2034 4750 
z
" transform="scale(0.015625)"/>
       </defs>
       <use xlink:href="#DejaVuSans-30"/>
      </g>
     </g>
    </g>
    <g id="xtick_2">
     <g id="line2d_2">
      <g>
       <use xlink:href="#mcb2dd8e21d" x="101.332577" y="329.558125" style="stroke: #000000; stroke-width: 0.8"/>
      </g>
     </g>
     <g id="text_2">
      <!-- 200 -->
      <g transform="translate(91.788827 344.156562) scale(0.1 -0.1)">
       <defs>
        <path id="DejaVuSans-32" d="M 1228 531 
L 3431 531 
L 3431 0 
L 469 0 
L 469 531 
Q 828 903 1448 1529 
Q 2069 2156 2228 2338 
Q 2531 2678 2651 2914 
Q 2772 3150 2772 3378 
Q 2772 3750 2511 3984 
Q 2250 4219 1831 4219 
Q 1534 4219 1204 4116 
Q 875 4013 500 3803 
L 500 4441 
Q 881 4594 1212 4672 
Q 1544 4750 1819 4750 
Q 2544 4750 2975 4387 
Q 3406 4025 3406 3419 
Q 3406 3131 3298 2873 
Q 3191 2616 2906 2266 
Q 2828 2175 2409 1742 
Q 1991 1309 1228 531 
z
" transform="scale(0.015625)"/>
       </defs>
       <use xlink:href="#DejaVuSans-32"/>
       <use xlink:href="#DejaVuSans-30" x="63.623047"/>
       <use xlink:href="#DejaVuSans-30" x="127.246094"/>
      </g>
     </g>
    </g>
    <g id="xtick_3">
     <g id="line2d_3">
      <g>
       <use xlink:href="#mcb2dd8e21d" x="142.691357" y="329.558125" style="stroke: #000000; stroke-width: 0.8"/>
      </g>
     </g>
     <g id="text_3">
      <!-- 400 -->
      <g transform="translate(133.147607 344.156562) scale(0.1 -0.1)">
       <defs>
        <path id="DejaVuSans-34" d="M 2419 4116 
L 825 1625 
L 2419 1625 
L 2419 4116 
z
M 2253 4666 
L 3047 4666 
L 3047 1625 
L 3713 1625 
L 3713 1100 
L 3047 1100 
L 3047 0 
L 2419 0 
L 2419 1100 
L 313 1100 
L 313 1709 
L 2253 4666 
z
" transform="scale(0.015625)"/>
       </defs>
       <use xlink:href="#DejaVuSans-34"/>
       <use xlink:href="#DejaVuSans-30" x="63.623047"/>
       <use xlink:href="#DejaVuSans-30" x="127.246094"/>
      </g>
     </g>
    </g>
    <g id="xtick_4">
     <g id="line2d_4">
      <g>
       <use xlink:href="#mcb2dd8e21d" x="184.050137" y="329.558125" style="stroke: #000000; stroke-width: 0.8"/>
      </g>
     </g>
     <g id="text_4">
      <!-- 600 -->
      <g transform="translate(174.506387 344.156562) scale(0.1 -0.1)">
       <defs>
        <path id="DejaVuSans-36" d="M 2113 2584 
Q 1688 2584 1439 2293 
Q 1191 2003 1191 1497 
Q 1191 994 1439 701 
Q 1688 409 2113 409 
Q 2538 409 2786 701 
Q 3034 994 3034 1497 
Q 3034 2003 2786 2293 
Q 2538 2584 2113 2584 
z
M 3366 4563 
L 3366 3988 
Q 3128 4100 2886 4159 
Q 2644 4219 2406 4219 
Q 1781 4219 1451 3797 
Q 1122 3375 1075 2522 
Q 1259 2794 1537 2939 
Q 1816 3084 2150 3084 
Q 2853 3084 3261 2657 
Q 3669 2231 3669 1497 
Q 3669 778 3244 343 
Q 2819 -91 2113 -91 
Q 1303 -91 875 529 
Q 447 1150 447 2328 
Q 447 3434 972 4092 
Q 1497 4750 2381 4750 
Q 2619 4750 2861 4703 
Q 3103 4656 3366 4563 
z
" transform="scale(0.015625)"/>
       </defs>
       <use xlink:href="#DejaVuSans-36"/>
       <use xlink:href="#DejaVuSans-30" x="63.623047"/>
       <use xlink:href="#DejaVuSans-30" x="127.246094"/>
      </g>
     </g>
    </g>
    <g id="xtick_5">
     <g id="line2d_5">
      <g>
       <use xlink:href="#mcb2dd8e21d" x="225.408916" y="329.558125" style="stroke: #000000; stroke-width: 0.8"/>
      </g>
     </g>
     <g id="text_5">
      <!-- 800 -->
      <g transform="translate(215.865166 344.156562) scale(0.1 -0.1)">
       <defs>
        <path id="DejaVuSans-38" d="M 2034 2216 
Q 1584 2216 1326 1975 
Q 1069 1734 1069 1313 
Q 1069 891 1326 650 
Q 1584 409 2034 409 
Q 2484 409 2743 651 
Q 3003 894 3003 1313 
Q 3003 1734 2745 1975 
Q 2488 2216 2034 2216 
z
M 1403 2484 
Q 997 2584 770 2862 
Q 544 3141 544 3541 
Q 544 4100 942 4425 
Q 1341 4750 2034 4750 
Q 2731 4750 3128 4425 
Q 3525 4100 3525 3541 
Q 3525 3141 3298 2862 
Q 3072 2584 2669 2484 
Q 3125 2378 3379 2068 
Q 3634 1759 3634 1313 
Q 3634 634 3220 271 
Q 2806 -91 2034 -91 
Q 1263 -91 848 271 
Q 434 634 434 1313 
Q 434 1759 690 2068 
Q 947 2378 1403 2484 
z
M 1172 3481 
Q 1172 3119 1398 2916 
Q 1625 2713 2034 2713 
Q 2441 2713 2670 2916 
Q 2900 3119 2900 3481 
Q 2900 3844 2670 4047 
Q 2441 4250 2034 4250 
Q 1625 4250 1398 4047 
Q 1172 3844 1172 3481 
z
" transform="scale(0.015625)"/>
       </defs>
       <use xlink:href="#DejaVuSans-38"/>
       <use xlink:href="#DejaVuSans-30" x="63.623047"/>
       <use xlink:href="#DejaVuSans-30" x="127.246094"/>
      </g>
     </g>
    </g>
    <g id="xtick_6">
     <g id="line2d_6">
      <g>
       <use xlink:href="#mcb2dd8e21d" x="266.767696" y="329.558125" style="stroke: #000000; stroke-width: 0.8"/>
      </g>
     </g>
     <g id="text_6">
      <!-- 1000 -->
      <g transform="translate(254.042696 344.156562) scale(0.1 -0.1)">
       <defs>
        <path id="DejaVuSans-31" d="M 794 531 
L 1825 531 
L 1825 4091 
L 703 3866 
L 703 4441 
L 1819 4666 
L 2450 4666 
L 2450 531 
L 3481 531 
L 3481 0 
L 794 0 
L 794 531 
z
" transform="scale(0.015625)"/>
       </defs>
       <use xlink:href="#DejaVuSans-31"/>
       <use xlink:href="#DejaVuSans-30" x="63.623047"/>
       <use xlink:href="#DejaVuSans-30" x="127.246094"/>
       <use xlink:href="#DejaVuSans-30" x="190.869141"/>
      </g>
     </g>
    </g>
    <g id="xtick_7">
     <g id="line2d_7">
      <g>
       <use xlink:href="#mcb2dd8e21d" x="308.126476" y="329.558125" style="stroke: #000000; stroke-width: 0.8"/>
      </g>
     </g>
     <g id="text_7">
      <!-- 1200 -->
      <g transform="translate(295.401476 344.156562) scale(0.1 -0.1)">
       <use xlink:href="#DejaVuSans-31"/>
       <use xlink:href="#DejaVuSans-32" x="63.623047"/>
       <use xlink:href="#DejaVuSans-30" x="127.246094"/>
       <use xlink:href="#DejaVuSans-30" x="190.869141"/>
      </g>
     </g>
    </g>
    <g id="text_8">
     <!-- uACR -->
     <g transform="translate(182.573438 357.834687) scale(0.1 -0.1)">
      <defs>
       <path id="DejaVuSans-75" d="M 544 1381 
L 544 3500 
L 1119 3500 
L 1119 1403 
Q 1119 906 1312 657 
Q 1506 409 1894 409 
Q 2359 409 2629 706 
Q 2900 1003 2900 1516 
L 2900 3500 
L 3475 3500 
L 3475 0 
L 2900 0 
L 2900 538 
Q 2691 219 2414 64 
Q 2138 -91 1772 -91 
Q 1169 -91 856 284 
Q 544 659 544 1381 
z
M 1991 3584 
L 1991 3584 
z
" transform="scale(0.015625)"/>
       <path id="DejaVuSans-41" d="M 2188 4044 
L 1331 1722 
L 3047 1722 
L 2188 4044 
z
M 1831 4666 
L 2547 4666 
L 4325 0 
L 3669 0 
L 3244 1197 
L 1141 1197 
L 716 0 
L 50 0 
L 1831 4666 
z
" transform="scale(0.015625)"/>
       <path id="DejaVuSans-43" d="M 4122 4306 
L 4122 3641 
Q 3803 3938 3442 4084 
Q 3081 4231 2675 4231 
Q 1875 4231 1450 3742 
Q 1025 3253 1025 2328 
Q 1025 1406 1450 917 
Q 1875 428 2675 428 
Q 3081 428 3442 575 
Q 3803 722 4122 1019 
L 4122 359 
Q 3791 134 3420 21 
Q 3050 -91 2638 -91 
Q 1578 -91 968 557 
Q 359 1206 359 2328 
Q 359 3453 968 4101 
Q 1578 4750 2638 4750 
Q 3056 4750 3426 4639 
Q 3797 4528 4122 4306 
z
" transform="scale(0.015625)"/>
       <path id="DejaVuSans-52" d="M 2841 2188 
Q 3044 2119 3236 1894 
Q 3428 1669 3622 1275 
L 4263 0 
L 3584 0 
L 2988 1197 
Q 2756 1666 2539 1819 
Q 2322 1972 1947 1972 
L 1259 1972 
L 1259 0 
L 628 0 
L 628 4666 
L 2053 4666 
Q 2853 4666 3247 4331 
Q 3641 3997 3641 3322 
Q 3641 2881 3436 2590 
Q 3231 2300 2841 2188 
z
M 1259 4147 
L 1259 2491 
L 2053 2491 
Q 2509 2491 2742 2702 
Q 2975 2913 2975 3322 
Q 2975 3731 2742 3939 
Q 2509 4147 2053 4147 
L 1259 4147 
z
" transform="scale(0.015625)"/>
      </defs>
      <use xlink:href="#DejaVuSans-75"/>
      <use xlink:href="#DejaVuSans-41" x="63.378906"/>
      <use xlink:href="#DejaVuSans-43" x="130.037109"/>
      <use xlink:href="#DejaVuSans-52" x="199.861328"/>
     </g>
    </g>
   </g>
   <g id="matplotlib.axis_2">
    <g id="ytick_1">
     <g id="line2d_8">
      <defs>
       <path id="m754d92bb58" d="M 0 0 
L -3.5 0 
" style="stroke: #000000; stroke-width: 0.8"/>
      </defs>
      <g>
       <use xlink:href="#m754d92bb58" x="46.965625" y="329.558125" style="stroke: #000000; stroke-width: 0.8"/>
      </g>
     </g>
     <g id="text_9">
      <!-- 0 -->
      <g transform="translate(33.603125 333.357344) scale(0.1 -0.1)">
       <use xlink:href="#DejaVuSans-30"/>
      </g>
     </g>
    </g>
    <g id="ytick_2">
     <g id="line2d_9">
      <g>
       <use xlink:href="#m754d92bb58" x="46.965625" y="292.70554" style="stroke: #000000; stroke-width: 0.8"/>
      </g>
     </g>
     <g id="text_10">
      <!-- 50 -->
      <g transform="translate(27.240625 296.504759) scale(0.1 -0.1)">
       <defs>
        <path id="DejaVuSans-35" d="M 691 4666 
L 3169 4666 
L 3169 4134 
L 1269 4134 
L 1269 2991 
Q 1406 3038 1543 3061 
Q 1681 3084 1819 3084 
Q 2600 3084 3056 2656 
Q 3513 2228 3513 1497 
Q 3513 744 3044 326 
Q 2575 -91 1722 -91 
Q 1428 -91 1123 -41 
Q 819 9 494 109 
L 494 744 
Q 775 591 1075 516 
Q 1375 441 1709 441 
Q 2250 441 2565 725 
Q 2881 1009 2881 1497 
Q 2881 1984 2565 2268 
Q 2250 2553 1709 2553 
Q 1456 2553 1204 2497 
Q 953 2441 691 2322 
L 691 4666 
z
" transform="scale(0.015625)"/>
       </defs>
       <use xlink:href="#DejaVuSans-35"/>
       <use xlink:href="#DejaVuSans-30" x="63.623047"/>
      </g>
     </g>
    </g>
    <g id="ytick_3">
     <g id="line2d_10">
      <g>
       <use xlink:href="#m754d92bb58" x="46.965625" y="255.852955" style="stroke: #000000; stroke-width: 0.8"/>
      </g>
     </g>
     <g id="text_11">
      <!-- 100 -->
      <g transform="translate(20.878125 259.652174) scale(0.1 -0.1)">
       <use xlink:href="#DejaVuSans-31"/>
       <use xlink:href="#DejaVuSans-30" x="63.623047"/>
       <use xlink:href="#DejaVuSans-30" x="127.246094"/>
      </g>
     </g>
    </g>
    <g id="ytick_4">
     <g id="line2d_11">
      <g>
       <use xlink:href="#m754d92bb58" x="46.965625" y="219.00037" style="stroke: #000000; stroke-width: 0.8"/>
      </g>
     </g>
     <g id="text_12">
      <!-- 150 -->
      <g transform="translate(20.878125 222.799589) scale(0.1 -0.1)">
       <use xlink:href="#DejaVuSans-31"/>
       <use xlink:href="#DejaVuSans-35" x="63.623047"/>
       <use xlink:href="#DejaVuSans-30" x="127.246094"/>
      </g>
     </g>
    </g>
    <g id="ytick_5">
     <g id="line2d_12">
      <g>
       <use xlink:href="#m754d92bb58" x="46.965625" y="182.147786" style="stroke: #000000; stroke-width: 0.8"/>
      </g>
     </g>
     <g id="text_13">
      <!-- 200 -->
      <g transform="translate(20.878125 185.947004) scale(0.1 -0.1)">
       <use xlink:href="#DejaVuSans-32"/>
       <use xlink:href="#DejaVuSans-30" x="63.623047"/>
       <use xlink:href="#DejaVuSans-30" x="127.246094"/>
      </g>
     </g>
    </g>
    <g id="ytick_6">
     <g id="line2d_13">
      <g>
       <use xlink:href="#m754d92bb58" x="46.965625" y="145.295201" style="stroke: #000000; stroke-width: 0.8"/>
      </g>
     </g>
     <g id="text_14">
      <!-- 250 -->
      <g transform="translate(20.878125 149.094419) scale(0.1 -0.1)">
       <use xlink:href="#DejaVuSans-32"/>
       <use xlink:href="#DejaVuSans-35" x="63.623047"/>
       <use xlink:href="#DejaVuSans-30" x="127.246094"/>
      </g>
     </g>
    </g>
    <g id="ytick_7">
     <g id="line2d_14">
      <g>
       <use xlink:href="#m754d92bb58" x="46.965625" y="108.442616" style="stroke: #000000; stroke-width: 0.8"/>
      </g>
     </g>
     <g id="text_15">
      <!-- 300 -->
      <g transform="translate(20.878125 112.241835) scale(0.1 -0.1)">
       <defs>
        <path id="DejaVuSans-33" d="M 2597 2516 
Q 3050 2419 3304 2112 
Q 3559 1806 3559 1356 
Q 3559 666 3084 287 
Q 2609 -91 1734 -91 
Q 1441 -91 1130 -33 
Q 819 25 488 141 
L 488 750 
Q 750 597 1062 519 
Q 1375 441 1716 441 
Q 2309 441 2620 675 
Q 2931 909 2931 1356 
Q 2931 1769 2642 2001 
Q 2353 2234 1838 2234 
L 1294 2234 
L 1294 2753 
L 1863 2753 
Q 2328 2753 2575 2939 
Q 2822 3125 2822 3475 
Q 2822 3834 2567 4026 
Q 2313 4219 1838 4219 
Q 1578 4219 1281 4162 
Q 984 4106 628 3988 
L 628 4550 
Q 988 4650 1302 4700 
Q 1616 4750 1894 4750 
Q 2613 4750 3031 4423 
Q 3450 4097 3450 3541 
Q 3450 3153 3228 2886 
Q 3006 2619 2597 2516 
z
" transform="scale(0.015625)"/>
       </defs>
       <use xlink:href="#DejaVuSans-33"/>
       <use xlink:href="#DejaVuSans-30" x="63.623047"/>
       <use xlink:href="#DejaVuSans-30" x="127.246094"/>
      </g>
     </g>
    </g>
    <g id="ytick_8">
     <g id="line2d_15">
      <g>
       <use xlink:href="#m754d92bb58" x="46.965625" y="71.590031" style="stroke: #000000; stroke-width: 0.8"/>
      </g>
     </g>
     <g id="text_16">
      <!-- 350 -->
      <g transform="translate(20.878125 75.38925) scale(0.1 -0.1)">
       <use xlink:href="#DejaVuSans-33"/>
       <use xlink:href="#DejaVuSans-35" x="63.623047"/>
       <use xlink:href="#DejaVuSans-30" x="127.246094"/>
      </g>
     </g>
    </g>
    <g id="ytick_9">
     <g id="line2d_16">
      <g>
       <use xlink:href="#m754d92bb58" x="46.965625" y="34.737446" style="stroke: #000000; stroke-width: 0.8"/>
      </g>
     </g>
     <g id="text_17">
      <!-- 400 -->
      <g transform="translate(20.878125 38.536665) scale(0.1 -0.1)">
       <use xlink:href="#DejaVuSans-34"/>
       <use xlink:href="#DejaVuSans-30" x="63.623047"/>
       <use xlink:href="#DejaVuSans-30" x="127.246094"/>
      </g>
     </g>
    </g>
    <g id="text_18">
     <!-- Count -->
     <g transform="translate(14.798438 190.786562) rotate(-90) scale(0.1 -0.1)">
      <defs>
       <path id="DejaVuSans-6f" d="M 1959 3097 
Q 1497 3097 1228 2736 
Q 959 2375 959 1747 
Q 959 1119 1226 758 
Q 1494 397 1959 397 
Q 2419 397 2687 759 
Q 2956 1122 2956 1747 
Q 2956 2369 2687 2733 
Q 2419 3097 1959 3097 
z
M 1959 3584 
Q 2709 3584 3137 3096 
Q 3566 2609 3566 1747 
Q 3566 888 3137 398 
Q 2709 -91 1959 -91 
Q 1206 -91 779 398 
Q 353 888 353 1747 
Q 353 2609 779 3096 
Q 1206 3584 1959 3584 
z
" transform="scale(0.015625)"/>
       <path id="DejaVuSans-6e" d="M 3513 2113 
L 3513 0 
L 2938 0 
L 2938 2094 
Q 2938 2591 2744 2837 
Q 2550 3084 2163 3084 
Q 1697 3084 1428 2787 
Q 1159 2491 1159 1978 
L 1159 0 
L 581 0 
L 581 3500 
L 1159 3500 
L 1159 2956 
Q 1366 3272 1645 3428 
Q 1925 3584 2291 3584 
Q 2894 3584 3203 3211 
Q 3513 2838 3513 2113 
z
" transform="scale(0.015625)"/>
       <path id="DejaVuSans-74" d="M 1172 4494 
L 1172 3500 
L 2356 3500 
L 2356 3053 
L 1172 3053 
L 1172 1153 
Q 1172 725 1289 603 
Q 1406 481 1766 481 
L 2356 481 
L 2356 0 
L 1766 0 
Q 1100 0 847 248 
Q 594 497 594 1153 
L 594 3053 
L 172 3053 
L 172 3500 
L 594 3500 
L 594 4494 
L 1172 4494 
z
" transform="scale(0.015625)"/>
      </defs>
      <use xlink:href="#DejaVuSans-43"/>
      <use xlink:href="#DejaVuSans-6f" x="69.824219"/>
      <use xlink:href="#DejaVuSans-75" x="131.005859"/>
      <use xlink:href="#DejaVuSans-6e" x="194.384766"/>
      <use xlink:href="#DejaVuSans-74" x="257.763672"/>
     </g>
    </g>
   </g>
   <g id="line2d_17">
    <path d="M 60.517898 259.090655 
L 61.879935 256.60549 
L 63.241973 255.915719 
L 64.60401 256.998132 
L 65.966048 259.686441 
L 67.328085 263.698245 
L 68.690122 268.67571 
L 74.138272 290.944877 
L 75.50031 295.720352 
L 76.862347 299.892879 
L 78.224385 303.446791 
L 79.586422 306.416527 
L 80.94846 308.868314 
L 82.310497 310.8836 
L 83.672535 312.545981 
L 85.034572 313.932219 
L 86.396609 315.107129 
L 89.120684 317.013017 
L 91.844759 318.518803 
L 94.568834 319.730826 
L 97.292909 320.68669 
L 100.016984 321.418483 
L 104.103096 322.220279 
L 110.913284 323.241434 
L 117.723471 324.047859 
L 123.171621 324.750584 
L 127.257733 325.521025 
L 134.067921 326.948781 
L 138.154033 327.511615 
L 142.240145 327.750061 
L 149.050333 327.776947 
L 154.498482 327.864108 
L 161.30867 328.247637 
L 169.480895 328.745623 
L 174.929044 328.872645 
L 183.101269 328.7995 
L 195.359606 328.683449 
L 203.531831 328.840443 
L 230.77258 329.53175 
L 249.841105 329.547248 
L 282.530004 329.527598 
L 294.788341 329.460259 
L 305.684641 329.425554 
L 322.02909 329.482747 
L 331.563352 329.409677 
L 331.563352 329.409677 
" clip-path="url(#p2c22d0ec6d)" style="fill: none; stroke: #1f77b4; stroke-width: 1.5; stroke-linecap: square"/>
   </g>
   <g id="patch_72">
    <path d="M 46.965625 329.558125 
L 46.965625 22.318125 
" style="fill: none; stroke: #000000; stroke-width: 0.8; stroke-linejoin: miter; stroke-linecap: square"/>
   </g>
   <g id="patch_73">
    <path d="M 46.965625 329.558125 
L 345.115625 329.558125 
" style="fill: none; stroke: #000000; stroke-width: 0.8; stroke-linejoin: miter; stroke-linecap: square"/>
   </g>
   <g id="text_19">
    <!-- Distribution of uACR -->
    <g transform="translate(135.280313 16.318125) scale(0.12 -0.12)">
     <defs>
      <path id="DejaVuSans-44" d="M 1259 4147 
L 1259 519 
L 2022 519 
Q 2988 519 3436 956 
Q 3884 1394 3884 2338 
Q 3884 3275 3436 3711 
Q 2988 4147 2022 4147 
L 1259 4147 
z
M 628 4666 
L 1925 4666 
Q 3281 4666 3915 4102 
Q 4550 3538 4550 2338 
Q 4550 1131 3912 565 
Q 3275 0 1925 0 
L 628 0 
L 628 4666 
z
" transform="scale(0.015625)"/>
      <path id="DejaVuSans-69" d="M 603 3500 
L 1178 3500 
L 1178 0 
L 603 0 
L 603 3500 
z
M 603 4863 
L 1178 4863 
L 1178 4134 
L 603 4134 
L 603 4863 
z
" transform="scale(0.015625)"/>
      <path id="DejaVuSans-73" d="M 2834 3397 
L 2834 2853 
Q 2591 2978 2328 3040 
Q 2066 3103 1784 3103 
Q 1356 3103 1142 2972 
Q 928 2841 928 2578 
Q 928 2378 1081 2264 
Q 1234 2150 1697 2047 
L 1894 2003 
Q 2506 1872 2764 1633 
Q 3022 1394 3022 966 
Q 3022 478 2636 193 
Q 2250 -91 1575 -91 
Q 1294 -91 989 -36 
Q 684 19 347 128 
L 347 722 
Q 666 556 975 473 
Q 1284 391 1588 391 
Q 1994 391 2212 530 
Q 2431 669 2431 922 
Q 2431 1156 2273 1281 
Q 2116 1406 1581 1522 
L 1381 1569 
Q 847 1681 609 1914 
Q 372 2147 372 2553 
Q 372 3047 722 3315 
Q 1072 3584 1716 3584 
Q 2034 3584 2315 3537 
Q 2597 3491 2834 3397 
z
" transform="scale(0.015625)"/>
      <path id="DejaVuSans-72" d="M 2631 2963 
Q 2534 3019 2420 3045 
Q 2306 3072 2169 3072 
Q 1681 3072 1420 2755 
Q 1159 2438 1159 1844 
L 1159 0 
L 581 0 
L 581 3500 
L 1159 3500 
L 1159 2956 
Q 1341 3275 1631 3429 
Q 1922 3584 2338 3584 
Q 2397 3584 2469 3576 
Q 2541 3569 2628 3553 
L 2631 2963 
z
" transform="scale(0.015625)"/>
      <path id="DejaVuSans-62" d="M 3116 1747 
Q 3116 2381 2855 2742 
Q 2594 3103 2138 3103 
Q 1681 3103 1420 2742 
Q 1159 2381 1159 1747 
Q 1159 1113 1420 752 
Q 1681 391 2138 391 
Q 2594 391 2855 752 
Q 3116 1113 3116 1747 
z
M 1159 2969 
Q 1341 3281 1617 3432 
Q 1894 3584 2278 3584 
Q 2916 3584 3314 3078 
Q 3713 2572 3713 1747 
Q 3713 922 3314 415 
Q 2916 -91 2278 -91 
Q 1894 -91 1617 61 
Q 1341 213 1159 525 
L 1159 0 
L 581 0 
L 581 4863 
L 1159 4863 
L 1159 2969 
z
" transform="scale(0.015625)"/>
      <path id="DejaVuSans-20" transform="scale(0.015625)"/>
      <path id="DejaVuSans-66" d="M 2375 4863 
L 2375 4384 
L 1825 4384 
Q 1516 4384 1395 4259 
Q 1275 4134 1275 3809 
L 1275 3500 
L 2222 3500 
L 2222 3053 
L 1275 3053 
L 1275 0 
L 697 0 
L 697 3053 
L 147 3053 
L 147 3500 
L 697 3500 
L 697 3744 
Q 697 4328 969 4595 
Q 1241 4863 1831 4863 
L 2375 4863 
z
" transform="scale(0.015625)"/>
     </defs>
     <use xlink:href="#DejaVuSans-44"/>
     <use xlink:href="#DejaVuSans-69" x="77.001953"/>
     <use xlink:href="#DejaVuSans-73" x="104.785156"/>
     <use xlink:href="#DejaVuSans-74" x="156.884766"/>
     <use xlink:href="#DejaVuSans-72" x="196.09375"/>
     <use xlink:href="#DejaVuSans-69" x="237.207031"/>
     <use xlink:href="#DejaVuSans-62" x="264.990234"/>
     <use xlink:href="#DejaVuSans-75" x="328.466797"/>
     <use xlink:href="#DejaVuSans-74" x="391.845703"/>
     <use xlink:href="#DejaVuSans-69" x="431.054688"/>
     <use xlink:href="#DejaVuSans-6f" x="458.837891"/>
     <use xlink:href="#DejaVuSans-6e" x="520.019531"/>
     <use xlink:href="#DejaVuSans-20" x="583.398438"/>
     <use xlink:href="#DejaVuSans-6f" x="615.185547"/>
     <use xlink:href="#DejaVuSans-66" x="676.367188"/>
     <use xlink:href="#DejaVuSans-20" x="711.572266"/>
     <use xlink:href="#DejaVuSans-75" x="743.359375"/>
     <use xlink:href="#DejaVuSans-41" x="806.738281"/>
     <use xlink:href="#DejaVuSans-43" x="873.396484"/>
     <use xlink:href="#DejaVuSans-52" x="943.220703"/>
    </g>
   </g>
  </g>
 </g>
 <defs>
  <clipPath id="p2c22d0ec6d">
   <rect x="46.965625" y="22.318125" width="298.15" height="307.24"/>
  </clipPath>
 </defs>
</svg>
